{
	"patcher" : 	{
		"fileversion" : 1,
		"rect" : [ 91.0, 96.0, 1180.0, 688.0 ],
		"bglocked" : 0,
		"defrect" : [ 91.0, 96.0, 1180.0, 688.0 ],
		"openrect" : [ 0.0, 0.0, 0.0, 0.0 ],
		"openinpresentation" : 0,
		"default_fontsize" : 12.0,
		"default_fontface" : 0,
		"default_fontname" : "Arial",
		"gridonopen" : 0,
		"gridsize" : [ 15.0, 15.0 ],
		"gridsnaponopen" : 0,
		"toolbarvisible" : 1,
		"boxanimatetime" : 200,
		"imprint" : 0,
		"enablehscroll" : 1,
		"enablevscroll" : 1,
		"devicewidth" : 0.0,
		"boxes" : [ 			{
				"box" : 				{
					"maxclass" : "newobj",
					"text" : "r module_focus",
					"patching_rect" : [ -74.0, 265.0, 79.0, 17.0 ],
					"id" : "obj-1",
					"fontname" : "Arial",
					"numinlets" : 0,
					"fontsize" : 9.0,
					"numoutlets" : 1,
					"outlettype" : [ "" ]
				}

			}
, 			{
				"box" : 				{
					"maxclass" : "newobj",
					"text" : "gate 3",
					"patching_rect" : [ 38.0, 295.0, 40.0, 17.0 ],
					"id" : "obj-2",
					"fontname" : "Arial",
					"numinlets" : 2,
					"fontsize" : 9.0,
					"numoutlets" : 3,
					"outlettype" : [ "", "", "" ]
				}

			}
, 			{
				"box" : 				{
					"maxclass" : "newobj",
					"varname" : "u490000016[2]",
					"text" : "pattrforward parent::chopper::playpos",
					"patching_rect" : [ 382.0, 348.0, 187.0, 17.0 ],
					"id" : "obj-3",
					"fontname" : "Arial",
					"numinlets" : 1,
					"fontsize" : 9.0,
					"numoutlets" : 1,
					"outlettype" : [ "" ]
				}

			}
, 			{
				"box" : 				{
					"maxclass" : "newobj",
					"text" : "/ 127.",
					"patching_rect" : [ 387.0, 320.0, 40.0, 17.0 ],
					"id" : "obj-4",
					"fontname" : "Arial",
					"numinlets" : 2,
					"fontsize" : 9.0,
					"numoutlets" : 1,
					"outlettype" : [ "float" ]
				}

			}
, 			{
				"box" : 				{
					"maxclass" : "newobj",
					"text" : "ctlin 16",
					"patching_rect" : [ 387.0, 295.0, 45.0, 17.0 ],
					"id" : "obj-5",
					"fontname" : "Arial",
					"numinlets" : 1,
					"fontsize" : 9.0,
					"numoutlets" : 2,
					"outlettype" : [ "int", "int" ]
				}

			}
, 			{
				"box" : 				{
					"maxclass" : "newobj",
					"text" : "pattrforward",
					"patching_rect" : [ 603.0, 296.0, 70.0, 17.0 ],
					"id" : "obj-6",
					"fontname" : "Arial",
					"numinlets" : 1,
					"fontsize" : 9.0,
					"numoutlets" : 1,
					"outlettype" : [ "" ]
				}

			}
, 			{
				"box" : 				{
					"maxclass" : "newobj",
					"text" : "loadmess dump",
					"patching_rect" : [ 1088.0, 188.0, 77.0, 17.0 ],
					"id" : "obj-7",
					"fontname" : "Arial",
					"numinlets" : 1,
					"fontsize" : 9.0,
					"numoutlets" : 1,
					"outlettype" : [ "" ]
				}

			}
, 			{
				"box" : 				{
					"maxclass" : "bpatcher",
					"patching_rect" : [ 574.0, 249.0, 170.0, 25.0 ],
					"id" : "obj-8",
					"offset" : [ -208.0, -206.0 ],
					"name" : "ps_route.maxpat",
					"args" : [ "parent::" ],
					"numinlets" : 0,
					"numoutlets" : 1,
					"lockeddragscroll" : 1,
					"outlettype" : [ "" ]
				}

			}
, 			{
				"box" : 				{
					"maxclass" : "newobj",
					"text" : "accum",
					"patching_rect" : [ 1057.0, 316.0, 40.0, 17.0 ],
					"id" : "obj-9",
					"fontname" : "Arial",
					"numinlets" : 3,
					"fontsize" : 9.0,
					"numoutlets" : 1,
					"outlettype" : [ "int" ]
				}

			}
, 			{
				"box" : 				{
					"maxclass" : "newobj",
					"text" : "% 2",
					"patching_rect" : [ 1057.0, 349.0, 27.0, 17.0 ],
					"id" : "obj-10",
					"fontname" : "Arial",
					"numinlets" : 2,
					"fontsize" : 9.0,
					"numoutlets" : 1,
					"outlettype" : [ "int" ]
				}

			}
, 			{
				"box" : 				{
					"maxclass" : "newobj",
					"text" : "key",
					"patching_rect" : [ 1042.0, 238.0, 40.0, 17.0 ],
					"id" : "obj-11",
					"fontname" : "Arial",
					"numinlets" : 0,
					"fontsize" : 9.0,
					"numoutlets" : 4,
					"outlettype" : [ "int", "int", "int", "int" ]
				}

			}
, 			{
				"box" : 				{
					"maxclass" : "newobj",
					"text" : "s module_focus",
					"patching_rect" : [ 939.0, 422.0, 79.0, 17.0 ],
					"id" : "obj-12",
					"fontname" : "Arial",
					"numinlets" : 1,
					"fontsize" : 9.0,
					"numoutlets" : 0
				}

			}
, 			{
				"box" : 				{
					"maxclass" : "message",
					"text" : "1",
					"patching_rect" : [ 1072.0, 297.0, 16.0, 15.0 ],
					"id" : "obj-13",
					"fontname" : "Arial",
					"numinlets" : 2,
					"fontsize" : 9.0,
					"numoutlets" : 1,
					"outlettype" : [ "" ]
				}

			}
, 			{
				"box" : 				{
					"maxclass" : "newobj",
					"text" : "loadmess 1",
					"patching_rect" : [ 1000.0, 282.0, 60.0, 17.0 ],
					"id" : "obj-14",
					"fontname" : "Arial",
					"numinlets" : 1,
					"fontsize" : 9.0,
					"numoutlets" : 1,
					"outlettype" : [ "" ]
				}

			}
, 			{
				"box" : 				{
					"maxclass" : "newobj",
					"text" : "sel 48",
					"patching_rect" : [ 1057.0, 258.0, 38.0, 17.0 ],
					"id" : "obj-15",
					"fontname" : "Arial",
					"numinlets" : 2,
					"fontsize" : 9.0,
					"numoutlets" : 2,
					"outlettype" : [ "bang", "" ]
				}

			}
, 			{
				"box" : 				{
					"maxclass" : "newobj",
					"text" : "+ 1",
					"patching_rect" : [ 1057.0, 371.0, 27.0, 17.0 ],
					"id" : "obj-16",
					"fontname" : "Arial",
					"numinlets" : 2,
					"fontsize" : 9.0,
					"numoutlets" : 1,
					"outlettype" : [ "int" ]
				}

			}
, 			{
				"box" : 				{
					"maxclass" : "newobj",
					"text" : "loadbang",
					"patching_rect" : [ 1061.0, 38.0, 79.0, 17.0 ],
					"id" : "obj-17",
					"fontname" : "Arial",
					"numinlets" : 1,
					"fontsize" : 9.0,
					"numoutlets" : 1,
					"outlettype" : [ "bang" ]
				}

			}
, 			{
				"box" : 				{
					"maxclass" : "message",
					"text" : "active playback1::play 0, active playback2::play 0, active chopper::play 0, active master.mxb::main_level_left 0, active master.mxb::main_level_right 0, active playback1::loop_start 0, active playback1::loop_end 0, active playback2::loop_start 0, active playback2::loop_end 0",
					"linecount" : 4,
					"patching_rect" : [ 1060.0, 59.0, 360.0, 46.0 ],
					"id" : "obj-18",
					"fontname" : "Arial",
					"numinlets" : 2,
					"fontsize" : 9.0,
					"numoutlets" : 1,
					"outlettype" : [ "" ]
				}

			}
, 			{
				"box" : 				{
					"maxclass" : "newobj",
					"text" : "r module_focus",
					"patching_rect" : [ -37.0, 530.0, 79.0, 17.0 ],
					"id" : "obj-19",
					"fontname" : "Arial",
					"numinlets" : 0,
					"fontsize" : 9.0,
					"numoutlets" : 1,
					"outlettype" : [ "" ]
				}

			}
, 			{
				"box" : 				{
					"maxclass" : "newobj",
					"varname" : "u490000016[7]",
					"text" : "pattrforward parent::playback1::varispeed",
					"patching_rect" : [ 50.0, 604.0, 207.0, 17.0 ],
					"id" : "obj-20",
					"fontname" : "Arial",
					"numinlets" : 1,
					"fontsize" : 9.0,
					"numoutlets" : 1,
					"outlettype" : [ "" ]
				}

			}
, 			{
				"box" : 				{
					"maxclass" : "newobj",
					"text" : "gate 3",
					"patching_rect" : [ 37.0, 564.0, 40.0, 17.0 ],
					"id" : "obj-21",
					"fontname" : "Arial",
					"numinlets" : 2,
					"fontsize" : 9.0,
					"numoutlets" : 3,
					"outlettype" : [ "", "", "" ]
				}

			}
, 			{
				"box" : 				{
					"maxclass" : "newobj",
					"text" : "p play_module",
					"patching_rect" : [ 609.0, 46.0, 74.0, 17.0 ],
					"id" : "obj-22",
					"fontname" : "Arial",
					"numinlets" : 1,
					"fontsize" : 9.0,
					"numoutlets" : 0,
					"patcher" : 					{
						"fileversion" : 1,
						"rect" : [ 226.0, 191.0, 820.0, 521.0 ],
						"bglocked" : 0,
						"defrect" : [ 226.0, 191.0, 820.0, 521.0 ],
						"openrect" : [ 0.0, 0.0, 0.0, 0.0 ],
						"openinpresentation" : 0,
						"default_fontsize" : 12.0,
						"default_fontface" : 0,
						"default_fontname" : "Arial",
						"gridonopen" : 0,
						"gridsize" : [ 15.0, 15.0 ],
						"gridsnaponopen" : 0,
						"toolbarvisible" : 1,
						"boxanimatetime" : 200,
						"imprint" : 0,
						"enablehscroll" : 1,
						"enablevscroll" : 1,
						"devicewidth" : 0.0,
						"boxes" : [ 							{
								"box" : 								{
									"maxclass" : "newobj",
									"varname" : "u490000016[3]",
									"text" : "pattrforward parent::parent::playback2::loop",
									"patching_rect" : [ 380.0, 188.0, 218.0, 17.0 ],
									"id" : "obj-1",
									"fontname" : "Arial",
									"numinlets" : 1,
									"fontsize" : 9.0,
									"numoutlets" : 1,
									"outlettype" : [ "" ]
								}

							}
, 							{
								"box" : 								{
									"maxclass" : "newobj",
									"text" : "gate 3",
									"patching_rect" : [ 375.0, 157.0, 40.0, 17.0 ],
									"id" : "obj-2",
									"fontname" : "Arial",
									"numinlets" : 2,
									"fontsize" : 9.0,
									"numoutlets" : 3,
									"outlettype" : [ "", "", "" ]
								}

							}
, 							{
								"box" : 								{
									"maxclass" : "newobj",
									"varname" : "u490000016[2]",
									"text" : "pattrforward parent::parent::playback2::fade",
									"patching_rect" : [ 279.0, 235.0, 219.0, 17.0 ],
									"id" : "obj-3",
									"fontname" : "Arial",
									"numinlets" : 1,
									"fontsize" : 9.0,
									"numoutlets" : 1,
									"outlettype" : [ "" ]
								}

							}
, 							{
								"box" : 								{
									"maxclass" : "newobj",
									"text" : "gate 3",
									"patching_rect" : [ 213.0, 188.0, 40.0, 17.0 ],
									"id" : "obj-4",
									"fontname" : "Arial",
									"numinlets" : 2,
									"fontsize" : 9.0,
									"numoutlets" : 3,
									"outlettype" : [ "", "", "" ]
								}

							}
, 							{
								"box" : 								{
									"maxclass" : "newobj",
									"varname" : "u490000016[1]",
									"text" : "pattrforward parent::parent::playback2::auto",
									"patching_rect" : [ 49.0, 247.0, 219.0, 17.0 ],
									"id" : "obj-5",
									"fontname" : "Arial",
									"numinlets" : 1,
									"fontsize" : 9.0,
									"numoutlets" : 1,
									"outlettype" : [ "" ]
								}

							}
, 							{
								"box" : 								{
									"maxclass" : "newobj",
									"text" : "r module_focus",
									"patching_rect" : [ 29.0, 104.0, 79.0, 17.0 ],
									"id" : "obj-6",
									"fontname" : "Arial",
									"numinlets" : 0,
									"fontsize" : 9.0,
									"numoutlets" : 1,
									"outlettype" : [ "" ]
								}

							}
, 							{
								"box" : 								{
									"maxclass" : "newobj",
									"text" : "gate 3",
									"patching_rect" : [ 80.0, 188.0, 40.0, 17.0 ],
									"id" : "obj-7",
									"fontname" : "Arial",
									"numinlets" : 2,
									"fontsize" : 9.0,
									"numoutlets" : 3,
									"outlettype" : [ "", "", "" ]
								}

							}
, 							{
								"box" : 								{
									"maxclass" : "newobj",
									"varname" : "u490000016[10]",
									"text" : "pattrforward parent::parent::playback1::loop",
									"patching_rect" : [ 361.0, 208.0, 218.0, 17.0 ],
									"id" : "obj-8",
									"fontname" : "Arial",
									"numinlets" : 1,
									"fontsize" : 9.0,
									"numoutlets" : 1,
									"outlettype" : [ "" ]
								}

							}
, 							{
								"box" : 								{
									"maxclass" : "newobj",
									"varname" : "u490000016[9]",
									"text" : "pattrforward parent::parent::playback1::fade",
									"patching_rect" : [ 276.0, 256.0, 219.0, 17.0 ],
									"id" : "obj-9",
									"fontname" : "Arial",
									"numinlets" : 1,
									"fontsize" : 9.0,
									"numoutlets" : 1,
									"outlettype" : [ "" ]
								}

							}
, 							{
								"box" : 								{
									"maxclass" : "newobj",
									"varname" : "u490000016[7]",
									"text" : "pattrforward parent::parent::playback1::auto",
									"patching_rect" : [ 24.0, 266.0, 219.0, 17.0 ],
									"id" : "obj-10",
									"fontname" : "Arial",
									"numinlets" : 1,
									"fontsize" : 9.0,
									"numoutlets" : 1,
									"outlettype" : [ "" ]
								}

							}
, 							{
								"box" : 								{
									"maxclass" : "newobj",
									"text" : "sel 97 102 108",
									"patching_rect" : [ 127.0, 50.0, 80.0, 17.0 ],
									"id" : "obj-11",
									"fontname" : "Arial",
									"numinlets" : 1,
									"fontsize" : 9.0,
									"numoutlets" : 4,
									"outlettype" : [ "bang", "bang", "bang", "" ]
								}

							}
, 							{
								"box" : 								{
									"maxclass" : "inlet",
									"patching_rect" : [ 127.0, 30.0, 15.0, 15.0 ],
									"id" : "obj-12",
									"numinlets" : 0,
									"numoutlets" : 1,
									"outlettype" : [ "int" ],
									"comment" : ""
								}

							}
 ],
						"lines" : [ 							{
								"patchline" : 								{
									"source" : [ "obj-7", 0 ],
									"destination" : [ "obj-10", 0 ],
									"hidden" : 0,
									"midpoints" : [  ]
								}

							}
, 							{
								"patchline" : 								{
									"source" : [ "obj-7", 1 ],
									"destination" : [ "obj-5", 0 ],
									"hidden" : 0,
									"midpoints" : [  ]
								}

							}
, 							{
								"patchline" : 								{
									"source" : [ "obj-6", 0 ],
									"destination" : [ "obj-7", 0 ],
									"hidden" : 0,
									"midpoints" : [ 38.5, 154.0, 89.5, 154.0 ]
								}

							}
, 							{
								"patchline" : 								{
									"source" : [ "obj-11", 0 ],
									"destination" : [ "obj-7", 1 ],
									"hidden" : 0,
									"midpoints" : [ 136.5, 127.0, 110.5, 127.0 ]
								}

							}
, 							{
								"patchline" : 								{
									"source" : [ "obj-12", 0 ],
									"destination" : [ "obj-11", 0 ],
									"hidden" : 0,
									"midpoints" : [  ]
								}

							}
, 							{
								"patchline" : 								{
									"source" : [ "obj-6", 0 ],
									"destination" : [ "obj-4", 0 ],
									"hidden" : 0,
									"midpoints" : [ 38.5, 149.0, 222.5, 149.0 ]
								}

							}
, 							{
								"patchline" : 								{
									"source" : [ "obj-11", 1 ],
									"destination" : [ "obj-4", 1 ],
									"hidden" : 0,
									"midpoints" : [ 156.833328, 127.0, 243.5, 127.0 ]
								}

							}
, 							{
								"patchline" : 								{
									"source" : [ "obj-4", 0 ],
									"destination" : [ "obj-9", 0 ],
									"hidden" : 0,
									"midpoints" : [  ]
								}

							}
, 							{
								"patchline" : 								{
									"source" : [ "obj-4", 1 ],
									"destination" : [ "obj-3", 0 ],
									"hidden" : 0,
									"midpoints" : [  ]
								}

							}
, 							{
								"patchline" : 								{
									"source" : [ "obj-2", 0 ],
									"destination" : [ "obj-8", 0 ],
									"hidden" : 0,
									"midpoints" : [  ]
								}

							}
, 							{
								"patchline" : 								{
									"source" : [ "obj-6", 0 ],
									"destination" : [ "obj-2", 0 ],
									"hidden" : 0,
									"midpoints" : [ 38.5, 145.0, 384.5, 145.0 ]
								}

							}
, 							{
								"patchline" : 								{
									"source" : [ "obj-2", 1 ],
									"destination" : [ "obj-1", 0 ],
									"hidden" : 0,
									"midpoints" : [  ]
								}

							}
, 							{
								"patchline" : 								{
									"source" : [ "obj-11", 2 ],
									"destination" : [ "obj-2", 1 ],
									"hidden" : 0,
									"midpoints" : [ 177.166672, 112.0, 405.5, 112.0 ]
								}

							}
 ]
					}
,
					"saved_object_attributes" : 					{
						"default_fontname" : "Arial",
						"fontname" : "Arial",
						"default_fontsize" : 12.0,
						"globalpatchername" : "",
						"fontface" : 0,
						"fontsize" : 12.0,
						"default_fontface" : 0
					}

				}

			}
, 			{
				"box" : 				{
					"maxclass" : "newobj",
					"text" : "p matrix",
					"patching_rect" : [ 688.0, 43.0, 49.0, 17.0 ],
					"id" : "obj-23",
					"fontname" : "Arial",
					"numinlets" : 1,
					"fontsize" : 9.0,
					"numoutlets" : 0,
					"patcher" : 					{
						"fileversion" : 1,
						"rect" : [ 329.0, 335.0, 726.0, 403.0 ],
						"bglocked" : 0,
						"defrect" : [ 329.0, 335.0, 726.0, 403.0 ],
						"openrect" : [ 0.0, 0.0, 0.0, 0.0 ],
						"openinpresentation" : 0,
						"default_fontsize" : 12.0,
						"default_fontface" : 0,
						"default_fontname" : "Arial",
						"gridonopen" : 0,
						"gridsize" : [ 15.0, 15.0 ],
						"gridsnaponopen" : 0,
						"toolbarvisible" : 1,
						"boxanimatetime" : 200,
						"imprint" : 0,
						"enablehscroll" : 1,
						"enablevscroll" : 1,
						"devicewidth" : 0.0,
						"boxes" : [ 							{
								"box" : 								{
									"maxclass" : "message",
									"text" : "0 8 0, 0 9 0",
									"patching_rect" : [ 587.0, 170.0, 65.0, 15.0 ],
									"id" : "obj-1",
									"fontname" : "Arial",
									"numinlets" : 2,
									"fontsize" : 9.0,
									"numoutlets" : 1,
									"outlettype" : [ "" ]
								}

							}
, 							{
								"box" : 								{
									"maxclass" : "message",
									"text" : "0 8 1, 0 9 1",
									"patching_rect" : [ 592.0, 120.0, 65.0, 15.0 ],
									"id" : "obj-2",
									"fontname" : "Arial",
									"numinlets" : 2,
									"fontsize" : 9.0,
									"numoutlets" : 1,
									"outlettype" : [ "" ]
								}

							}
, 							{
								"box" : 								{
									"maxclass" : "message",
									"text" : "0 6 0, 0 7 0",
									"patching_rect" : [ 518.0, 168.0, 65.0, 15.0 ],
									"id" : "obj-3",
									"fontname" : "Arial",
									"numinlets" : 2,
									"fontsize" : 9.0,
									"numoutlets" : 1,
									"outlettype" : [ "" ]
								}

							}
, 							{
								"box" : 								{
									"maxclass" : "message",
									"text" : "0 6 1, 0 7 1",
									"patching_rect" : [ 523.0, 118.0, 65.0, 15.0 ],
									"id" : "obj-4",
									"fontname" : "Arial",
									"numinlets" : 2,
									"fontsize" : 9.0,
									"numoutlets" : 1,
									"outlettype" : [ "" ]
								}

							}
, 							{
								"box" : 								{
									"maxclass" : "message",
									"text" : "0 4 0, 0 5 0",
									"patching_rect" : [ 460.0, 171.0, 65.0, 15.0 ],
									"id" : "obj-5",
									"fontname" : "Arial",
									"numinlets" : 2,
									"fontsize" : 9.0,
									"numoutlets" : 1,
									"outlettype" : [ "" ]
								}

							}
, 							{
								"box" : 								{
									"maxclass" : "message",
									"text" : "0 4 1, 0 5 1",
									"patching_rect" : [ 465.0, 121.0, 65.0, 15.0 ],
									"id" : "obj-6",
									"fontname" : "Arial",
									"numinlets" : 2,
									"fontsize" : 9.0,
									"numoutlets" : 1,
									"outlettype" : [ "" ]
								}

							}
, 							{
								"box" : 								{
									"maxclass" : "message",
									"text" : "0 2 0, 0 3 0",
									"patching_rect" : [ 408.0, 148.0, 65.0, 15.0 ],
									"id" : "obj-7",
									"fontname" : "Arial",
									"numinlets" : 2,
									"fontsize" : 9.0,
									"numoutlets" : 1,
									"outlettype" : [ "" ]
								}

							}
, 							{
								"box" : 								{
									"maxclass" : "message",
									"text" : "0 2 1, 0 3 1",
									"patching_rect" : [ 382.0, 116.0, 65.0, 15.0 ],
									"id" : "obj-8",
									"fontname" : "Arial",
									"numinlets" : 2,
									"fontsize" : 9.0,
									"numoutlets" : 1,
									"outlettype" : [ "" ]
								}

							}
, 							{
								"box" : 								{
									"maxclass" : "newobj",
									"varname" : "u490000016[1]",
									"text" : "pattrforward parent::parent::vst.mix.abs:plug_matrix1[1]",
									"patching_rect" : [ 346.0, 237.0, 279.0, 17.0 ],
									"id" : "obj-9",
									"fontname" : "Arial",
									"numinlets" : 1,
									"fontsize" : 9.0,
									"numoutlets" : 1,
									"outlettype" : [ "" ]
								}

							}
, 							{
								"box" : 								{
									"maxclass" : "newobj",
									"text" : "sel 47 63 46 62 44 60 109 77",
									"patching_rect" : [ 366.0, 64.0, 149.0, 17.0 ],
									"id" : "obj-10",
									"fontname" : "Arial",
									"numinlets" : 1,
									"fontsize" : 9.0,
									"numoutlets" : 9,
									"outlettype" : [ "bang", "bang", "bang", "bang", "bang", "bang", "bang", "bang", "" ]
								}

							}
, 							{
								"box" : 								{
									"maxclass" : "message",
									"text" : "2 8 0, 3 9 0",
									"patching_rect" : [ 323.0, 156.0, 65.0, 15.0 ],
									"id" : "obj-11",
									"fontname" : "Arial",
									"numinlets" : 2,
									"fontsize" : 9.0,
									"numoutlets" : 1,
									"outlettype" : [ "" ]
								}

							}
, 							{
								"box" : 								{
									"maxclass" : "message",
									"text" : "2 8 1, 3 9 1",
									"patching_rect" : [ 300.0, 102.0, 65.0, 15.0 ],
									"id" : "obj-12",
									"fontname" : "Arial",
									"numinlets" : 2,
									"fontsize" : 9.0,
									"numoutlets" : 1,
									"outlettype" : [ "" ]
								}

							}
, 							{
								"box" : 								{
									"maxclass" : "message",
									"text" : "2 6 0, 3 7 0",
									"patching_rect" : [ 236.0, 152.0, 65.0, 15.0 ],
									"id" : "obj-13",
									"fontname" : "Arial",
									"numinlets" : 2,
									"fontsize" : 9.0,
									"numoutlets" : 1,
									"outlettype" : [ "" ]
								}

							}
, 							{
								"box" : 								{
									"maxclass" : "message",
									"text" : "2 6 1, 3 7 1",
									"patching_rect" : [ 213.0, 98.0, 65.0, 15.0 ],
									"id" : "obj-14",
									"fontname" : "Arial",
									"numinlets" : 2,
									"fontsize" : 9.0,
									"numoutlets" : 1,
									"outlettype" : [ "" ]
								}

							}
, 							{
								"box" : 								{
									"maxclass" : "message",
									"text" : "2 4 0, 3 5 0",
									"patching_rect" : [ 156.0, 153.0, 65.0, 15.0 ],
									"id" : "obj-15",
									"fontname" : "Arial",
									"numinlets" : 2,
									"fontsize" : 9.0,
									"numoutlets" : 1,
									"outlettype" : [ "" ]
								}

							}
, 							{
								"box" : 								{
									"maxclass" : "message",
									"text" : "2 4 1, 3 5 1",
									"patching_rect" : [ 133.0, 99.0, 65.0, 15.0 ],
									"id" : "obj-16",
									"fontname" : "Arial",
									"numinlets" : 2,
									"fontsize" : 9.0,
									"numoutlets" : 1,
									"outlettype" : [ "" ]
								}

							}
, 							{
								"box" : 								{
									"maxclass" : "message",
									"text" : "2 2 0, 3 3 0",
									"patching_rect" : [ 73.0, 153.0, 65.0, 15.0 ],
									"id" : "obj-17",
									"fontname" : "Arial",
									"numinlets" : 2,
									"fontsize" : 9.0,
									"numoutlets" : 1,
									"outlettype" : [ "" ]
								}

							}
, 							{
								"box" : 								{
									"maxclass" : "message",
									"text" : "2 2 1, 3 3 1",
									"patching_rect" : [ 50.0, 99.0, 65.0, 15.0 ],
									"id" : "obj-18",
									"fontname" : "Arial",
									"numinlets" : 2,
									"fontsize" : 9.0,
									"numoutlets" : 1,
									"outlettype" : [ "" ]
								}

							}
, 							{
								"box" : 								{
									"maxclass" : "newobj",
									"varname" : "u490000016[7]",
									"text" : "pattrforward parent::parent::vst_matrix.mxb:matrix1",
									"patching_rect" : [ 62.0, 233.0, 262.0, 17.0 ],
									"id" : "obj-19",
									"fontname" : "Arial",
									"numinlets" : 1,
									"fontsize" : 9.0,
									"numoutlets" : 1,
									"outlettype" : [ "" ]
								}

							}
, 							{
								"box" : 								{
									"maxclass" : "newobj",
									"text" : "sel 122 90 120 88 99 67 118 86",
									"patching_rect" : [ 89.0, 50.0, 164.0, 17.0 ],
									"id" : "obj-20",
									"fontname" : "Arial",
									"numinlets" : 1,
									"fontsize" : 9.0,
									"numoutlets" : 9,
									"outlettype" : [ "bang", "bang", "bang", "bang", "bang", "bang", "bang", "bang", "" ]
								}

							}
, 							{
								"box" : 								{
									"maxclass" : "inlet",
									"patching_rect" : [ 89.0, 30.0, 15.0, 15.0 ],
									"id" : "obj-21",
									"numinlets" : 0,
									"numoutlets" : 1,
									"outlettype" : [ "" ],
									"comment" : ""
								}

							}
 ],
						"lines" : [ 							{
								"patchline" : 								{
									"source" : [ "obj-20", 0 ],
									"destination" : [ "obj-18", 0 ],
									"hidden" : 0,
									"midpoints" : [  ]
								}

							}
, 							{
								"patchline" : 								{
									"source" : [ "obj-15", 0 ],
									"destination" : [ "obj-19", 0 ],
									"hidden" : 0,
									"midpoints" : [  ]
								}

							}
, 							{
								"patchline" : 								{
									"source" : [ "obj-16", 0 ],
									"destination" : [ "obj-19", 0 ],
									"hidden" : 0,
									"midpoints" : [  ]
								}

							}
, 							{
								"patchline" : 								{
									"source" : [ "obj-18", 0 ],
									"destination" : [ "obj-19", 0 ],
									"hidden" : 0,
									"midpoints" : [  ]
								}

							}
, 							{
								"patchline" : 								{
									"source" : [ "obj-17", 0 ],
									"destination" : [ "obj-19", 0 ],
									"hidden" : 0,
									"midpoints" : [  ]
								}

							}
, 							{
								"patchline" : 								{
									"source" : [ "obj-13", 0 ],
									"destination" : [ "obj-19", 0 ],
									"hidden" : 0,
									"midpoints" : [  ]
								}

							}
, 							{
								"patchline" : 								{
									"source" : [ "obj-14", 0 ],
									"destination" : [ "obj-19", 0 ],
									"hidden" : 0,
									"midpoints" : [  ]
								}

							}
, 							{
								"patchline" : 								{
									"source" : [ "obj-12", 0 ],
									"destination" : [ "obj-19", 0 ],
									"hidden" : 0,
									"midpoints" : [  ]
								}

							}
, 							{
								"patchline" : 								{
									"source" : [ "obj-11", 0 ],
									"destination" : [ "obj-19", 0 ],
									"hidden" : 0,
									"midpoints" : [  ]
								}

							}
, 							{
								"patchline" : 								{
									"source" : [ "obj-20", 1 ],
									"destination" : [ "obj-17", 0 ],
									"hidden" : 0,
									"midpoints" : [  ]
								}

							}
, 							{
								"patchline" : 								{
									"source" : [ "obj-21", 0 ],
									"destination" : [ "obj-20", 0 ],
									"hidden" : 0,
									"midpoints" : [  ]
								}

							}
, 							{
								"patchline" : 								{
									"source" : [ "obj-20", 2 ],
									"destination" : [ "obj-16", 0 ],
									"hidden" : 0,
									"midpoints" : [  ]
								}

							}
, 							{
								"patchline" : 								{
									"source" : [ "obj-20", 3 ],
									"destination" : [ "obj-15", 0 ],
									"hidden" : 0,
									"midpoints" : [  ]
								}

							}
, 							{
								"patchline" : 								{
									"source" : [ "obj-20", 4 ],
									"destination" : [ "obj-14", 0 ],
									"hidden" : 0,
									"midpoints" : [  ]
								}

							}
, 							{
								"patchline" : 								{
									"source" : [ "obj-20", 5 ],
									"destination" : [ "obj-13", 0 ],
									"hidden" : 0,
									"midpoints" : [  ]
								}

							}
, 							{
								"patchline" : 								{
									"source" : [ "obj-20", 6 ],
									"destination" : [ "obj-12", 0 ],
									"hidden" : 0,
									"midpoints" : [  ]
								}

							}
, 							{
								"patchline" : 								{
									"source" : [ "obj-20", 7 ],
									"destination" : [ "obj-11", 0 ],
									"hidden" : 0,
									"midpoints" : [  ]
								}

							}
, 							{
								"patchline" : 								{
									"source" : [ "obj-1", 0 ],
									"destination" : [ "obj-9", 0 ],
									"hidden" : 0,
									"midpoints" : [  ]
								}

							}
, 							{
								"patchline" : 								{
									"source" : [ "obj-2", 0 ],
									"destination" : [ "obj-9", 0 ],
									"hidden" : 0,
									"midpoints" : [  ]
								}

							}
, 							{
								"patchline" : 								{
									"source" : [ "obj-3", 0 ],
									"destination" : [ "obj-9", 0 ],
									"hidden" : 0,
									"midpoints" : [  ]
								}

							}
, 							{
								"patchline" : 								{
									"source" : [ "obj-4", 0 ],
									"destination" : [ "obj-9", 0 ],
									"hidden" : 0,
									"midpoints" : [  ]
								}

							}
, 							{
								"patchline" : 								{
									"source" : [ "obj-5", 0 ],
									"destination" : [ "obj-9", 0 ],
									"hidden" : 0,
									"midpoints" : [  ]
								}

							}
, 							{
								"patchline" : 								{
									"source" : [ "obj-6", 0 ],
									"destination" : [ "obj-9", 0 ],
									"hidden" : 0,
									"midpoints" : [  ]
								}

							}
, 							{
								"patchline" : 								{
									"source" : [ "obj-7", 0 ],
									"destination" : [ "obj-9", 0 ],
									"hidden" : 0,
									"midpoints" : [  ]
								}

							}
, 							{
								"patchline" : 								{
									"source" : [ "obj-8", 0 ],
									"destination" : [ "obj-9", 0 ],
									"hidden" : 0,
									"midpoints" : [  ]
								}

							}
, 							{
								"patchline" : 								{
									"source" : [ "obj-21", 0 ],
									"destination" : [ "obj-10", 0 ],
									"hidden" : 0,
									"midpoints" : [  ]
								}

							}
, 							{
								"patchline" : 								{
									"source" : [ "obj-10", 0 ],
									"destination" : [ "obj-8", 0 ],
									"hidden" : 0,
									"midpoints" : [  ]
								}

							}
, 							{
								"patchline" : 								{
									"source" : [ "obj-10", 1 ],
									"destination" : [ "obj-7", 0 ],
									"hidden" : 0,
									"midpoints" : [  ]
								}

							}
, 							{
								"patchline" : 								{
									"source" : [ "obj-10", 3 ],
									"destination" : [ "obj-5", 0 ],
									"hidden" : 0,
									"midpoints" : [  ]
								}

							}
, 							{
								"patchline" : 								{
									"source" : [ "obj-10", 2 ],
									"destination" : [ "obj-6", 0 ],
									"hidden" : 0,
									"midpoints" : [  ]
								}

							}
, 							{
								"patchline" : 								{
									"source" : [ "obj-10", 5 ],
									"destination" : [ "obj-3", 0 ],
									"hidden" : 0,
									"midpoints" : [  ]
								}

							}
, 							{
								"patchline" : 								{
									"source" : [ "obj-10", 4 ],
									"destination" : [ "obj-4", 0 ],
									"hidden" : 0,
									"midpoints" : [  ]
								}

							}
, 							{
								"patchline" : 								{
									"source" : [ "obj-10", 7 ],
									"destination" : [ "obj-1", 0 ],
									"hidden" : 0,
									"midpoints" : [  ]
								}

							}
, 							{
								"patchline" : 								{
									"source" : [ "obj-10", 6 ],
									"destination" : [ "obj-2", 0 ],
									"hidden" : 0,
									"midpoints" : [  ]
								}

							}
 ]
					}
,
					"saved_object_attributes" : 					{
						"default_fontname" : "Arial",
						"fontname" : "Arial",
						"default_fontsize" : 12.0,
						"globalpatchername" : "",
						"fontface" : 0,
						"fontsize" : 12.0,
						"default_fontface" : 0
					}

				}

			}
, 			{
				"box" : 				{
					"maxclass" : "newobj",
					"text" : "s 5_open",
					"patching_rect" : [ 557.0, 68.0, 50.0, 17.0 ],
					"id" : "obj-24",
					"fontname" : "Arial",
					"numinlets" : 1,
					"fontsize" : 9.0,
					"numoutlets" : 0
				}

			}
, 			{
				"box" : 				{
					"maxclass" : "newobj",
					"text" : "s 4_open",
					"patching_rect" : [ 572.0, 96.0, 50.0, 17.0 ],
					"id" : "obj-25",
					"fontname" : "Arial",
					"numinlets" : 1,
					"fontsize" : 9.0,
					"numoutlets" : 0
				}

			}
, 			{
				"box" : 				{
					"maxclass" : "newobj",
					"text" : "s 3_open",
					"patching_rect" : [ 505.0, 92.0, 50.0, 17.0 ],
					"id" : "obj-26",
					"fontname" : "Arial",
					"numinlets" : 1,
					"fontsize" : 9.0,
					"numoutlets" : 0
				}

			}
, 			{
				"box" : 				{
					"maxclass" : "newobj",
					"text" : "s 2_open",
					"patching_rect" : [ 452.0, 73.0, 50.0, 17.0 ],
					"id" : "obj-27",
					"fontname" : "Arial",
					"numinlets" : 1,
					"fontsize" : 9.0,
					"numoutlets" : 0
				}

			}
, 			{
				"box" : 				{
					"maxclass" : "newobj",
					"text" : "s 1_open",
					"patching_rect" : [ 398.0, 61.0, 50.0, 17.0 ],
					"id" : "obj-28",
					"fontname" : "Arial",
					"numinlets" : 1,
					"fontsize" : 9.0,
					"numoutlets" : 0
				}

			}
, 			{
				"box" : 				{
					"maxclass" : "number",
					"patching_rect" : [ 589.0, 24.0, 35.0, 17.0 ],
					"id" : "obj-29",
					"triscale" : 0.9,
					"fontname" : "Arial",
					"htextcolor" : [ 0.870588, 0.870588, 0.870588, 1.0 ],
					"numinlets" : 1,
					"fontsize" : 9.0,
					"bgcolor" : [ 0.866667, 0.866667, 0.866667, 1.0 ],
					"numoutlets" : 2,
					"outlettype" : [ "int", "bang" ]
				}

			}
, 			{
				"box" : 				{
					"maxclass" : "newobj",
					"text" : "sel 113 119 101 114 116",
					"patching_rect" : [ 443.0, 39.0, 128.0, 17.0 ],
					"id" : "obj-30",
					"fontname" : "Arial",
					"numinlets" : 1,
					"fontsize" : 9.0,
					"numoutlets" : 6,
					"outlettype" : [ "bang", "bang", "bang", "bang", "bang", "" ]
				}

			}
, 			{
				"box" : 				{
					"maxclass" : "newobj",
					"text" : "key",
					"patching_rect" : [ 443.0, 10.0, 40.0, 17.0 ],
					"id" : "obj-31",
					"fontname" : "Arial",
					"numinlets" : 0,
					"fontsize" : 9.0,
					"numoutlets" : 4,
					"outlettype" : [ "int", "int", "int", "int" ]
				}

			}
, 			{
				"box" : 				{
					"maxclass" : "newobj",
					"varname" : "u490000016[8]",
					"text" : "pattrforward parent:master.mxb::main_level_left",
					"patching_rect" : [ 480.0, 159.0, 239.0, 17.0 ],
					"id" : "obj-32",
					"fontname" : "Arial",
					"numinlets" : 1,
					"fontsize" : 9.0,
					"numoutlets" : 1,
					"outlettype" : [ "" ]
				}

			}
, 			{
				"box" : 				{
					"maxclass" : "newobj",
					"text" : "ctlin 7",
					"patching_rect" : [ 480.0, 132.0, 39.0, 17.0 ],
					"id" : "obj-33",
					"fontname" : "Arial",
					"numinlets" : 1,
					"fontsize" : 9.0,
					"numoutlets" : 2,
					"outlettype" : [ "int", "int" ]
				}

			}
, 			{
				"box" : 				{
					"maxclass" : "number",
					"patching_rect" : [ 62.0, 55.0, 35.0, 17.0 ],
					"id" : "obj-34",
					"triscale" : 0.9,
					"fontname" : "Arial",
					"htextcolor" : [ 0.870588, 0.870588, 0.870588, 1.0 ],
					"numinlets" : 1,
					"fontsize" : 9.0,
					"bgcolor" : [ 0.866667, 0.866667, 0.866667, 1.0 ],
					"numoutlets" : 2,
					"outlettype" : [ "int", "bang" ]
				}

			}
, 			{
				"box" : 				{
					"maxclass" : "newobj",
					"text" : "+ 1000",
					"patching_rect" : [ 76.0, 523.0, 43.0, 17.0 ],
					"id" : "obj-35",
					"fontname" : "Arial",
					"numinlets" : 2,
					"fontsize" : 9.0,
					"numoutlets" : 1,
					"outlettype" : [ "int" ]
				}

			}
, 			{
				"box" : 				{
					"maxclass" : "newobj",
					"text" : "* 100.",
					"patching_rect" : [ 61.0, 489.0, 41.0, 17.0 ],
					"id" : "obj-36",
					"fontname" : "Arial",
					"numinlets" : 2,
					"fontsize" : 9.0,
					"numoutlets" : 1,
					"outlettype" : [ "float" ]
				}

			}
, 			{
				"box" : 				{
					"maxclass" : "newobj",
					"text" : "- 1.",
					"patching_rect" : [ 54.0, 464.0, 27.0, 17.0 ],
					"id" : "obj-37",
					"fontname" : "Arial",
					"numinlets" : 2,
					"fontsize" : 9.0,
					"numoutlets" : 1,
					"outlettype" : [ "float" ]
				}

			}
, 			{
				"box" : 				{
					"maxclass" : "newobj",
					"text" : "- 60",
					"patching_rect" : [ 53.0, 417.0, 30.0, 17.0 ],
					"id" : "obj-38",
					"fontname" : "Arial",
					"numinlets" : 2,
					"fontsize" : 9.0,
					"numoutlets" : 1,
					"outlettype" : [ "int" ]
				}

			}
, 			{
				"box" : 				{
					"maxclass" : "newobj",
					"varname" : "u490000016[6]",
					"text" : "pattrforward parent::playback2::varispeed",
					"patching_rect" : [ -11.0, 630.0, 207.0, 17.0 ],
					"id" : "obj-39",
					"fontname" : "Arial",
					"numinlets" : 1,
					"fontsize" : 9.0,
					"numoutlets" : 1,
					"outlettype" : [ "" ]
				}

			}
, 			{
				"box" : 				{
					"maxclass" : "newobj",
					"text" : "transRatio",
					"patching_rect" : [ 50.0, 438.0, 57.0, 17.0 ],
					"id" : "obj-40",
					"fontname" : "Arial",
					"numinlets" : 2,
					"fontsize" : 9.0,
					"numoutlets" : 1,
					"outlettype" : [ "" ]
				}

			}
, 			{
				"box" : 				{
					"maxclass" : "newobj",
					"text" : "split 53 72",
					"patching_rect" : [ 53.0, 394.0, 60.0, 17.0 ],
					"id" : "obj-41",
					"fontname" : "Arial",
					"numinlets" : 3,
					"fontsize" : 9.0,
					"numoutlets" : 2,
					"outlettype" : [ "int", "int" ]
				}

			}
, 			{
				"box" : 				{
					"maxclass" : "newobj",
					"text" : "notein",
					"patching_rect" : [ 54.0, 371.0, 40.0, 17.0 ],
					"id" : "obj-42",
					"fontname" : "Arial",
					"numinlets" : 1,
					"fontsize" : 9.0,
					"numoutlets" : 3,
					"outlettype" : [ "int", "int", "int" ]
				}

			}
, 			{
				"box" : 				{
					"maxclass" : "newobj",
					"text" : "expr $f1/16383 *2000",
					"patching_rect" : [ 26.0, 237.0, 120.0, 17.0 ],
					"id" : "obj-43",
					"fontname" : "Arial",
					"numinlets" : 1,
					"fontsize" : 9.0,
					"numoutlets" : 1,
					"outlettype" : [ "" ]
				}

			}
, 			{
				"box" : 				{
					"maxclass" : "newobj",
					"text" : "midiin b",
					"patching_rect" : [ 26.0, 189.0, 45.0, 17.0 ],
					"id" : "obj-44",
					"fontname" : "Arial",
					"numinlets" : 1,
					"fontsize" : 9.0,
					"numoutlets" : 1,
					"outlettype" : [ "int" ]
				}

			}
, 			{
				"box" : 				{
					"maxclass" : "newobj",
					"varname" : "u490000016[4]",
					"text" : "pattrforward parent::playback1::varispeed",
					"patching_rect" : [ 42.0, 324.0, 207.0, 17.0 ],
					"id" : "obj-45",
					"fontname" : "Arial",
					"numinlets" : 1,
					"fontsize" : 9.0,
					"numoutlets" : 1,
					"outlettype" : [ "" ]
				}

			}
, 			{
				"box" : 				{
					"maxclass" : "newobj",
					"text" : "xbendin",
					"patching_rect" : [ 26.0, 214.0, 44.0, 17.0 ],
					"id" : "obj-46",
					"fontname" : "Arial",
					"numinlets" : 1,
					"fontsize" : 9.0,
					"numoutlets" : 2,
					"outlettype" : [ "int", "int" ]
				}

			}
, 			{
				"box" : 				{
					"maxclass" : "newobj",
					"text" : "sceneKey.maxpat 10 48 41",
					"patching_rect" : [ 896.0, 197.0, 119.0, 17.0 ],
					"id" : "obj-47",
					"fontname" : "Arial",
					"numinlets" : 0,
					"fontsize" : 9.0,
					"numoutlets" : 1,
					"outlettype" : [ "int" ]
				}

			}
, 			{
				"box" : 				{
					"maxclass" : "newobj",
					"text" : "sceneKey.maxpat 8 56 42",
					"patching_rect" : [ 883.0, 152.0, 114.0, 17.0 ],
					"id" : "obj-48",
					"fontname" : "Arial",
					"numinlets" : 0,
					"fontsize" : 9.0,
					"numoutlets" : 1,
					"outlettype" : [ "int" ]
				}

			}
, 			{
				"box" : 				{
					"maxclass" : "newobj",
					"text" : "sceneKey.maxpat 9 57 40",
					"patching_rect" : [ 891.0, 174.0, 114.0, 17.0 ],
					"id" : "obj-49",
					"fontname" : "Arial",
					"numinlets" : 0,
					"fontsize" : 9.0,
					"numoutlets" : 1,
					"outlettype" : [ "int" ]
				}

			}
, 			{
				"box" : 				{
					"maxclass" : "newobj",
					"text" : "sceneKey.maxpat 7 55 38",
					"patching_rect" : [ 872.0, 130.0, 114.0, 17.0 ],
					"id" : "obj-50",
					"fontname" : "Arial",
					"numinlets" : 0,
					"fontsize" : 9.0,
					"numoutlets" : 1,
					"outlettype" : [ "int" ]
				}

			}
, 			{
				"box" : 				{
					"maxclass" : "newobj",
					"text" : "sceneKey.maxpat 5 53 37",
					"patching_rect" : [ 850.0, 85.0, 114.0, 17.0 ],
					"id" : "obj-51",
					"fontname" : "Arial",
					"numinlets" : 0,
					"fontsize" : 9.0,
					"numoutlets" : 1,
					"outlettype" : [ "int" ]
				}

			}
, 			{
				"box" : 				{
					"maxclass" : "newobj",
					"text" : "sceneKey.maxpat 6 54 94",
					"patching_rect" : [ 858.0, 107.0, 114.0, 17.0 ],
					"id" : "obj-52",
					"fontname" : "Arial",
					"numinlets" : 0,
					"fontsize" : 9.0,
					"numoutlets" : 1,
					"outlettype" : [ "int" ]
				}

			}
, 			{
				"box" : 				{
					"maxclass" : "newobj",
					"text" : "sceneKey.maxpat 4 52 36",
					"patching_rect" : [ 839.0, 63.0, 114.0, 17.0 ],
					"id" : "obj-53",
					"fontname" : "Arial",
					"numinlets" : 0,
					"fontsize" : 9.0,
					"numoutlets" : 1,
					"outlettype" : [ "int" ]
				}

			}
, 			{
				"box" : 				{
					"maxclass" : "newobj",
					"text" : "sceneKey.maxpat 3 51 35",
					"patching_rect" : [ 828.0, 43.0, 114.0, 17.0 ],
					"id" : "obj-54",
					"fontname" : "Arial",
					"numinlets" : 0,
					"fontsize" : 9.0,
					"numoutlets" : 1,
					"outlettype" : [ "int" ]
				}

			}
, 			{
				"box" : 				{
					"maxclass" : "newobj",
					"text" : "sceneKey.maxpat 2 50 64",
					"patching_rect" : [ 816.0, 23.0, 114.0, 17.0 ],
					"id" : "obj-55",
					"fontname" : "Arial",
					"numinlets" : 0,
					"fontsize" : 9.0,
					"numoutlets" : 1,
					"outlettype" : [ "int" ]
				}

			}
, 			{
				"box" : 				{
					"maxclass" : "outlet",
					"patching_rect" : [ 841.0, 314.0, 15.0, 15.0 ],
					"id" : "obj-56",
					"numinlets" : 1,
					"numoutlets" : 0,
					"comment" : ""
				}

			}
, 			{
				"box" : 				{
					"maxclass" : "newobj",
					"text" : "sceneKey.maxpat 1 49 33",
					"patching_rect" : [ 806.0, 4.0, 114.0, 17.0 ],
					"id" : "obj-57",
					"fontname" : "Arial",
					"numinlets" : 0,
					"fontsize" : 9.0,
					"numoutlets" : 1,
					"outlettype" : [ "int" ]
				}

			}
, 			{
				"box" : 				{
					"maxclass" : "newobj",
					"text" : "stripnote",
					"patching_rect" : [ 267.0, 153.0, 51.0, 17.0 ],
					"id" : "obj-58",
					"fontname" : "Arial",
					"numinlets" : 2,
					"fontsize" : 9.0,
					"numoutlets" : 2,
					"outlettype" : [ "int", "int" ]
				}

			}
, 			{
				"box" : 				{
					"maxclass" : "newobj",
					"varname" : "u490000016[3]",
					"text" : "pattrforward parent::chopper::play",
					"patching_rect" : [ 267.0, 201.0, 172.0, 17.0 ],
					"id" : "obj-59",
					"fontname" : "Arial",
					"numinlets" : 1,
					"fontsize" : 9.0,
					"numoutlets" : 1,
					"outlettype" : [ "" ]
				}

			}
, 			{
				"box" : 				{
					"maxclass" : "newobj",
					"text" : "sel 36",
					"patching_rect" : [ 267.0, 179.0, 38.0, 17.0 ],
					"id" : "obj-60",
					"fontname" : "Arial",
					"numinlets" : 2,
					"fontsize" : 9.0,
					"numoutlets" : 2,
					"outlettype" : [ "bang", "" ]
				}

			}
, 			{
				"box" : 				{
					"maxclass" : "newobj",
					"text" : "notein",
					"patching_rect" : [ 267.0, 127.0, 40.0, 17.0 ],
					"id" : "obj-61",
					"fontname" : "Arial",
					"numinlets" : 1,
					"fontsize" : 9.0,
					"numoutlets" : 3,
					"outlettype" : [ "int", "int", "int" ]
				}

			}
, 			{
				"box" : 				{
					"maxclass" : "newobj",
					"text" : "stripnote",
					"patching_rect" : [ 264.0, 50.0, 51.0, 17.0 ],
					"id" : "obj-62",
					"fontname" : "Arial",
					"numinlets" : 2,
					"fontsize" : 9.0,
					"numoutlets" : 2,
					"outlettype" : [ "int", "int" ]
				}

			}
, 			{
				"box" : 				{
					"maxclass" : "newobj",
					"varname" : "u490000016[1]",
					"text" : "pattrforward parent::playback2::play",
					"patching_rect" : [ 264.0, 98.0, 182.0, 17.0 ],
					"id" : "obj-63",
					"fontname" : "Arial",
					"numinlets" : 1,
					"fontsize" : 9.0,
					"numoutlets" : 1,
					"outlettype" : [ "" ]
				}

			}
, 			{
				"box" : 				{
					"maxclass" : "newobj",
					"text" : "sel 49",
					"patching_rect" : [ 264.0, 76.0, 38.0, 17.0 ],
					"id" : "obj-64",
					"fontname" : "Arial",
					"numinlets" : 2,
					"fontsize" : 9.0,
					"numoutlets" : 2,
					"outlettype" : [ "bang", "" ]
				}

			}
, 			{
				"box" : 				{
					"maxclass" : "newobj",
					"text" : "notein",
					"patching_rect" : [ 264.0, 24.0, 40.0, 17.0 ],
					"id" : "obj-65",
					"fontname" : "Arial",
					"numinlets" : 1,
					"fontsize" : 9.0,
					"numoutlets" : 3,
					"outlettype" : [ "int", "int", "int" ]
				}

			}
, 			{
				"box" : 				{
					"maxclass" : "newobj",
					"text" : "stripnote",
					"patching_rect" : [ -20.0, 50.0, 51.0, 17.0 ],
					"id" : "obj-66",
					"fontname" : "Arial",
					"numinlets" : 2,
					"fontsize" : 9.0,
					"numoutlets" : 2,
					"outlettype" : [ "int", "int" ]
				}

			}
, 			{
				"box" : 				{
					"maxclass" : "newobj",
					"varname" : "u490000016",
					"text" : "pattrforward parent::playback1::play",
					"patching_rect" : [ -20.0, 96.0, 182.0, 17.0 ],
					"id" : "obj-67",
					"fontname" : "Arial",
					"numinlets" : 1,
					"fontsize" : 9.0,
					"numoutlets" : 1,
					"outlettype" : [ "" ]
				}

			}
, 			{
				"box" : 				{
					"maxclass" : "newobj",
					"text" : "sel 48",
					"patching_rect" : [ -20.0, 72.0, 38.0, 17.0 ],
					"id" : "obj-68",
					"fontname" : "Arial",
					"numinlets" : 2,
					"fontsize" : 9.0,
					"numoutlets" : 2,
					"outlettype" : [ "bang", "" ]
				}

			}
, 			{
				"box" : 				{
					"maxclass" : "newobj",
					"text" : "notein",
					"patching_rect" : [ -20.0, 22.0, 40.0, 17.0 ],
					"id" : "obj-69",
					"fontname" : "Arial",
					"numinlets" : 1,
					"fontsize" : 9.0,
					"numoutlets" : 3,
					"outlettype" : [ "int", "int", "int" ]
				}

			}
, 			{
				"box" : 				{
					"maxclass" : "comment",
					"text" : "keyboard control",
					"patching_rect" : [ 686.0, 67.0, 100.0, 17.0 ],
					"id" : "obj-70",
					"fontname" : "Arial",
					"numinlets" : 1,
					"fontsize" : 9.0,
					"numoutlets" : 0
				}

			}
 ],
		"lines" : [ 			{
				"patchline" : 				{
					"source" : [ "obj-47", 0 ],
					"destination" : [ "obj-56", 0 ],
					"hidden" : 0,
					"midpoints" : [  ]
				}

			}
, 			{
				"patchline" : 				{
					"source" : [ "obj-49", 0 ],
					"destination" : [ "obj-56", 0 ],
					"hidden" : 0,
					"midpoints" : [  ]
				}

			}
, 			{
				"patchline" : 				{
					"source" : [ "obj-48", 0 ],
					"destination" : [ "obj-56", 0 ],
					"hidden" : 0,
					"midpoints" : [  ]
				}

			}
, 			{
				"patchline" : 				{
					"source" : [ "obj-50", 0 ],
					"destination" : [ "obj-56", 0 ],
					"hidden" : 0,
					"midpoints" : [  ]
				}

			}
, 			{
				"patchline" : 				{
					"source" : [ "obj-52", 0 ],
					"destination" : [ "obj-56", 0 ],
					"hidden" : 0,
					"midpoints" : [  ]
				}

			}
, 			{
				"patchline" : 				{
					"source" : [ "obj-51", 0 ],
					"destination" : [ "obj-56", 0 ],
					"hidden" : 0,
					"midpoints" : [  ]
				}

			}
, 			{
				"patchline" : 				{
					"source" : [ "obj-53", 0 ],
					"destination" : [ "obj-56", 0 ],
					"hidden" : 0,
					"midpoints" : [  ]
				}

			}
, 			{
				"patchline" : 				{
					"source" : [ "obj-54", 0 ],
					"destination" : [ "obj-56", 0 ],
					"hidden" : 0,
					"midpoints" : [  ]
				}

			}
, 			{
				"patchline" : 				{
					"source" : [ "obj-55", 0 ],
					"destination" : [ "obj-56", 0 ],
					"hidden" : 0,
					"midpoints" : [  ]
				}

			}
, 			{
				"patchline" : 				{
					"source" : [ "obj-57", 0 ],
					"destination" : [ "obj-56", 0 ],
					"hidden" : 0,
					"midpoints" : [  ]
				}

			}
, 			{
				"patchline" : 				{
					"source" : [ "obj-69", 0 ],
					"destination" : [ "obj-66", 0 ],
					"hidden" : 0,
					"midpoints" : [  ]
				}

			}
, 			{
				"patchline" : 				{
					"source" : [ "obj-66", 0 ],
					"destination" : [ "obj-68", 0 ],
					"hidden" : 0,
					"midpoints" : [  ]
				}

			}
, 			{
				"patchline" : 				{
					"source" : [ "obj-68", 0 ],
					"destination" : [ "obj-67", 0 ],
					"hidden" : 0,
					"midpoints" : [  ]
				}

			}
, 			{
				"patchline" : 				{
					"source" : [ "obj-21", 0 ],
					"destination" : [ "obj-39", 0 ],
					"hidden" : 0,
					"midpoints" : [  ]
				}

			}
, 			{
				"patchline" : 				{
					"source" : [ "obj-69", 1 ],
					"destination" : [ "obj-66", 1 ],
					"hidden" : 0,
					"midpoints" : [  ]
				}

			}
, 			{
				"patchline" : 				{
					"source" : [ "obj-44", 0 ],
					"destination" : [ "obj-46", 0 ],
					"hidden" : 0,
					"midpoints" : [  ]
				}

			}
, 			{
				"patchline" : 				{
					"source" : [ "obj-46", 0 ],
					"destination" : [ "obj-43", 0 ],
					"hidden" : 0,
					"midpoints" : [  ]
				}

			}
, 			{
				"patchline" : 				{
					"source" : [ "obj-19", 0 ],
					"destination" : [ "obj-21", 0 ],
					"hidden" : 0,
					"midpoints" : [  ]
				}

			}
, 			{
				"patchline" : 				{
					"source" : [ "obj-1", 0 ],
					"destination" : [ "obj-2", 0 ],
					"hidden" : 0,
					"midpoints" : [  ]
				}

			}
, 			{
				"patchline" : 				{
					"source" : [ "obj-2", 0 ],
					"destination" : [ "obj-45", 0 ],
					"hidden" : 0,
					"midpoints" : [  ]
				}

			}
, 			{
				"patchline" : 				{
					"source" : [ "obj-38", 0 ],
					"destination" : [ "obj-40", 0 ],
					"hidden" : 0,
					"midpoints" : [  ]
				}

			}
, 			{
				"patchline" : 				{
					"source" : [ "obj-21", 1 ],
					"destination" : [ "obj-20", 0 ],
					"hidden" : 0,
					"midpoints" : [  ]
				}

			}
, 			{
				"patchline" : 				{
					"source" : [ "obj-42", 0 ],
					"destination" : [ "obj-41", 0 ],
					"hidden" : 0,
					"midpoints" : [  ]
				}

			}
, 			{
				"patchline" : 				{
					"source" : [ "obj-41", 0 ],
					"destination" : [ "obj-38", 0 ],
					"hidden" : 0,
					"midpoints" : [  ]
				}

			}
, 			{
				"patchline" : 				{
					"source" : [ "obj-40", 0 ],
					"destination" : [ "obj-37", 0 ],
					"hidden" : 0,
					"midpoints" : [  ]
				}

			}
, 			{
				"patchline" : 				{
					"source" : [ "obj-37", 0 ],
					"destination" : [ "obj-36", 0 ],
					"hidden" : 0,
					"midpoints" : [  ]
				}

			}
, 			{
				"patchline" : 				{
					"source" : [ "obj-69", 0 ],
					"destination" : [ "obj-34", 0 ],
					"hidden" : 0,
					"midpoints" : [  ]
				}

			}
, 			{
				"patchline" : 				{
					"source" : [ "obj-35", 0 ],
					"destination" : [ "obj-21", 1 ],
					"hidden" : 0,
					"midpoints" : [  ]
				}

			}
, 			{
				"patchline" : 				{
					"source" : [ "obj-43", 0 ],
					"destination" : [ "obj-2", 1 ],
					"hidden" : 0,
					"midpoints" : [  ]
				}

			}
, 			{
				"patchline" : 				{
					"source" : [ "obj-36", 0 ],
					"destination" : [ "obj-35", 0 ],
					"hidden" : 0,
					"midpoints" : [  ]
				}

			}
, 			{
				"patchline" : 				{
					"source" : [ "obj-65", 0 ],
					"destination" : [ "obj-62", 0 ],
					"hidden" : 0,
					"midpoints" : [  ]
				}

			}
, 			{
				"patchline" : 				{
					"source" : [ "obj-62", 0 ],
					"destination" : [ "obj-64", 0 ],
					"hidden" : 0,
					"midpoints" : [  ]
				}

			}
, 			{
				"patchline" : 				{
					"source" : [ "obj-64", 0 ],
					"destination" : [ "obj-63", 0 ],
					"hidden" : 0,
					"midpoints" : [  ]
				}

			}
, 			{
				"patchline" : 				{
					"source" : [ "obj-61", 0 ],
					"destination" : [ "obj-58", 0 ],
					"hidden" : 0,
					"midpoints" : [  ]
				}

			}
, 			{
				"patchline" : 				{
					"source" : [ "obj-58", 0 ],
					"destination" : [ "obj-60", 0 ],
					"hidden" : 0,
					"midpoints" : [  ]
				}

			}
, 			{
				"patchline" : 				{
					"source" : [ "obj-60", 0 ],
					"destination" : [ "obj-59", 0 ],
					"hidden" : 0,
					"midpoints" : [  ]
				}

			}
, 			{
				"patchline" : 				{
					"source" : [ "obj-65", 1 ],
					"destination" : [ "obj-62", 1 ],
					"hidden" : 0,
					"midpoints" : [  ]
				}

			}
, 			{
				"patchline" : 				{
					"source" : [ "obj-61", 1 ],
					"destination" : [ "obj-58", 1 ],
					"hidden" : 0,
					"midpoints" : [  ]
				}

			}
, 			{
				"patchline" : 				{
					"source" : [ "obj-4", 0 ],
					"destination" : [ "obj-3", 0 ],
					"hidden" : 0,
					"midpoints" : [  ]
				}

			}
, 			{
				"patchline" : 				{
					"source" : [ "obj-5", 0 ],
					"destination" : [ "obj-4", 0 ],
					"hidden" : 0,
					"midpoints" : [  ]
				}

			}
, 			{
				"patchline" : 				{
					"source" : [ "obj-30", 0 ],
					"destination" : [ "obj-28", 0 ],
					"hidden" : 0,
					"midpoints" : [  ]
				}

			}
, 			{
				"patchline" : 				{
					"source" : [ "obj-31", 0 ],
					"destination" : [ "obj-30", 0 ],
					"hidden" : 0,
					"midpoints" : [  ]
				}

			}
, 			{
				"patchline" : 				{
					"source" : [ "obj-30", 1 ],
					"destination" : [ "obj-27", 0 ],
					"hidden" : 0,
					"midpoints" : [  ]
				}

			}
, 			{
				"patchline" : 				{
					"source" : [ "obj-33", 0 ],
					"destination" : [ "obj-32", 0 ],
					"hidden" : 0,
					"midpoints" : [  ]
				}

			}
, 			{
				"patchline" : 				{
					"source" : [ "obj-30", 2 ],
					"destination" : [ "obj-26", 0 ],
					"hidden" : 0,
					"midpoints" : [  ]
				}

			}
, 			{
				"patchline" : 				{
					"source" : [ "obj-30", 4 ],
					"destination" : [ "obj-24", 0 ],
					"hidden" : 0,
					"midpoints" : [  ]
				}

			}
, 			{
				"patchline" : 				{
					"source" : [ "obj-30", 3 ],
					"destination" : [ "obj-25", 0 ],
					"hidden" : 0,
					"midpoints" : [  ]
				}

			}
, 			{
				"patchline" : 				{
					"source" : [ "obj-31", 0 ],
					"destination" : [ "obj-29", 0 ],
					"hidden" : 0,
					"midpoints" : [  ]
				}

			}
, 			{
				"patchline" : 				{
					"source" : [ "obj-8", 0 ],
					"destination" : [ "obj-6", 0 ],
					"hidden" : 0,
					"midpoints" : [  ]
				}

			}
, 			{
				"patchline" : 				{
					"source" : [ "obj-31", 0 ],
					"destination" : [ "obj-22", 0 ],
					"hidden" : 0,
					"midpoints" : [  ]
				}

			}
, 			{
				"patchline" : 				{
					"source" : [ "obj-18", 0 ],
					"destination" : [ "obj-56", 0 ],
					"hidden" : 0,
					"midpoints" : [  ]
				}

			}
, 			{
				"patchline" : 				{
					"source" : [ "obj-7", 0 ],
					"destination" : [ "obj-56", 0 ],
					"hidden" : 0,
					"midpoints" : [  ]
				}

			}
, 			{
				"patchline" : 				{
					"source" : [ "obj-16", 0 ],
					"destination" : [ "obj-12", 0 ],
					"hidden" : 0,
					"midpoints" : [ 1066.5, 412.0, 948.5, 412.0 ]
				}

			}
, 			{
				"patchline" : 				{
					"source" : [ "obj-11", 1 ],
					"destination" : [ "obj-15", 0 ],
					"hidden" : 0,
					"midpoints" : [  ]
				}

			}
, 			{
				"patchline" : 				{
					"source" : [ "obj-14", 0 ],
					"destination" : [ "obj-9", 0 ],
					"hidden" : 0,
					"midpoints" : [ 1009.5, 307.0, 1066.5, 307.0 ]
				}

			}
, 			{
				"patchline" : 				{
					"source" : [ "obj-15", 0 ],
					"destination" : [ "obj-9", 0 ],
					"hidden" : 0,
					"midpoints" : [  ]
				}

			}
, 			{
				"patchline" : 				{
					"source" : [ "obj-9", 0 ],
					"destination" : [ "obj-10", 0 ],
					"hidden" : 0,
					"midpoints" : [  ]
				}

			}
, 			{
				"patchline" : 				{
					"source" : [ "obj-10", 0 ],
					"destination" : [ "obj-16", 0 ],
					"hidden" : 0,
					"midpoints" : [  ]
				}

			}
, 			{
				"patchline" : 				{
					"source" : [ "obj-17", 0 ],
					"destination" : [ "obj-18", 0 ],
					"hidden" : 0,
					"midpoints" : [  ]
				}

			}
, 			{
				"patchline" : 				{
					"source" : [ "obj-9", 0 ],
					"destination" : [ "obj-13", 0 ],
					"hidden" : 0,
					"midpoints" : [ 1066.5, 344.0, 1110.0, 344.0, 1110.0, 278.0, 1078.0, 278.0 ]
				}

			}
, 			{
				"patchline" : 				{
					"source" : [ "obj-13", 0 ],
					"destination" : [ "obj-9", 1 ],
					"hidden" : 0,
					"midpoints" : [  ]
				}

			}
 ]
	}

}
