{
	"patcher" : 	{
		"fileversion" : 1,
		"rect" : [ 20.0, 74.0, 600.0, 426.0 ],
		"bglocked" : 0,
		"defrect" : [ 20.0, 74.0, 600.0, 426.0 ],
		"openrect" : [ 0.0, 0.0, 0.0, 0.0 ],
		"openinpresentation" : 0,
		"default_fontsize" : 12.0,
		"default_fontface" : 0,
		"default_fontname" : "Arial",
		"gridonopen" : 0,
		"gridsize" : [ 15.0, 15.0 ],
		"gridsnaponopen" : 0,
		"toolbarvisible" : 1,
		"boxanimatetime" : 200,
		"imprint" : 0,
		"enablehscroll" : 1,
		"enablevscroll" : 1,
		"devicewidth" : 0.0,
		"boxes" : [ 			{
				"box" : 				{
					"maxclass" : "newobj",
					"text" : "loadmess 8000",
					"id" : "obj-1",
					"patching_rect" : [ 41.0, 71.0, 78.0, 17.0 ],
					"fontname" : "Arial",
					"outlettype" : [ "" ],
					"fontsize" : 9.0,
					"numinlets" : 1,
					"numoutlets" : 1,
					"hidden" : 1
				}

			}
, 			{
				"box" : 				{
					"maxclass" : "number",
					"id" : "obj-2",
					"patching_rect" : [ 177.0, 110.0, 44.0, 20.0 ],
					"fontname" : "Arial",
					"outlettype" : [ "int", "bang" ],
					"htextcolor" : [ 0.870588, 0.870588, 0.870588, 1.0 ],
					"bgcolor" : [ 0.866667, 0.866667, 0.866667, 1.0 ],
					"fontsize" : 12.0,
					"triscale" : 0.9,
					"mouseup" : 1,
					"numinlets" : 1,
					"minimum" : 0,
					"numoutlets" : 2
				}

			}
, 			{
				"box" : 				{
					"maxclass" : "newobj",
					"text" : "s buf_size",
					"id" : "obj-3",
					"patching_rect" : [ 177.0, 218.0, 56.0, 17.0 ],
					"fontname" : "Arial",
					"fontsize" : 9.0,
					"numinlets" : 1,
					"numoutlets" : 0,
					"hidden" : 1
				}

			}
, 			{
				"box" : 				{
					"maxclass" : "newobj",
					"text" : "s clear",
					"id" : "obj-4",
					"patching_rect" : [ 239.0, 181.0, 41.0, 17.0 ],
					"fontname" : "Arial",
					"fontsize" : 9.0,
					"numinlets" : 1,
					"numoutlets" : 0,
					"hidden" : 1
				}

			}
, 			{
				"box" : 				{
					"maxclass" : "newobj",
					"text" : "loadbang",
					"id" : "obj-5",
					"patching_rect" : [ 37.0, 38.0, 48.0, 17.0 ],
					"fontname" : "Arial",
					"outlettype" : [ "bang" ],
					"fontsize" : 9.0,
					"numinlets" : 1,
					"numoutlets" : 1,
					"hidden" : 1
				}

			}
, 			{
				"box" : 				{
					"maxclass" : "message",
					"text" : "clear",
					"id" : "obj-6",
					"patching_rect" : [ 239.0, 109.0, 43.0, 21.0 ],
					"fontname" : "Arial Black",
					"outlettype" : [ "" ],
					"fontsize" : 12.0,
					"numinlets" : 2,
					"numoutlets" : 1
				}

			}
, 			{
				"box" : 				{
					"maxclass" : "newobj",
					"text" : "s loadedFiles",
					"id" : "obj-7",
					"patching_rect" : [ 225.0, 199.0, 65.0, 17.0 ],
					"fontname" : "Arial",
					"fontsize" : 9.0,
					"numinlets" : 1,
					"numoutlets" : 0,
					"hidden" : 1
				}

			}
, 			{
				"box" : 				{
					"maxclass" : "newobj",
					"text" : "s rec_bufNum",
					"id" : "obj-8",
					"patching_rect" : [ 128.0, 234.0, 72.0, 17.0 ],
					"fontname" : "Arial",
					"fontsize" : 9.0,
					"numinlets" : 1,
					"numoutlets" : 0,
					"hidden" : 1
				}

			}
, 			{
				"box" : 				{
					"maxclass" : "number",
					"id" : "obj-9",
					"patching_rect" : [ 128.0, 110.0, 35.0, 20.0 ],
					"fontname" : "Arial",
					"outlettype" : [ "int", "bang" ],
					"htextcolor" : [ 0.870588, 0.870588, 0.870588, 1.0 ],
					"bgcolor" : [ 0.866667, 0.866667, 0.866667, 1.0 ],
					"fontsize" : 12.0,
					"triscale" : 0.9,
					"mouseup" : 1,
					"numinlets" : 1,
					"minimum" : 0,
					"numoutlets" : 2
				}

			}
, 			{
				"box" : 				{
					"maxclass" : "comment",
					"text" : "buffers",
					"id" : "obj-10",
					"patching_rect" : [ 134.0, 94.0, 100.0, 23.0 ],
					"fontname" : "Arial Black",
					"fontsize" : 12.0,
					"numinlets" : 1,
					"numoutlets" : 0
				}

			}
, 			{
				"box" : 				{
					"maxclass" : "comment",
					"text" : "#",
					"id" : "obj-11",
					"patching_rect" : [ 129.0, 130.0, 16.0, 17.0 ],
					"fontname" : "Arial",
					"fontsize" : 9.0,
					"numinlets" : 1,
					"numoutlets" : 0
				}

			}
, 			{
				"box" : 				{
					"maxclass" : "comment",
					"text" : "length (ms)",
					"id" : "obj-12",
					"patching_rect" : [ 176.0, 131.0, 57.0, 17.0 ],
					"fontname" : "Arial",
					"fontsize" : 9.0,
					"numinlets" : 1,
					"numoutlets" : 0
				}

			}
, 			{
				"box" : 				{
					"maxclass" : "panel",
					"id" : "obj-13",
					"patching_rect" : [ 124.0, 79.0, 161.0, 81.0 ],
					"bgcolor" : [ 0.647059, 0.67451, 0.713726, 1.0 ],
					"rounded" : 20,
					"background" : 1,
					"numinlets" : 1,
					"numoutlets" : 0
				}

			}
, 			{
				"box" : 				{
					"maxclass" : "panel",
					"id" : "obj-14",
					"patching_rect" : [ 120.0, 75.0, 169.0, 89.0 ],
					"border" : 2,
					"bgcolor" : [ 0.368627, 0.392157, 0.431373, 1.0 ],
					"rounded" : 20,
					"background" : 1,
					"numinlets" : 1,
					"numoutlets" : 0
				}

			}
 ],
		"lines" : [ 			{
				"patchline" : 				{
					"source" : [ "obj-6", 0 ],
					"destination" : [ "obj-4", 0 ],
					"hidden" : 1,
					"midpoints" : [  ]
				}

			}
, 			{
				"patchline" : 				{
					"source" : [ "obj-5", 0 ],
					"destination" : [ "obj-6", 0 ],
					"hidden" : 1,
					"midpoints" : [ 46.5, 63.0, 248.5, 63.0 ]
				}

			}
, 			{
				"patchline" : 				{
					"source" : [ "obj-6", 0 ],
					"destination" : [ "obj-7", 0 ],
					"hidden" : 1,
					"midpoints" : [ 248.5, 162.0, 234.5, 162.0 ]
				}

			}
, 			{
				"patchline" : 				{
					"source" : [ "obj-2", 0 ],
					"destination" : [ "obj-3", 0 ],
					"hidden" : 1,
					"midpoints" : [  ]
				}

			}
, 			{
				"patchline" : 				{
					"source" : [ "obj-1", 0 ],
					"destination" : [ "obj-2", 0 ],
					"hidden" : 1,
					"midpoints" : [  ]
				}

			}
, 			{
				"patchline" : 				{
					"source" : [ "obj-9", 0 ],
					"destination" : [ "obj-8", 0 ],
					"hidden" : 1,
					"midpoints" : [  ]
				}

			}
 ]
	}

}
