{
	"patcher" : 	{
		"fileversion" : 1,
		"rect" : [ 37.0, 44.0, 970.0, 718.0 ],
		"bglocked" : 0,
		"defrect" : [ 37.0, 44.0, 970.0, 718.0 ],
		"openrect" : [ 0.0, 0.0, 0.0, 0.0 ],
		"openinpresentation" : 0,
		"default_fontsize" : 12.0,
		"default_fontface" : 0,
		"default_fontname" : "Arial",
		"gridonopen" : 0,
		"gridsize" : [ 15.0, 15.0 ],
		"gridsnaponopen" : 0,
		"toolbarvisible" : 1,
		"boxanimatetime" : 200,
		"imprint" : 0,
		"enablehscroll" : 1,
		"enablevscroll" : 1,
		"devicewidth" : 0.0,
		"boxes" : [ 			{
				"box" : 				{
					"maxclass" : "comment",
					"text" : "handles storing of plugin data",
					"linecount" : 2,
					"id" : "obj-1",
					"patching_rect" : [ 76.0, 414.0, 100.0, 27.0 ],
					"fontname" : "Arial",
					"fontsize" : 9.0,
					"numinlets" : 1,
					"numoutlets" : 0
				}

			}
, 			{
				"box" : 				{
					"maxclass" : "comment",
					"text" : "load list of available plugins",
					"linecount" : 2,
					"id" : "obj-2",
					"patching_rect" : [ 19.0, 164.0, 100.0, 27.0 ],
					"fontname" : "Arial",
					"fontsize" : 9.0,
					"numinlets" : 1,
					"numoutlets" : 0
				}

			}
, 			{
				"box" : 				{
					"maxclass" : "newobj",
					"text" : "s #1_vst_enable",
					"id" : "obj-3",
					"patching_rect" : [ 387.0, 421.0, 86.0, 17.0 ],
					"fontname" : "Arial",
					"fontsize" : 9.0,
					"numinlets" : 1,
					"numoutlets" : 0,
					"hidden" : 1
				}

			}
, 			{
				"box" : 				{
					"maxclass" : "newobj",
					"text" : "split 0 0",
					"id" : "obj-4",
					"patching_rect" : [ 342.0, 106.0, 48.0, 17.0 ],
					"fontname" : "Arial",
					"outlettype" : [ "int", "int" ],
					"fontsize" : 9.0,
					"numinlets" : 3,
					"numoutlets" : 2,
					"hidden" : 1
				}

			}
, 			{
				"box" : 				{
					"maxclass" : "newobj",
					"text" : "route ramp",
					"id" : "obj-5",
					"patching_rect" : [ 359.0, 144.0, 60.0, 17.0 ],
					"fontname" : "Arial",
					"outlettype" : [ "", "" ],
					"fontsize" : 9.0,
					"numinlets" : 1,
					"numoutlets" : 2,
					"hidden" : 1
				}

			}
, 			{
				"box" : 				{
					"maxclass" : "newobj",
					"text" : "split 0 0",
					"id" : "obj-6",
					"patching_rect" : [ 418.0, 213.0, 48.0, 17.0 ],
					"fontname" : "Arial",
					"outlettype" : [ "int", "int" ],
					"fontsize" : 9.0,
					"numinlets" : 3,
					"numoutlets" : 2,
					"hidden" : 1
				}

			}
, 			{
				"box" : 				{
					"maxclass" : "newobj",
					"text" : "r ramp_time",
					"id" : "obj-7",
					"patching_rect" : [ 254.0, 102.0, 67.0, 17.0 ],
					"fontname" : "Arial",
					"outlettype" : [ "" ],
					"fontsize" : 9.0,
					"numinlets" : 0,
					"numoutlets" : 1,
					"hidden" : 1
				}

			}
, 			{
				"box" : 				{
					"maxclass" : "newobj",
					"text" : "pipe",
					"id" : "obj-8",
					"patching_rect" : [ 342.0, 169.0, 27.0, 17.0 ],
					"fontname" : "Arial",
					"outlettype" : [ "" ],
					"fontsize" : 9.0,
					"numinlets" : 2,
					"numoutlets" : 1,
					"hidden" : 1
				}

			}
, 			{
				"box" : 				{
					"maxclass" : "newobj",
					"text" : "r #1_vst_bypass",
					"id" : "obj-9",
					"patching_rect" : [ 342.0, 71.0, 89.0, 17.0 ],
					"fontname" : "Arial",
					"outlettype" : [ "" ],
					"fontsize" : 9.0,
					"numinlets" : 0,
					"numoutlets" : 1,
					"hidden" : 1
				}

			}
, 			{
				"box" : 				{
					"maxclass" : "newobj",
					"text" : "loadmess 0",
					"id" : "obj-10",
					"patching_rect" : [ 279.0, 225.0, 60.0, 17.0 ],
					"fontname" : "Arial",
					"outlettype" : [ "" ],
					"fontsize" : 9.0,
					"numinlets" : 1,
					"numoutlets" : 1,
					"hidden" : 1
				}

			}
, 			{
				"box" : 				{
					"maxclass" : "newobj",
					"text" : "0",
					"id" : "obj-11",
					"patching_rect" : [ 112.0, 223.0, 27.0, 17.0 ],
					"fontname" : "Arial",
					"outlettype" : [ "int" ],
					"fontsize" : 9.0,
					"numinlets" : 2,
					"numoutlets" : 1,
					"hidden" : 1
				}

			}
, 			{
				"box" : 				{
					"maxclass" : "message",
					"text" : "0 0 1, 1 1 1, 0 2 0, 1 3 0",
					"id" : "obj-12",
					"patching_rect" : [ 520.0, 247.0, 127.0, 15.0 ],
					"fontname" : "Arial",
					"outlettype" : [ "" ],
					"fontsize" : 9.0,
					"numinlets" : 2,
					"numoutlets" : 1,
					"hidden" : 1
				}

			}
, 			{
				"box" : 				{
					"maxclass" : "message",
					"text" : "0 0 0, 1 1 0, 0 2 1, 1 3 1",
					"id" : "obj-13",
					"patching_rect" : [ 505.0, 271.0, 127.0, 15.0 ],
					"fontname" : "Arial",
					"outlettype" : [ "" ],
					"fontsize" : 9.0,
					"numinlets" : 2,
					"numoutlets" : 1,
					"hidden" : 1
				}

			}
, 			{
				"box" : 				{
					"maxclass" : "newobj",
					"text" : "sel 0 1",
					"id" : "obj-14",
					"patching_rect" : [ 505.0, 201.0, 41.0, 17.0 ],
					"fontname" : "Arial",
					"outlettype" : [ "bang", "bang", "" ],
					"fontsize" : 9.0,
					"numinlets" : 1,
					"numoutlets" : 3,
					"hidden" : 1
				}

			}
, 			{
				"box" : 				{
					"maxclass" : "toggle",
					"id" : "obj-15",
					"patching_rect" : [ 279.0, 306.0, 15.0, 15.0 ],
					"outlettype" : [ "int" ],
					"numinlets" : 1,
					"numoutlets" : 1
				}

			}
, 			{
				"box" : 				{
					"maxclass" : "newobj",
					"text" : "expr abs(1-$i1)",
					"id" : "obj-16",
					"patching_rect" : [ 418.0, 191.0, 83.0, 17.0 ],
					"fontname" : "Arial",
					"outlettype" : [ "" ],
					"fontsize" : 9.0,
					"numinlets" : 1,
					"numoutlets" : 1,
					"hidden" : 1
				}

			}
, 			{
				"box" : 				{
					"maxclass" : "message",
					"text" : "ramp 30",
					"id" : "obj-17",
					"patching_rect" : [ 769.0, 246.0, 48.0, 15.0 ],
					"fontname" : "Arial",
					"outlettype" : [ "" ],
					"fontsize" : 9.0,
					"numinlets" : 2,
					"numoutlets" : 1,
					"hidden" : 1
				}

			}
, 			{
				"box" : 				{
					"maxclass" : "newobj",
					"text" : "loadbang",
					"id" : "obj-18",
					"patching_rect" : [ 769.0, 218.0, 48.0, 17.0 ],
					"fontname" : "Arial",
					"outlettype" : [ "bang" ],
					"fontsize" : 9.0,
					"numinlets" : 1,
					"numoutlets" : 1,
					"hidden" : 1
				}

			}
, 			{
				"box" : 				{
					"maxclass" : "newobj",
					"text" : "pipe 200",
					"id" : "obj-19",
					"patching_rect" : [ 411.0, 241.0, 49.0, 17.0 ],
					"fontname" : "Arial",
					"outlettype" : [ "" ],
					"fontsize" : 9.0,
					"numinlets" : 2,
					"numoutlets" : 1,
					"hidden" : 1
				}

			}
, 			{
				"box" : 				{
					"maxclass" : "newobj",
					"text" : "matrix~ 2 4 1.",
					"id" : "obj-20",
					"patching_rect" : [ 570.0, 328.0, 77.0, 17.0 ],
					"fontname" : "Arial",
					"outlettype" : [ "signal", "signal", "signal", "signal", "list" ],
					"fontsize" : 9.0,
					"numinlets" : 2,
					"numoutlets" : 5,
					"hidden" : 1
				}

			}
, 			{
				"box" : 				{
					"maxclass" : "message",
					"text" : "disable $1",
					"id" : "obj-21",
					"patching_rect" : [ 419.0, 268.0, 56.0, 15.0 ],
					"fontname" : "Arial",
					"outlettype" : [ "" ],
					"fontsize" : 9.0,
					"numinlets" : 2,
					"numoutlets" : 1,
					"hidden" : 1
				}

			}
, 			{
				"box" : 				{
					"maxclass" : "newobj",
					"varname" : "sub patch",
					"text" : "p names #1",
					"id" : "obj-22",
					"patching_rect" : [ 125.0, 354.0, 62.0, 17.0 ],
					"fontname" : "Arial",
					"outlettype" : [ "" ],
					"fontsize" : 9.0,
					"numinlets" : 2,
					"numoutlets" : 1,
					"hidden" : 1,
					"patcher" : 					{
						"fileversion" : 1,
						"rect" : [ 160.0, 459.0, 600.0, 426.0 ],
						"bglocked" : 0,
						"defrect" : [ 160.0, 459.0, 600.0, 426.0 ],
						"openrect" : [ 0.0, 0.0, 0.0, 0.0 ],
						"openinpresentation" : 0,
						"default_fontsize" : 12.0,
						"default_fontface" : 0,
						"default_fontname" : "Arial",
						"gridonopen" : 0,
						"gridsize" : [ 15.0, 15.0 ],
						"gridsnaponopen" : 0,
						"toolbarvisible" : 1,
						"boxanimatetime" : 200,
						"imprint" : 0,
						"enablehscroll" : 1,
						"enablevscroll" : 1,
						"devicewidth" : 0.0,
						"boxes" : [ 							{
								"box" : 								{
									"maxclass" : "newobj",
									"text" : "prepend strip_path",
									"id" : "obj-1",
									"patching_rect" : [ 191.0, 79.0, 95.0, 17.0 ],
									"fontname" : "Arial",
									"outlettype" : [ "" ],
									"fontsize" : 9.0,
									"numinlets" : 1,
									"numoutlets" : 1
								}

							}
, 							{
								"box" : 								{
									"maxclass" : "newobj",
									"text" : "pack s s",
									"id" : "obj-2",
									"patching_rect" : [ 192.0, 37.0, 46.0, 17.0 ],
									"fontname" : "Arial",
									"outlettype" : [ "" ],
									"fontsize" : 9.0,
									"numinlets" : 2,
									"numoutlets" : 1
								}

							}
, 							{
								"box" : 								{
									"maxclass" : "newobj",
									"text" : "print prejs",
									"id" : "obj-3",
									"patching_rect" : [ 392.0, 70.0, 59.0, 17.0 ],
									"fontname" : "Arial",
									"fontsize" : 9.0,
									"numinlets" : 1,
									"numoutlets" : 0
								}

							}
, 							{
								"box" : 								{
									"maxclass" : "newobj",
									"text" : "print",
									"id" : "obj-4",
									"patching_rect" : [ 286.0, 220.0, 32.0, 17.0 ],
									"fontname" : "Arial",
									"fontsize" : 9.0,
									"numinlets" : 1,
									"numoutlets" : 0
								}

							}
, 							{
								"box" : 								{
									"maxclass" : "message",
									"text" : "compile",
									"id" : "obj-5",
									"patching_rect" : [ 78.0, 102.0, 44.0, 15.0 ],
									"fontname" : "Arial",
									"outlettype" : [ "" ],
									"fontsize" : 9.0,
									"numinlets" : 2,
									"numoutlets" : 1
								}

							}
, 							{
								"box" : 								{
									"maxclass" : "newobj",
									"text" : "js pluginSettings.js",
									"id" : "obj-6",
									"patching_rect" : [ 188.0, 115.0, 97.0, 17.0 ],
									"fontname" : "Arial",
									"outlettype" : [ "" ],
									"fontsize" : 9.0,
									"numinlets" : 1,
									"numoutlets" : 1
								}

							}
, 							{
								"box" : 								{
									"maxclass" : "inlet",
									"id" : "obj-7",
									"patching_rect" : [ 307.0, 13.0, 15.0, 15.0 ],
									"outlettype" : [ "" ],
									"numinlets" : 0,
									"numoutlets" : 1,
									"comment" : ""
								}

							}
, 							{
								"box" : 								{
									"maxclass" : "outlet",
									"id" : "obj-8",
									"patching_rect" : [ 219.0, 307.0, 15.0, 15.0 ],
									"numinlets" : 1,
									"numoutlets" : 0,
									"comment" : ""
								}

							}
, 							{
								"box" : 								{
									"maxclass" : "newobj",
									"text" : "prepend symbol",
									"id" : "obj-9",
									"patching_rect" : [ 219.0, 259.0, 80.0, 17.0 ],
									"fontname" : "Arial",
									"outlettype" : [ "" ],
									"fontsize" : 9.0,
									"numinlets" : 1,
									"numoutlets" : 1
								}

							}
, 							{
								"box" : 								{
									"maxclass" : "newobj",
									"text" : "int 1",
									"id" : "obj-10",
									"patching_rect" : [ 69.0, 274.0, 31.0, 17.0 ],
									"fontname" : "Arial",
									"outlettype" : [ "int" ],
									"fontsize" : 9.0,
									"numinlets" : 2,
									"numoutlets" : 1
								}

							}
, 							{
								"box" : 								{
									"maxclass" : "newobj",
									"text" : "int 0",
									"id" : "obj-11",
									"patching_rect" : [ 203.0, 175.0, 31.0, 17.0 ],
									"fontname" : "Arial",
									"outlettype" : [ "int" ],
									"fontsize" : 9.0,
									"numinlets" : 2,
									"numoutlets" : 1
								}

							}
, 							{
								"box" : 								{
									"maxclass" : "newobj",
									"text" : "onebang",
									"id" : "obj-12",
									"patching_rect" : [ 69.0, 246.0, 45.0, 17.0 ],
									"fontname" : "Arial",
									"outlettype" : [ "bang", "bang" ],
									"fontsize" : 9.0,
									"numinlets" : 2,
									"numoutlets" : 2
								}

							}
, 							{
								"box" : 								{
									"maxclass" : "newobj",
									"text" : "gate",
									"id" : "obj-13",
									"patching_rect" : [ 219.0, 226.0, 29.0, 17.0 ],
									"fontname" : "Arial",
									"outlettype" : [ "" ],
									"fontsize" : 9.0,
									"numinlets" : 2,
									"numoutlets" : 1
								}

							}
, 							{
								"box" : 								{
									"maxclass" : "newobj",
									"text" : "t s b b",
									"id" : "obj-14",
									"patching_rect" : [ 188.0, 138.0, 40.0, 17.0 ],
									"fontname" : "Arial",
									"outlettype" : [ "", "bang", "bang" ],
									"fontsize" : 9.0,
									"numinlets" : 1,
									"numoutlets" : 3
								}

							}
, 							{
								"box" : 								{
									"maxclass" : "newobj",
									"varname" : "#1_plug_name",
									"text" : "pattr #1_plug_name",
									"id" : "obj-15",
									"patching_rect" : [ 238.0, 174.0, 102.0, 17.0 ],
									"fontname" : "Arial",
									"outlettype" : [ "", "", "" ],
									"fontsize" : 9.0,
									"numinlets" : 1,
									"numoutlets" : 3,
									"restore" : [ "dfx Skidder" ],
									"saved_object_attributes" : 									{
										"parameter_enable" : 0
									}

								}

							}
, 							{
								"box" : 								{
									"maxclass" : "inlet",
									"id" : "obj-16",
									"patching_rect" : [ 192.0, 15.0, 15.0, 15.0 ],
									"outlettype" : [ "" ],
									"numinlets" : 0,
									"numoutlets" : 1,
									"comment" : ""
								}

							}
 ],
						"lines" : [ 							{
								"patchline" : 								{
									"source" : [ "obj-15", 0 ],
									"destination" : [ "obj-4", 0 ],
									"hidden" : 0,
									"midpoints" : [  ]
								}

							}
, 							{
								"patchline" : 								{
									"source" : [ "obj-15", 0 ],
									"destination" : [ "obj-13", 1 ],
									"hidden" : 0,
									"midpoints" : [  ]
								}

							}
, 							{
								"patchline" : 								{
									"source" : [ "obj-14", 0 ],
									"destination" : [ "obj-15", 0 ],
									"hidden" : 0,
									"midpoints" : [  ]
								}

							}
, 							{
								"patchline" : 								{
									"source" : [ "obj-7", 0 ],
									"destination" : [ "obj-2", 1 ],
									"hidden" : 0,
									"midpoints" : [  ]
								}

							}
, 							{
								"patchline" : 								{
									"source" : [ "obj-9", 0 ],
									"destination" : [ "obj-8", 0 ],
									"hidden" : 0,
									"midpoints" : [  ]
								}

							}
, 							{
								"patchline" : 								{
									"source" : [ "obj-13", 0 ],
									"destination" : [ "obj-9", 0 ],
									"hidden" : 0,
									"midpoints" : [  ]
								}

							}
, 							{
								"patchline" : 								{
									"source" : [ "obj-10", 0 ],
									"destination" : [ "obj-13", 0 ],
									"hidden" : 0,
									"midpoints" : [ 78.5, 304.0, 158.0, 304.0, 158.0, 218.0, 228.5, 218.0 ]
								}

							}
, 							{
								"patchline" : 								{
									"source" : [ "obj-11", 0 ],
									"destination" : [ "obj-13", 0 ],
									"hidden" : 0,
									"midpoints" : [  ]
								}

							}
, 							{
								"patchline" : 								{
									"source" : [ "obj-14", 1 ],
									"destination" : [ "obj-11", 0 ],
									"hidden" : 0,
									"midpoints" : [  ]
								}

							}
, 							{
								"patchline" : 								{
									"source" : [ "obj-16", 0 ],
									"destination" : [ "obj-2", 0 ],
									"hidden" : 0,
									"midpoints" : [  ]
								}

							}
, 							{
								"patchline" : 								{
									"source" : [ "obj-2", 0 ],
									"destination" : [ "obj-1", 0 ],
									"hidden" : 0,
									"midpoints" : [  ]
								}

							}
, 							{
								"patchline" : 								{
									"source" : [ "obj-6", 0 ],
									"destination" : [ "obj-14", 0 ],
									"hidden" : 0,
									"midpoints" : [  ]
								}

							}
, 							{
								"patchline" : 								{
									"source" : [ "obj-1", 0 ],
									"destination" : [ "obj-6", 0 ],
									"hidden" : 0,
									"midpoints" : [  ]
								}

							}
, 							{
								"patchline" : 								{
									"source" : [ "obj-5", 0 ],
									"destination" : [ "obj-6", 0 ],
									"hidden" : 0,
									"midpoints" : [  ]
								}

							}
, 							{
								"patchline" : 								{
									"source" : [ "obj-14", 2 ],
									"destination" : [ "obj-12", 1 ],
									"hidden" : 0,
									"color" : [ 0.290196, 0.611765, 0.380392, 1.0 ],
									"midpoints" : [ 218.5, 169.0, 104.5, 169.0 ]
								}

							}
, 							{
								"patchline" : 								{
									"source" : [ "obj-12", 0 ],
									"destination" : [ "obj-10", 0 ],
									"hidden" : 0,
									"midpoints" : [  ]
								}

							}
, 							{
								"patchline" : 								{
									"source" : [ "obj-15", 0 ],
									"destination" : [ "obj-12", 0 ],
									"hidden" : 0,
									"color" : [ 0.290196, 0.611765, 0.380392, 1.0 ],
									"midpoints" : [ 247.5, 207.0, 78.5, 207.0 ]
								}

							}
 ]
					}
,
					"saved_object_attributes" : 					{
						"fontname" : "Arial",
						"default_fontface" : 0,
						"default_fontname" : "Arial",
						"globalpatchername" : "",
						"fontface" : 0,
						"fontsize" : 12.0,
						"default_fontsize" : 12.0
					}

				}

			}
, 			{
				"box" : 				{
					"maxclass" : "newobj",
					"text" : "send~ #1_vst_outR",
					"id" : "obj-23",
					"patching_rect" : [ 583.0, 505.0, 99.0, 17.0 ],
					"fontname" : "Arial",
					"fontsize" : 9.0,
					"numinlets" : 1,
					"numoutlets" : 0,
					"hidden" : 1
				}

			}
, 			{
				"box" : 				{
					"maxclass" : "newobj",
					"text" : "send~ #1_vst_outL",
					"id" : "obj-24",
					"patching_rect" : [ 570.0, 531.0, 98.0, 17.0 ],
					"fontname" : "Arial",
					"fontsize" : 9.0,
					"numinlets" : 1,
					"numoutlets" : 0,
					"hidden" : 1
				}

			}
, 			{
				"box" : 				{
					"maxclass" : "newobj",
					"text" : "receive~ #1_vst_inR",
					"id" : "obj-25",
					"patching_rect" : [ 637.0, 145.0, 107.0, 17.0 ],
					"fontname" : "Arial",
					"outlettype" : [ "signal" ],
					"fontsize" : 9.0,
					"numinlets" : 1,
					"numoutlets" : 1,
					"hidden" : 1
				}

			}
, 			{
				"box" : 				{
					"maxclass" : "newobj",
					"text" : "receive~ #1_vst_inL",
					"id" : "obj-26",
					"patching_rect" : [ 570.0, 119.0, 106.0, 17.0 ],
					"fontname" : "Arial",
					"outlettype" : [ "signal" ],
					"fontsize" : 9.0,
					"numinlets" : 1,
					"numoutlets" : 1,
					"hidden" : 1
				}

			}
, 			{
				"box" : 				{
					"maxclass" : "newobj",
					"text" : "t b s s b",
					"id" : "obj-27",
					"patching_rect" : [ 126.0, 174.0, 53.0, 17.0 ],
					"fontname" : "Arial",
					"outlettype" : [ "bang", "", "", "bang" ],
					"fontsize" : 9.0,
					"numinlets" : 1,
					"numoutlets" : 4,
					"hidden" : 1
				}

			}
, 			{
				"box" : 				{
					"maxclass" : "newobj",
					"text" : "t b s",
					"id" : "obj-28",
					"patching_rect" : [ 126.0, 106.0, 30.0, 17.0 ],
					"fontname" : "Arial",
					"outlettype" : [ "bang", "" ],
					"fontsize" : 9.0,
					"numinlets" : 1,
					"numoutlets" : 2,
					"hidden" : 1
				}

			}
, 			{
				"box" : 				{
					"maxclass" : "newobj",
					"text" : "prepend set",
					"id" : "obj-29",
					"patching_rect" : [ 146.0, 127.0, 62.0, 17.0 ],
					"fontname" : "Arial",
					"outlettype" : [ "" ],
					"fontsize" : 9.0,
					"numinlets" : 1,
					"numoutlets" : 1,
					"hidden" : 1
				}

			}
, 			{
				"box" : 				{
					"maxclass" : "newobj",
					"text" : "r plug_path",
					"id" : "obj-30",
					"patching_rect" : [ 126.0, 86.0, 61.0, 17.0 ],
					"fontname" : "Arial",
					"outlettype" : [ "" ],
					"fontsize" : 9.0,
					"numinlets" : 0,
					"numoutlets" : 1,
					"hidden" : 1
				}

			}
, 			{
				"box" : 				{
					"maxclass" : "newobj",
					"text" : "r r_param_val",
					"id" : "obj-31",
					"patching_rect" : [ 775.0, 317.0, 77.0, 17.0 ],
					"fontname" : "Arial",
					"outlettype" : [ "" ],
					"fontsize" : 9.0,
					"numinlets" : 0,
					"numoutlets" : 1,
					"hidden" : 1
				}

			}
, 			{
				"box" : 				{
					"maxclass" : "newobj",
					"text" : "route #1",
					"id" : "obj-32",
					"patching_rect" : [ 775.0, 349.0, 50.0, 17.0 ],
					"fontname" : "Arial",
					"outlettype" : [ "", "" ],
					"fontsize" : 9.0,
					"numinlets" : 1,
					"numoutlets" : 2,
					"hidden" : 1
				}

			}
, 			{
				"box" : 				{
					"maxclass" : "newobj",
					"text" : "r #1_open",
					"id" : "obj-33",
					"patching_rect" : [ 256.0, 343.0, 57.0, 17.0 ],
					"fontname" : "Arial",
					"outlettype" : [ "" ],
					"fontsize" : 9.0,
					"numinlets" : 0,
					"numoutlets" : 1,
					"hidden" : 1
				}

			}
, 			{
				"box" : 				{
					"maxclass" : "message",
					"text" : "open",
					"id" : "obj-34",
					"patching_rect" : [ 359.0, 367.0, 30.0, 15.0 ],
					"fontname" : "Arial",
					"outlettype" : [ "" ],
					"fontsize" : 9.0,
					"numinlets" : 2,
					"numoutlets" : 1,
					"hidden" : 1
				}

			}
, 			{
				"box" : 				{
					"maxclass" : "newobj",
					"text" : "prepend plug",
					"id" : "obj-35",
					"patching_rect" : [ 394.0, 364.0, 66.0, 17.0 ],
					"fontname" : "Arial",
					"outlettype" : [ "" ],
					"fontsize" : 9.0,
					"numinlets" : 1,
					"numoutlets" : 1,
					"hidden" : 1
				}

			}
, 			{
				"box" : 				{
					"maxclass" : "newobj",
					"text" : "r store",
					"id" : "obj-36",
					"patching_rect" : [ 258.0, 380.0, 42.0, 17.0 ],
					"fontname" : "Arial",
					"outlettype" : [ "" ],
					"fontsize" : 9.0,
					"numinlets" : 0,
					"numoutlets" : 1,
					"hidden" : 1
				}

			}
, 			{
				"box" : 				{
					"maxclass" : "newobj",
					"varname" : "plugScene",
					"text" : "plugScene.mxb #1",
					"id" : "obj-37",
					"patching_rect" : [ 177.0, 417.0, 92.0, 17.0 ],
					"fontname" : "Arial",
					"outlettype" : [ "", "" ],
					"fontsize" : 9.0,
					"numinlets" : 4,
					"numoutlets" : 2,
					"hidden" : 1
				}

			}
, 			{
				"box" : 				{
					"maxclass" : "newobj",
					"text" : "s s_param_val",
					"id" : "obj-38",
					"patching_rect" : [ 177.0, 476.0, 77.0, 17.0 ],
					"fontname" : "Arial",
					"fontsize" : 9.0,
					"numinlets" : 1,
					"numoutlets" : 0,
					"hidden" : 1
				}

			}
, 			{
				"box" : 				{
					"maxclass" : "newobj",
					"text" : "vst~ 2",
					"id" : "obj-39",
					"patching_rect" : [ 570.0, 421.0, 79.0, 17.0 ],
					"fontname" : "Arial",
					"outlettype" : [ "signal", "signal", "", "list", "int", "", "" ],
					"fontsize" : 9.0,
					"numinlets" : 2,
					"numoutlets" : 7,
					"hidden" : 1,
					"save" : [ "#N", "vst~", "loaduniqueid", 0, 2, ";" ]
				}

			}
, 			{
				"box" : 				{
					"maxclass" : "button",
					"id" : "obj-40",
					"patching_rect" : [ 296.0, 306.0, 15.0, 15.0 ],
					"outlettype" : [ "bang" ],
					"numinlets" : 1,
					"numoutlets" : 1
				}

			}
, 			{
				"box" : 				{
					"maxclass" : "umenu",
					"varname" : "vst1",
					"id" : "obj-41",
					"patching_rect" : [ 323.0, 305.0, 82.0, 17.0 ],
					"fontname" : "Arial",
					"outlettype" : [ "int", "", "" ],
					"autopopulate" : 1,
					"types" : [ "BNDL", "aPcs" ],
					"prefix" : "/Library/Audio/Plug-Ins/VST/",
					"fontsize" : 9.0,
					"items" : [ "Kontakt 4 16out.vst", ",", "Kontakt 4 8out.vst", ",", "Kontakt 4.vst" ],
					"numinlets" : 1,
					"numoutlets" : 3,
					"pattrmode" : 1,
					"depth" : 6
				}

			}
, 			{
				"box" : 				{
					"maxclass" : "comment",
					"text" : "#1",
					"id" : "obj-42",
					"patching_rect" : [ 311.0, 306.0, 100.0, 19.0 ],
					"fontname" : "Arial Black",
					"fontsize" : 9.0,
					"numinlets" : 1,
					"numoutlets" : 0
				}

			}
, 			{
				"box" : 				{
					"maxclass" : "message",
					"text" : "types BNDL aPcs",
					"id" : "obj-43",
					"patching_rect" : [ 234.0, 207.0, 85.0, 15.0 ],
					"fontname" : "Arial",
					"outlettype" : [ "" ],
					"fontsize" : 9.0,
					"numinlets" : 2,
					"numoutlets" : 1,
					"hidden" : 1
				}

			}
, 			{
				"box" : 				{
					"maxclass" : "newobj",
					"text" : "prepend prefix",
					"id" : "obj-44",
					"patching_rect" : [ 154.0, 225.0, 76.0, 17.0 ],
					"fontname" : "Arial",
					"outlettype" : [ "" ],
					"fontsize" : 9.0,
					"numinlets" : 1,
					"numoutlets" : 1,
					"hidden" : 1
				}

			}
, 			{
				"box" : 				{
					"maxclass" : "message",
					"text" : "/Library/Audio/Plug-Ins/VST/",
					"id" : "obj-45",
					"patching_rect" : [ 126.0, 152.0, 154.0, 15.0 ],
					"fontname" : "Arial",
					"outlettype" : [ "" ],
					"fontsize" : 9.0,
					"numinlets" : 2,
					"numoutlets" : 1,
					"hidden" : 1
				}

			}
, 			{
				"box" : 				{
					"maxclass" : "comment",
					"text" : "bypass without click",
					"id" : "obj-46",
					"patching_rect" : [ 532.0, 231.0, 100.0, 17.0 ],
					"fontname" : "Arial",
					"fontsize" : 9.0,
					"numinlets" : 1,
					"numoutlets" : 0
				}

			}
 ],
		"lines" : [ 			{
				"patchline" : 				{
					"source" : [ "obj-31", 0 ],
					"destination" : [ "obj-32", 0 ],
					"hidden" : 1,
					"midpoints" : [  ]
				}

			}
, 			{
				"patchline" : 				{
					"source" : [ "obj-18", 0 ],
					"destination" : [ "obj-17", 0 ],
					"hidden" : 1,
					"midpoints" : [  ]
				}

			}
, 			{
				"patchline" : 				{
					"source" : [ "obj-20", 1 ],
					"destination" : [ "obj-39", 1 ],
					"hidden" : 1,
					"midpoints" : [  ]
				}

			}
, 			{
				"patchline" : 				{
					"source" : [ "obj-25", 0 ],
					"destination" : [ "obj-20", 1 ],
					"hidden" : 1,
					"midpoints" : [  ]
				}

			}
, 			{
				"patchline" : 				{
					"source" : [ "obj-39", 1 ],
					"destination" : [ "obj-23", 0 ],
					"hidden" : 1,
					"midpoints" : [  ]
				}

			}
, 			{
				"patchline" : 				{
					"source" : [ "obj-20", 3 ],
					"destination" : [ "obj-23", 0 ],
					"hidden" : 1,
					"midpoints" : [ 623.0, 366.0, 712.0, 366.0, 712.0, 481.0, 592.5, 481.0 ]
				}

			}
, 			{
				"patchline" : 				{
					"source" : [ "obj-39", 0 ],
					"destination" : [ "obj-24", 0 ],
					"hidden" : 1,
					"midpoints" : [  ]
				}

			}
, 			{
				"patchline" : 				{
					"source" : [ "obj-20", 2 ],
					"destination" : [ "obj-24", 0 ],
					"hidden" : 1,
					"midpoints" : [ 608.5, 368.0, 696.0, 368.0, 696.0, 473.0, 579.5, 473.0 ]
				}

			}
, 			{
				"patchline" : 				{
					"source" : [ "obj-34", 0 ],
					"destination" : [ "obj-39", 0 ],
					"hidden" : 1,
					"midpoints" : [  ]
				}

			}
, 			{
				"patchline" : 				{
					"source" : [ "obj-32", 0 ],
					"destination" : [ "obj-39", 0 ],
					"hidden" : 1,
					"midpoints" : [  ]
				}

			}
, 			{
				"patchline" : 				{
					"source" : [ "obj-37", 1 ],
					"destination" : [ "obj-39", 0 ],
					"hidden" : 1,
					"midpoints" : [ 259.5, 442.0, 360.0, 442.0, 360.0, 411.0, 579.5, 411.0 ]
				}

			}
, 			{
				"patchline" : 				{
					"source" : [ "obj-21", 0 ],
					"destination" : [ "obj-39", 0 ],
					"hidden" : 1,
					"midpoints" : [  ]
				}

			}
, 			{
				"patchline" : 				{
					"source" : [ "obj-20", 0 ],
					"destination" : [ "obj-39", 0 ],
					"hidden" : 1,
					"midpoints" : [  ]
				}

			}
, 			{
				"patchline" : 				{
					"source" : [ "obj-35", 0 ],
					"destination" : [ "obj-39", 0 ],
					"hidden" : 1,
					"midpoints" : [  ]
				}

			}
, 			{
				"patchline" : 				{
					"source" : [ "obj-26", 0 ],
					"destination" : [ "obj-20", 0 ],
					"hidden" : 1,
					"midpoints" : [  ]
				}

			}
, 			{
				"patchline" : 				{
					"source" : [ "obj-17", 0 ],
					"destination" : [ "obj-20", 0 ],
					"hidden" : 1,
					"midpoints" : [ 778.5, 308.0, 579.5, 308.0 ]
				}

			}
, 			{
				"patchline" : 				{
					"source" : [ "obj-13", 0 ],
					"destination" : [ "obj-20", 0 ],
					"hidden" : 1,
					"midpoints" : [  ]
				}

			}
, 			{
				"patchline" : 				{
					"source" : [ "obj-12", 0 ],
					"destination" : [ "obj-20", 0 ],
					"hidden" : 1,
					"midpoints" : [  ]
				}

			}
, 			{
				"patchline" : 				{
					"source" : [ "obj-14", 1 ],
					"destination" : [ "obj-12", 0 ],
					"hidden" : 1,
					"midpoints" : [  ]
				}

			}
, 			{
				"patchline" : 				{
					"source" : [ "obj-14", 0 ],
					"destination" : [ "obj-13", 0 ],
					"hidden" : 1,
					"midpoints" : [  ]
				}

			}
, 			{
				"patchline" : 				{
					"source" : [ "obj-15", 0 ],
					"destination" : [ "obj-14", 0 ],
					"hidden" : 1,
					"color" : [ 0.4, 0.4, 0.8, 1.0 ],
					"midpoints" : [ 288.0, 328.0, 235.0, 328.0, 235.0, 246.0, 379.0, 246.0, 379.0, 168.0, 514.5, 168.0 ]
				}

			}
, 			{
				"patchline" : 				{
					"source" : [ "obj-19", 0 ],
					"destination" : [ "obj-21", 0 ],
					"hidden" : 1,
					"midpoints" : [  ]
				}

			}
, 			{
				"patchline" : 				{
					"source" : [ "obj-6", 1 ],
					"destination" : [ "obj-21", 0 ],
					"hidden" : 1,
					"midpoints" : [  ]
				}

			}
, 			{
				"patchline" : 				{
					"source" : [ "obj-16", 0 ],
					"destination" : [ "obj-6", 0 ],
					"hidden" : 1,
					"midpoints" : [  ]
				}

			}
, 			{
				"patchline" : 				{
					"source" : [ "obj-15", 0 ],
					"destination" : [ "obj-16", 0 ],
					"hidden" : 1,
					"color" : [ 0.4, 0.4, 0.8, 1.0 ],
					"midpoints" : [ 288.0, 341.0, 242.0, 341.0, 242.0, 266.0, 403.0, 266.0, 403.0, 178.0, 427.5, 178.0 ]
				}

			}
, 			{
				"patchline" : 				{
					"source" : [ "obj-6", 0 ],
					"destination" : [ "obj-19", 0 ],
					"hidden" : 1,
					"midpoints" : [  ]
				}

			}
, 			{
				"patchline" : 				{
					"source" : [ "obj-41", 1 ],
					"destination" : [ "obj-35", 0 ],
					"hidden" : 1,
					"midpoints" : [  ]
				}

			}
, 			{
				"patchline" : 				{
					"source" : [ "obj-15", 0 ],
					"destination" : [ "obj-3", 0 ],
					"hidden" : 1,
					"midpoints" : [  ]
				}

			}
, 			{
				"patchline" : 				{
					"source" : [ "obj-33", 0 ],
					"destination" : [ "obj-34", 0 ],
					"hidden" : 1,
					"midpoints" : [  ]
				}

			}
, 			{
				"patchline" : 				{
					"source" : [ "obj-40", 0 ],
					"destination" : [ "obj-34", 0 ],
					"hidden" : 1,
					"midpoints" : [  ]
				}

			}
, 			{
				"patchline" : 				{
					"source" : [ "obj-5", 0 ],
					"destination" : [ "obj-8", 1 ],
					"hidden" : 1,
					"midpoints" : [  ]
				}

			}
, 			{
				"patchline" : 				{
					"source" : [ "obj-7", 0 ],
					"destination" : [ "obj-5", 0 ],
					"hidden" : 1,
					"midpoints" : [  ]
				}

			}
, 			{
				"patchline" : 				{
					"source" : [ "obj-4", 0 ],
					"destination" : [ "obj-8", 0 ],
					"hidden" : 1,
					"midpoints" : [  ]
				}

			}
, 			{
				"patchline" : 				{
					"source" : [ "obj-9", 0 ],
					"destination" : [ "obj-4", 0 ],
					"hidden" : 1,
					"midpoints" : [  ]
				}

			}
, 			{
				"patchline" : 				{
					"source" : [ "obj-43", 0 ],
					"destination" : [ "obj-41", 0 ],
					"hidden" : 1,
					"midpoints" : [  ]
				}

			}
, 			{
				"patchline" : 				{
					"source" : [ "obj-44", 0 ],
					"destination" : [ "obj-41", 0 ],
					"hidden" : 1,
					"midpoints" : [  ]
				}

			}
, 			{
				"patchline" : 				{
					"source" : [ "obj-22", 0 ],
					"destination" : [ "obj-41", 0 ],
					"hidden" : 1,
					"color" : [ 0.290196, 0.611765, 0.380392, 1.0 ],
					"midpoints" : [ 134.5, 381.0, 219.0, 381.0, 219.0, 288.0, 332.5, 288.0 ]
				}

			}
, 			{
				"patchline" : 				{
					"source" : [ "obj-11", 0 ],
					"destination" : [ "obj-41", 0 ],
					"hidden" : 1,
					"midpoints" : [  ]
				}

			}
, 			{
				"patchline" : 				{
					"source" : [ "obj-4", 1 ],
					"destination" : [ "obj-15", 0 ],
					"hidden" : 1,
					"midpoints" : [ 380.5, 134.0, 436.0, 134.0, 436.0, 183.0, 383.0, 183.0, 383.0, 278.0, 288.0, 278.0 ]
				}

			}
, 			{
				"patchline" : 				{
					"source" : [ "obj-10", 0 ],
					"destination" : [ "obj-15", 0 ],
					"hidden" : 1,
					"midpoints" : [  ]
				}

			}
, 			{
				"patchline" : 				{
					"source" : [ "obj-8", 0 ],
					"destination" : [ "obj-15", 0 ],
					"hidden" : 1,
					"midpoints" : [ 351.5, 286.0, 288.0, 286.0 ]
				}

			}
, 			{
				"patchline" : 				{
					"source" : [ "obj-36", 0 ],
					"destination" : [ "obj-37", 3 ],
					"hidden" : 1,
					"midpoints" : [  ]
				}

			}
, 			{
				"patchline" : 				{
					"source" : [ "obj-27", 3 ],
					"destination" : [ "obj-43", 0 ],
					"hidden" : 1,
					"midpoints" : [  ]
				}

			}
, 			{
				"patchline" : 				{
					"source" : [ "obj-39", 3 ],
					"destination" : [ "obj-37", 2 ],
					"hidden" : 1,
					"midpoints" : [ 609.5, 451.0, 316.0, 451.0, 316.0, 408.0, 235.166672, 408.0 ]
				}

			}
, 			{
				"patchline" : 				{
					"source" : [ "obj-39", 2 ],
					"destination" : [ "obj-37", 1 ],
					"hidden" : 1,
					"midpoints" : [ 599.5, 456.0, 309.0, 456.0, 309.0, 407.0, 210.833328, 407.0 ]
				}

			}
, 			{
				"patchline" : 				{
					"source" : [ "obj-37", 0 ],
					"destination" : [ "obj-38", 0 ],
					"hidden" : 1,
					"midpoints" : [  ]
				}

			}
, 			{
				"patchline" : 				{
					"source" : [ "obj-35", 0 ],
					"destination" : [ "obj-37", 0 ],
					"hidden" : 1,
					"midpoints" : [  ]
				}

			}
, 			{
				"patchline" : 				{
					"source" : [ "obj-27", 1 ],
					"destination" : [ "obj-22", 1 ],
					"hidden" : 1,
					"midpoints" : [ 146.833328, 265.0, 177.5, 265.0 ]
				}

			}
, 			{
				"patchline" : 				{
					"source" : [ "obj-27", 2 ],
					"destination" : [ "obj-44", 0 ],
					"hidden" : 1,
					"midpoints" : [  ]
				}

			}
, 			{
				"patchline" : 				{
					"source" : [ "obj-28", 1 ],
					"destination" : [ "obj-29", 0 ],
					"hidden" : 1,
					"midpoints" : [  ]
				}

			}
, 			{
				"patchline" : 				{
					"source" : [ "obj-45", 0 ],
					"destination" : [ "obj-27", 0 ],
					"hidden" : 1,
					"midpoints" : [  ]
				}

			}
, 			{
				"patchline" : 				{
					"source" : [ "obj-28", 0 ],
					"destination" : [ "obj-45", 0 ],
					"hidden" : 1,
					"midpoints" : [  ]
				}

			}
, 			{
				"patchline" : 				{
					"source" : [ "obj-29", 0 ],
					"destination" : [ "obj-45", 0 ],
					"hidden" : 1,
					"midpoints" : [  ]
				}

			}
, 			{
				"patchline" : 				{
					"source" : [ "obj-30", 0 ],
					"destination" : [ "obj-28", 0 ],
					"hidden" : 1,
					"midpoints" : [  ]
				}

			}
, 			{
				"patchline" : 				{
					"source" : [ "obj-41", 1 ],
					"destination" : [ "obj-22", 0 ],
					"hidden" : 1,
					"midpoints" : [ 364.0, 337.0, 134.5, 337.0 ]
				}

			}
, 			{
				"patchline" : 				{
					"source" : [ "obj-27", 0 ],
					"destination" : [ "obj-11", 0 ],
					"hidden" : 1,
					"midpoints" : [  ]
				}

			}
 ],
		"parameters" : 		{

		}

	}

}
