{
	"patcher" : 	{
		"fileversion" : 1,
		"rect" : [ 609.0, 68.0, 600.0, 426.0 ],
		"bglocked" : 0,
		"defrect" : [ 609.0, 68.0, 600.0, 426.0 ],
		"openrect" : [ 0.0, 0.0, 0.0, 0.0 ],
		"openinpresentation" : 0,
		"default_fontsize" : 12.0,
		"default_fontface" : 0,
		"default_fontname" : "Arial",
		"gridonopen" : 0,
		"gridsize" : [ 15.0, 15.0 ],
		"gridsnaponopen" : 0,
		"toolbarvisible" : 1,
		"boxanimatetime" : 200,
		"imprint" : 0,
		"enablehscroll" : 1,
		"enablevscroll" : 1,
		"devicewidth" : 0.0,
		"boxes" : [ 			{
				"box" : 				{
					"maxclass" : "comment",
					"text" : "17",
					"patching_rect" : [ 7.0, 200.0, 100.0, 21.0 ],
					"id" : "obj-1",
					"fontname" : "Arial Black",
					"numinlets" : 1,
					"fontsize" : 10.0,
					"numoutlets" : 0
				}

			}
, 			{
				"box" : 				{
					"maxclass" : "comment",
					"text" : "16",
					"patching_rect" : [ 7.0, 177.0, 100.0, 21.0 ],
					"id" : "obj-2",
					"fontname" : "Arial Black",
					"numinlets" : 1,
					"fontsize" : 10.0,
					"numoutlets" : 0
				}

			}
, 			{
				"box" : 				{
					"maxclass" : "comment",
					"text" : "15",
					"patching_rect" : [ 7.0, 155.0, 100.0, 21.0 ],
					"id" : "obj-3",
					"fontname" : "Arial Black",
					"textcolor" : [ 0.066667, 0.066667, 0.066667, 1.0 ],
					"frgb" : [ 0.066667, 0.066667, 0.066667, 1.0 ],
					"numinlets" : 1,
					"fontsize" : 10.0,
					"numoutlets" : 0
				}

			}
, 			{
				"box" : 				{
					"maxclass" : "comment",
					"text" : "14",
					"patching_rect" : [ 8.0, 136.0, 100.0, 21.0 ],
					"id" : "obj-4",
					"fontname" : "Arial Black",
					"numinlets" : 1,
					"fontsize" : 10.0,
					"numoutlets" : 0
				}

			}
, 			{
				"box" : 				{
					"maxclass" : "comment",
					"text" : "13",
					"patching_rect" : [ 8.0, 113.0, 100.0, 21.0 ],
					"id" : "obj-5",
					"fontname" : "Arial Black",
					"numinlets" : 1,
					"fontsize" : 10.0,
					"numoutlets" : 0
				}

			}
, 			{
				"box" : 				{
					"maxclass" : "comment",
					"text" : "12",
					"patching_rect" : [ 8.0, 92.0, 100.0, 21.0 ],
					"id" : "obj-6",
					"fontname" : "Arial Black",
					"numinlets" : 1,
					"fontsize" : 10.0,
					"numoutlets" : 0
				}

			}
, 			{
				"box" : 				{
					"maxclass" : "comment",
					"text" : "11",
					"patching_rect" : [ 9.0, 70.0, 100.0, 21.0 ],
					"id" : "obj-7",
					"fontname" : "Arial Black",
					"numinlets" : 1,
					"fontsize" : 10.0,
					"numoutlets" : 0
				}

			}
, 			{
				"box" : 				{
					"maxclass" : "message",
					"text" : "gain2",
					"patching_rect" : [ 48.0, 202.0, 119.0, 15.0 ],
					"id" : "obj-8",
					"fontname" : "Arial",
					"numinlets" : 2,
					"fontsize" : 9.0,
					"numoutlets" : 1,
					"outlettype" : [ "" ]
				}

			}
, 			{
				"box" : 				{
					"maxclass" : "newobj",
					"varname" : "pluginLearn[7]",
					"text" : "pluginLearn.maxpat 17",
					"patching_rect" : [ 176.0, 201.0, 102.0, 17.0 ],
					"id" : "obj-9",
					"fontname" : "Arial",
					"hidden" : 1,
					"numinlets" : 1,
					"fontsize" : 9.0,
					"numoutlets" : 1,
					"outlettype" : [ "" ]
				}

			}
, 			{
				"box" : 				{
					"maxclass" : "toggle",
					"patching_rect" : [ 29.0, 202.0, 15.0, 15.0 ],
					"id" : "obj-10",
					"numinlets" : 1,
					"numoutlets" : 1,
					"outlettype" : [ "int" ]
				}

			}
, 			{
				"box" : 				{
					"maxclass" : "message",
					"text" : "stereo",
					"patching_rect" : [ 48.0, 180.0, 119.0, 15.0 ],
					"id" : "obj-11",
					"fontname" : "Arial",
					"numinlets" : 2,
					"fontsize" : 9.0,
					"numoutlets" : 1,
					"outlettype" : [ "" ]
				}

			}
, 			{
				"box" : 				{
					"maxclass" : "newobj",
					"varname" : "pluginLearn[6]",
					"text" : "pluginLearn.maxpat 16",
					"patching_rect" : [ 176.0, 179.0, 102.0, 17.0 ],
					"id" : "obj-12",
					"fontname" : "Arial",
					"hidden" : 1,
					"numinlets" : 1,
					"fontsize" : 9.0,
					"numoutlets" : 1,
					"outlettype" : [ "" ]
				}

			}
, 			{
				"box" : 				{
					"maxclass" : "toggle",
					"patching_rect" : [ 29.0, 180.0, 15.0, 15.0 ],
					"id" : "obj-13",
					"numinlets" : 1,
					"numoutlets" : 1,
					"outlettype" : [ "int" ]
				}

			}
, 			{
				"box" : 				{
					"maxclass" : "message",
					"text" : "wet/dry",
					"patching_rect" : [ 48.0, 158.0, 119.0, 15.0 ],
					"id" : "obj-14",
					"fontname" : "Arial",
					"numinlets" : 2,
					"fontsize" : 9.0,
					"numoutlets" : 1,
					"outlettype" : [ "" ]
				}

			}
, 			{
				"box" : 				{
					"maxclass" : "message",
					"text" : "width",
					"patching_rect" : [ 48.0, 136.0, 119.0, 15.0 ],
					"id" : "obj-15",
					"fontname" : "Arial",
					"numinlets" : 2,
					"fontsize" : 9.0,
					"numoutlets" : 1,
					"outlettype" : [ "" ]
				}

			}
, 			{
				"box" : 				{
					"maxclass" : "message",
					"text" : "feedback",
					"patching_rect" : [ 48.0, 92.0, 119.0, 15.0 ],
					"id" : "obj-16",
					"fontname" : "Arial",
					"numinlets" : 2,
					"fontsize" : 9.0,
					"numoutlets" : 1,
					"outlettype" : [ "" ]
				}

			}
, 			{
				"box" : 				{
					"maxclass" : "message",
					"text" : "density",
					"patching_rect" : [ 48.0, 114.0, 119.0, 15.0 ],
					"id" : "obj-17",
					"fontname" : "Arial",
					"numinlets" : 2,
					"fontsize" : 9.0,
					"numoutlets" : 1,
					"outlettype" : [ "" ]
				}

			}
, 			{
				"box" : 				{
					"maxclass" : "message",
					"text" : "delay",
					"patching_rect" : [ 48.0, 70.0, 119.0, 15.0 ],
					"id" : "obj-18",
					"fontname" : "Arial",
					"numinlets" : 2,
					"fontsize" : 9.0,
					"numoutlets" : 1,
					"outlettype" : [ "" ]
				}

			}
, 			{
				"box" : 				{
					"maxclass" : "message",
					"text" : "fragment",
					"patching_rect" : [ 48.0, 48.0, 119.0, 15.0 ],
					"id" : "obj-19",
					"fontname" : "Arial",
					"numinlets" : 2,
					"fontsize" : 9.0,
					"numoutlets" : 1,
					"outlettype" : [ "" ]
				}

			}
, 			{
				"box" : 				{
					"maxclass" : "newobj",
					"varname" : "pluginLearn[5]",
					"text" : "pluginLearn.maxpat 15",
					"patching_rect" : [ 176.0, 157.0, 102.0, 17.0 ],
					"id" : "obj-20",
					"fontname" : "Arial",
					"hidden" : 1,
					"numinlets" : 1,
					"fontsize" : 9.0,
					"numoutlets" : 1,
					"outlettype" : [ "" ]
				}

			}
, 			{
				"box" : 				{
					"maxclass" : "toggle",
					"patching_rect" : [ 29.0, 158.0, 15.0, 15.0 ],
					"id" : "obj-21",
					"numinlets" : 1,
					"numoutlets" : 1,
					"outlettype" : [ "int" ]
				}

			}
, 			{
				"box" : 				{
					"maxclass" : "newobj",
					"varname" : "pluginLearn[4]",
					"text" : "pluginLearn.maxpat 14",
					"patching_rect" : [ 176.0, 135.0, 102.0, 17.0 ],
					"id" : "obj-22",
					"fontname" : "Arial",
					"hidden" : 1,
					"numinlets" : 1,
					"fontsize" : 9.0,
					"numoutlets" : 1,
					"outlettype" : [ "" ]
				}

			}
, 			{
				"box" : 				{
					"maxclass" : "toggle",
					"patching_rect" : [ 29.0, 136.0, 15.0, 15.0 ],
					"id" : "obj-23",
					"numinlets" : 1,
					"numoutlets" : 1,
					"outlettype" : [ "int" ]
				}

			}
, 			{
				"box" : 				{
					"maxclass" : "newobj",
					"varname" : "pluginLearn[3]",
					"text" : "pluginLearn.maxpat 13",
					"patching_rect" : [ 176.0, 91.0, 102.0, 17.0 ],
					"id" : "obj-24",
					"fontname" : "Arial",
					"hidden" : 1,
					"numinlets" : 1,
					"fontsize" : 9.0,
					"numoutlets" : 1,
					"outlettype" : [ "" ]
				}

			}
, 			{
				"box" : 				{
					"maxclass" : "toggle",
					"patching_rect" : [ 29.0, 92.0, 15.0, 15.0 ],
					"id" : "obj-25",
					"numinlets" : 1,
					"numoutlets" : 1,
					"outlettype" : [ "int" ]
				}

			}
, 			{
				"box" : 				{
					"maxclass" : "newobj",
					"varname" : "pluginLearn[2]",
					"text" : "pluginLearn.maxpat 12",
					"patching_rect" : [ 176.0, 113.0, 102.0, 17.0 ],
					"id" : "obj-26",
					"fontname" : "Arial",
					"hidden" : 1,
					"numinlets" : 1,
					"fontsize" : 9.0,
					"numoutlets" : 1,
					"outlettype" : [ "" ]
				}

			}
, 			{
				"box" : 				{
					"maxclass" : "toggle",
					"patching_rect" : [ 29.0, 114.0, 15.0, 15.0 ],
					"id" : "obj-27",
					"numinlets" : 1,
					"numoutlets" : 1,
					"outlettype" : [ "int" ]
				}

			}
, 			{
				"box" : 				{
					"maxclass" : "newobj",
					"varname" : "pluginLearn[1]",
					"text" : "pluginLearn.maxpat 11",
					"patching_rect" : [ 176.0, 69.0, 101.0, 17.0 ],
					"id" : "obj-28",
					"fontname" : "Arial",
					"hidden" : 1,
					"numinlets" : 1,
					"fontsize" : 9.0,
					"numoutlets" : 1,
					"outlettype" : [ "" ]
				}

			}
, 			{
				"box" : 				{
					"maxclass" : "toggle",
					"patching_rect" : [ 29.0, 70.0, 15.0, 15.0 ],
					"id" : "obj-29",
					"numinlets" : 1,
					"numoutlets" : 1,
					"outlettype" : [ "int" ]
				}

			}
, 			{
				"box" : 				{
					"maxclass" : "newobj",
					"varname" : "pluginLearn",
					"text" : "pluginLearn.maxpat 10",
					"patching_rect" : [ 176.0, 47.0, 102.0, 17.0 ],
					"id" : "obj-30",
					"fontname" : "Arial",
					"hidden" : 1,
					"numinlets" : 1,
					"fontsize" : 9.0,
					"numoutlets" : 1,
					"outlettype" : [ "" ]
				}

			}
, 			{
				"box" : 				{
					"maxclass" : "toggle",
					"patching_rect" : [ 29.0, 48.0, 16.0, 16.0 ],
					"id" : "obj-31",
					"numinlets" : 1,
					"numoutlets" : 1,
					"outlettype" : [ "int" ]
				}

			}
, 			{
				"box" : 				{
					"maxclass" : "comment",
					"text" : "10",
					"patching_rect" : [ 8.0, 48.0, 100.0, 21.0 ],
					"id" : "obj-32",
					"fontname" : "Arial Black",
					"textcolor" : [ 0.129412, 0.129412, 0.129412, 1.0 ],
					"frgb" : [ 0.129412, 0.129412, 0.129412, 1.0 ],
					"numinlets" : 1,
					"fontsize" : 10.0,
					"numoutlets" : 0
				}

			}
, 			{
				"box" : 				{
					"maxclass" : "comment",
					"text" : "plugin control",
					"patching_rect" : [ 31.0, 27.0, 100.0, 23.0 ],
					"id" : "obj-33",
					"fontname" : "Arial Black",
					"numinlets" : 1,
					"fontsize" : 12.0,
					"numoutlets" : 0
				}

			}
, 			{
				"box" : 				{
					"maxclass" : "panel",
					"patching_rect" : [ 3.0, 25.0, 169.0, 199.0 ],
					"rounded" : 20,
					"id" : "obj-34",
					"numinlets" : 1,
					"bgcolor" : [ 0.647059, 0.67451, 0.713726, 1.0 ],
					"numoutlets" : 0,
					"background" : 1
				}

			}
, 			{
				"box" : 				{
					"maxclass" : "panel",
					"patching_rect" : [ -1.0, 21.0, 177.0, 207.0 ],
					"rounded" : 20,
					"id" : "obj-35",
					"numinlets" : 1,
					"border" : 2,
					"bgcolor" : [ 0.368627, 0.392157, 0.431373, 1.0 ],
					"numoutlets" : 0,
					"background" : 1
				}

			}
 ],
		"lines" : [ 			{
				"patchline" : 				{
					"source" : [ "obj-10", 0 ],
					"destination" : [ "obj-9", 0 ],
					"hidden" : 1,
					"midpoints" : [  ]
				}

			}
, 			{
				"patchline" : 				{
					"source" : [ "obj-9", 0 ],
					"destination" : [ "obj-8", 0 ],
					"hidden" : 1,
					"midpoints" : [  ]
				}

			}
, 			{
				"patchline" : 				{
					"source" : [ "obj-13", 0 ],
					"destination" : [ "obj-12", 0 ],
					"hidden" : 1,
					"midpoints" : [  ]
				}

			}
, 			{
				"patchline" : 				{
					"source" : [ "obj-12", 0 ],
					"destination" : [ "obj-11", 0 ],
					"hidden" : 1,
					"midpoints" : [  ]
				}

			}
, 			{
				"patchline" : 				{
					"source" : [ "obj-21", 0 ],
					"destination" : [ "obj-20", 0 ],
					"hidden" : 1,
					"midpoints" : [  ]
				}

			}
, 			{
				"patchline" : 				{
					"source" : [ "obj-20", 0 ],
					"destination" : [ "obj-14", 0 ],
					"hidden" : 1,
					"midpoints" : [  ]
				}

			}
, 			{
				"patchline" : 				{
					"source" : [ "obj-23", 0 ],
					"destination" : [ "obj-22", 0 ],
					"hidden" : 1,
					"midpoints" : [  ]
				}

			}
, 			{
				"patchline" : 				{
					"source" : [ "obj-22", 0 ],
					"destination" : [ "obj-15", 0 ],
					"hidden" : 1,
					"midpoints" : [  ]
				}

			}
, 			{
				"patchline" : 				{
					"source" : [ "obj-27", 0 ],
					"destination" : [ "obj-26", 0 ],
					"hidden" : 1,
					"midpoints" : [  ]
				}

			}
, 			{
				"patchline" : 				{
					"source" : [ "obj-26", 0 ],
					"destination" : [ "obj-17", 0 ],
					"hidden" : 1,
					"midpoints" : [  ]
				}

			}
, 			{
				"patchline" : 				{
					"source" : [ "obj-25", 0 ],
					"destination" : [ "obj-24", 0 ],
					"hidden" : 1,
					"midpoints" : [  ]
				}

			}
, 			{
				"patchline" : 				{
					"source" : [ "obj-24", 0 ],
					"destination" : [ "obj-16", 0 ],
					"hidden" : 1,
					"midpoints" : [  ]
				}

			}
, 			{
				"patchline" : 				{
					"source" : [ "obj-29", 0 ],
					"destination" : [ "obj-28", 0 ],
					"hidden" : 1,
					"midpoints" : [  ]
				}

			}
, 			{
				"patchline" : 				{
					"source" : [ "obj-28", 0 ],
					"destination" : [ "obj-18", 0 ],
					"hidden" : 1,
					"midpoints" : [  ]
				}

			}
, 			{
				"patchline" : 				{
					"source" : [ "obj-31", 0 ],
					"destination" : [ "obj-30", 0 ],
					"hidden" : 1,
					"midpoints" : [  ]
				}

			}
, 			{
				"patchline" : 				{
					"source" : [ "obj-30", 0 ],
					"destination" : [ "obj-19", 0 ],
					"hidden" : 1,
					"midpoints" : [  ]
				}

			}
 ]
	}

}
