{
	"patcher" : 	{
		"fileversion" : 1,
		"rect" : [ 10.0, 59.0, 626.0, 546.0 ],
		"bglocked" : 0,
		"defrect" : [ 10.0, 59.0, 626.0, 546.0 ],
		"openrect" : [ 0.0, 0.0, 0.0, 0.0 ],
		"openinpresentation" : 0,
		"default_fontsize" : 12.0,
		"default_fontface" : 0,
		"default_fontname" : "Arial",
		"gridonopen" : 0,
		"gridsize" : [ 15.0, 15.0 ],
		"gridsnaponopen" : 0,
		"toolbarvisible" : 1,
		"boxanimatetime" : 200,
		"imprint" : 0,
		"enablehscroll" : 1,
		"enablevscroll" : 1,
		"devicewidth" : 0.0,
		"boxes" : [ 			{
				"box" : 				{
					"maxclass" : "newobj",
					"text" : "test_tone.maxpat",
					"patching_rect" : [ 267.0, 376.0, 103.0, 20.0 ],
					"id" : "obj-46",
					"fontname" : "Arial",
					"hidden" : 1,
					"numinlets" : 1,
					"fontsize" : 12.0,
					"numoutlets" : 0
				}

			}
, 			{
				"box" : 				{
					"maxclass" : "ubutton",
					"patching_rect" : [ 113.0, 121.0, 16.0, 116.0 ],
					"id" : "obj-1",
					"handoff" : "",
					"numinlets" : 1,
					"hilite" : 0,
					"numoutlets" : 4,
					"outlettype" : [ "bang", "bang", "", "int" ]
				}

			}
, 			{
				"box" : 				{
					"maxclass" : "newobj",
					"text" : "t b",
					"patching_rect" : [ 267.0, 345.0, 20.0, 17.0 ],
					"id" : "obj-2",
					"fontname" : "Arial",
					"hidden" : 1,
					"numinlets" : 1,
					"fontsize" : 9.0,
					"numoutlets" : 1,
					"outlettype" : [ "bang" ]
				}

			}
, 			{
				"box" : 				{
					"maxclass" : "message",
					"text" : "test tone",
					"patching_rect" : [ 155.0, 240.0, 50.0, 15.0 ],
					"id" : "obj-3",
					"fontname" : "Arial",
					"numinlets" : 2,
					"fontsize" : 9.0,
					"bgcolor" : [ 0.6, 0.4, 0.6, 1.0 ],
					"numoutlets" : 1,
					"outlettype" : [ "" ]
				}

			}
, 			{
				"box" : 				{
					"maxclass" : "ubutton",
					"patching_rect" : [ 70.0, 121.0, 16.0, 116.0 ],
					"id" : "obj-6",
					"handoff" : "",
					"numinlets" : 1,
					"hilite" : 0,
					"numoutlets" : 4,
					"outlettype" : [ "bang", "bang", "", "int" ]
				}

			}
, 			{
				"box" : 				{
					"maxclass" : "number",
					"patching_rect" : [ 102.0, 240.0, 29.0, 17.0 ],
					"id" : "obj-7",
					"triscale" : 0.9,
					"fontname" : "Arial",
					"triangle" : 0,
					"htextcolor" : [ 0.870588, 0.870588, 0.870588, 1.0 ],
					"fontface" : 1,
					"numinlets" : 1,
					"fontsize" : 9.0,
					"bgcolor" : [ 0.866667, 0.866667, 0.866667, 1.0 ],
					"numoutlets" : 2,
					"outlettype" : [ "int", "bang" ]
				}

			}
, 			{
				"box" : 				{
					"maxclass" : "newobj",
					"text" : "p db1",
					"patching_rect" : [ -1.0, 184.0, 32.0, 17.0 ],
					"id" : "obj-8",
					"fontname" : "Arial",
					"hidden" : 1,
					"numinlets" : 1,
					"fontsize" : 9.0,
					"numoutlets" : 1,
					"outlettype" : [ "" ],
					"patcher" : 					{
						"fileversion" : 1,
						"rect" : [ 50.0, 40.0, 572.0, 356.0 ],
						"bglocked" : 0,
						"defrect" : [ 50.0, 40.0, 572.0, 356.0 ],
						"openrect" : [ 0.0, 0.0, 0.0, 0.0 ],
						"openinpresentation" : 0,
						"default_fontsize" : 12.0,
						"default_fontface" : 0,
						"default_fontname" : "Arial",
						"gridonopen" : 0,
						"gridsize" : [ 15.0, 15.0 ],
						"gridsnaponopen" : 0,
						"toolbarvisible" : 1,
						"boxanimatetime" : 200,
						"imprint" : 0,
						"enablehscroll" : 1,
						"enablevscroll" : 1,
						"devicewidth" : 0.0,
						"boxes" : [ 							{
								"box" : 								{
									"maxclass" : "comment",
									"text" : "db range",
									"patching_rect" : [ 59.0, 262.0, 72.0, 17.0 ],
									"id" : "obj-1",
									"fontname" : "Arial",
									"numinlets" : 1,
									"fontsize" : 9.0,
									"numoutlets" : 0
								}

							}
, 							{
								"box" : 								{
									"maxclass" : "comment",
									"text" : "n=0 : -infinity db;\rn=127 : 0db (unity);\rn= 157 : +18db",
									"linecount" : 3,
									"patching_rect" : [ 124.0, 78.0, 211.0, 38.0 ],
									"id" : "obj-2",
									"fontname" : "Arial",
									"numinlets" : 1,
									"fontsize" : 9.0,
									"numoutlets" : 0
								}

							}
, 							{
								"box" : 								{
									"maxclass" : "comment",
									"text" : "attenuation control <int/float> : 0 <= n <= 157",
									"linecount" : 2,
									"patching_rect" : [ 124.0, 46.0, 180.0, 27.0 ],
									"id" : "obj-3",
									"fontname" : "Arial",
									"numinlets" : 1,
									"fontsize" : 9.0,
									"numoutlets" : 0
								}

							}
, 							{
								"box" : 								{
									"maxclass" : "comment",
									"text" : "--converts gain1's control signal to db scale",
									"patching_rect" : [ 108.0, 25.0, 291.0, 17.0 ],
									"id" : "obj-4",
									"fontname" : "Arial",
									"numinlets" : 1,
									"fontsize" : 9.0,
									"numoutlets" : 0
								}

							}
, 							{
								"box" : 								{
									"maxclass" : "comment",
									"text" : "db1.abs",
									"patching_rect" : [ 13.0, 21.0, 63.0, 23.0 ],
									"id" : "obj-5",
									"fontname" : "Arial",
									"numinlets" : 1,
									"fontsize" : 14.0,
									"numoutlets" : 0
								}

							}
, 							{
								"box" : 								{
									"maxclass" : "outlet",
									"patching_rect" : [ 67.0, 239.0, 15.0, 15.0 ],
									"id" : "obj-6",
									"numinlets" : 1,
									"numoutlets" : 0,
									"comment" : ""
								}

							}
, 							{
								"box" : 								{
									"maxclass" : "inlet",
									"patching_rect" : [ 67.0, 113.0, 15.0, 15.0 ],
									"id" : "obj-7",
									"numinlets" : 0,
									"numoutlets" : 1,
									"outlettype" : [ "int" ],
									"comment" : ""
								}

							}
, 							{
								"box" : 								{
									"maxclass" : "comment",
									"text" : "see gain1.abs for conversion details",
									"patching_rect" : [ 180.0, 235.0, 170.0, 17.0 ],
									"id" : "obj-8",
									"fontname" : "Arial",
									"numinlets" : 1,
									"fontsize" : 9.0,
									"numoutlets" : 0
								}

							}
, 							{
								"box" : 								{
									"maxclass" : "message",
									"text" : "-9999",
									"patching_rect" : [ 125.0, 180.0, 36.0, 15.0 ],
									"id" : "obj-9",
									"fontname" : "Arial",
									"numinlets" : 2,
									"fontsize" : 9.0,
									"numoutlets" : 1,
									"outlettype" : [ "" ]
								}

							}
, 							{
								"box" : 								{
									"maxclass" : "newobj",
									"text" : "split 1. 157.",
									"patching_rect" : [ 67.0, 158.0, 64.0, 17.0 ],
									"id" : "obj-10",
									"fontname" : "Arial",
									"numinlets" : 3,
									"fontsize" : 9.0,
									"numoutlets" : 2,
									"outlettype" : [ "float", "float" ]
								}

							}
, 							{
								"box" : 								{
									"maxclass" : "newobj",
									"text" : "expr 0 - (126 - ($f1-1)) * 0.599694 + 0.1",
									"patching_rect" : [ 67.0, 204.0, 217.0, 17.0 ],
									"id" : "obj-11",
									"fontname" : "Arial",
									"numinlets" : 1,
									"fontsize" : 9.0,
									"numoutlets" : 1,
									"outlettype" : [ "" ]
								}

							}
, 							{
								"box" : 								{
									"maxclass" : "newobj",
									"text" : "clip 0. 157.",
									"patching_rect" : [ 67.0, 133.0, 82.0, 17.0 ],
									"id" : "obj-12",
									"fontname" : "Arial",
									"numinlets" : 3,
									"fontsize" : 9.0,
									"numoutlets" : 1,
									"outlettype" : [ "" ]
								}

							}
 ],
						"lines" : [ 							{
								"patchline" : 								{
									"source" : [ "obj-10", 1 ],
									"destination" : [ "obj-9", 0 ],
									"hidden" : 0,
									"midpoints" : [  ]
								}

							}
, 							{
								"patchline" : 								{
									"source" : [ "obj-11", 0 ],
									"destination" : [ "obj-6", 0 ],
									"hidden" : 0,
									"midpoints" : [  ]
								}

							}
, 							{
								"patchline" : 								{
									"source" : [ "obj-9", 0 ],
									"destination" : [ "obj-6", 0 ],
									"hidden" : 0,
									"midpoints" : [  ]
								}

							}
, 							{
								"patchline" : 								{
									"source" : [ "obj-10", 0 ],
									"destination" : [ "obj-11", 0 ],
									"hidden" : 0,
									"midpoints" : [  ]
								}

							}
, 							{
								"patchline" : 								{
									"source" : [ "obj-12", 0 ],
									"destination" : [ "obj-10", 0 ],
									"hidden" : 0,
									"midpoints" : [  ]
								}

							}
, 							{
								"patchline" : 								{
									"source" : [ "obj-7", 0 ],
									"destination" : [ "obj-12", 0 ],
									"hidden" : 0,
									"midpoints" : [  ]
								}

							}
 ]
					}
,
					"saved_object_attributes" : 					{
						"default_fontname" : "Arial",
						"fontname" : "Arial",
						"default_fontsize" : 12.0,
						"globalpatchername" : "",
						"fontface" : 0,
						"fontsize" : 12.0,
						"default_fontface" : 0
					}

				}

			}
, 			{
				"box" : 				{
					"maxclass" : "newobj",
					"text" : "p db1",
					"patching_rect" : [ -1.0, 210.0, 32.0, 17.0 ],
					"id" : "obj-9",
					"fontname" : "Arial",
					"hidden" : 1,
					"numinlets" : 1,
					"fontsize" : 9.0,
					"numoutlets" : 1,
					"outlettype" : [ "" ],
					"patcher" : 					{
						"fileversion" : 1,
						"rect" : [ 50.0, 40.0, 572.0, 356.0 ],
						"bglocked" : 0,
						"defrect" : [ 50.0, 40.0, 572.0, 356.0 ],
						"openrect" : [ 0.0, 0.0, 0.0, 0.0 ],
						"openinpresentation" : 0,
						"default_fontsize" : 12.0,
						"default_fontface" : 0,
						"default_fontname" : "Arial",
						"gridonopen" : 0,
						"gridsize" : [ 15.0, 15.0 ],
						"gridsnaponopen" : 0,
						"toolbarvisible" : 1,
						"boxanimatetime" : 200,
						"imprint" : 0,
						"enablehscroll" : 1,
						"enablevscroll" : 1,
						"devicewidth" : 0.0,
						"boxes" : [ 							{
								"box" : 								{
									"maxclass" : "comment",
									"text" : "db range",
									"patching_rect" : [ 59.0, 262.0, 72.0, 17.0 ],
									"id" : "obj-1",
									"fontname" : "Arial",
									"numinlets" : 1,
									"fontsize" : 9.0,
									"numoutlets" : 0
								}

							}
, 							{
								"box" : 								{
									"maxclass" : "comment",
									"text" : "n=0 : -infinity db;\rn=127 : 0db (unity);\rn= 157 : +18db",
									"linecount" : 3,
									"patching_rect" : [ 124.0, 78.0, 211.0, 38.0 ],
									"id" : "obj-2",
									"fontname" : "Arial",
									"numinlets" : 1,
									"fontsize" : 9.0,
									"numoutlets" : 0
								}

							}
, 							{
								"box" : 								{
									"maxclass" : "comment",
									"text" : "attenuation control <int/float> : 0 <= n <= 157",
									"linecount" : 2,
									"patching_rect" : [ 124.0, 46.0, 180.0, 27.0 ],
									"id" : "obj-3",
									"fontname" : "Arial",
									"numinlets" : 1,
									"fontsize" : 9.0,
									"numoutlets" : 0
								}

							}
, 							{
								"box" : 								{
									"maxclass" : "comment",
									"text" : "--converts gain1's control signal to db scale",
									"patching_rect" : [ 108.0, 25.0, 291.0, 17.0 ],
									"id" : "obj-4",
									"fontname" : "Arial",
									"numinlets" : 1,
									"fontsize" : 9.0,
									"numoutlets" : 0
								}

							}
, 							{
								"box" : 								{
									"maxclass" : "comment",
									"text" : "db1.abs",
									"patching_rect" : [ 13.0, 21.0, 63.0, 23.0 ],
									"id" : "obj-5",
									"fontname" : "Arial",
									"numinlets" : 1,
									"fontsize" : 14.0,
									"numoutlets" : 0
								}

							}
, 							{
								"box" : 								{
									"maxclass" : "outlet",
									"patching_rect" : [ 67.0, 239.0, 15.0, 15.0 ],
									"id" : "obj-6",
									"numinlets" : 1,
									"numoutlets" : 0,
									"comment" : ""
								}

							}
, 							{
								"box" : 								{
									"maxclass" : "inlet",
									"patching_rect" : [ 67.0, 113.0, 15.0, 15.0 ],
									"id" : "obj-7",
									"numinlets" : 0,
									"numoutlets" : 1,
									"outlettype" : [ "int" ],
									"comment" : ""
								}

							}
, 							{
								"box" : 								{
									"maxclass" : "comment",
									"text" : "see gain1.abs for conversion details",
									"patching_rect" : [ 180.0, 235.0, 170.0, 17.0 ],
									"id" : "obj-8",
									"fontname" : "Arial",
									"numinlets" : 1,
									"fontsize" : 9.0,
									"numoutlets" : 0
								}

							}
, 							{
								"box" : 								{
									"maxclass" : "message",
									"text" : "-9999",
									"patching_rect" : [ 125.0, 180.0, 36.0, 15.0 ],
									"id" : "obj-9",
									"fontname" : "Arial",
									"numinlets" : 2,
									"fontsize" : 9.0,
									"numoutlets" : 1,
									"outlettype" : [ "" ]
								}

							}
, 							{
								"box" : 								{
									"maxclass" : "newobj",
									"text" : "split 1. 157.",
									"patching_rect" : [ 67.0, 158.0, 64.0, 17.0 ],
									"id" : "obj-10",
									"fontname" : "Arial",
									"numinlets" : 3,
									"fontsize" : 9.0,
									"numoutlets" : 2,
									"outlettype" : [ "float", "float" ]
								}

							}
, 							{
								"box" : 								{
									"maxclass" : "newobj",
									"text" : "expr 0 - (126 - ($f1-1)) * 0.599694 + 0.1",
									"patching_rect" : [ 67.0, 204.0, 217.0, 17.0 ],
									"id" : "obj-11",
									"fontname" : "Arial",
									"numinlets" : 1,
									"fontsize" : 9.0,
									"numoutlets" : 1,
									"outlettype" : [ "" ]
								}

							}
, 							{
								"box" : 								{
									"maxclass" : "newobj",
									"text" : "clip 0. 157.",
									"patching_rect" : [ 67.0, 133.0, 82.0, 17.0 ],
									"id" : "obj-12",
									"fontname" : "Arial",
									"numinlets" : 3,
									"fontsize" : 9.0,
									"numoutlets" : 1,
									"outlettype" : [ "" ]
								}

							}
 ],
						"lines" : [ 							{
								"patchline" : 								{
									"source" : [ "obj-10", 1 ],
									"destination" : [ "obj-9", 0 ],
									"hidden" : 0,
									"midpoints" : [  ]
								}

							}
, 							{
								"patchline" : 								{
									"source" : [ "obj-9", 0 ],
									"destination" : [ "obj-6", 0 ],
									"hidden" : 0,
									"midpoints" : [  ]
								}

							}
, 							{
								"patchline" : 								{
									"source" : [ "obj-11", 0 ],
									"destination" : [ "obj-6", 0 ],
									"hidden" : 0,
									"midpoints" : [  ]
								}

							}
, 							{
								"patchline" : 								{
									"source" : [ "obj-10", 0 ],
									"destination" : [ "obj-11", 0 ],
									"hidden" : 0,
									"midpoints" : [  ]
								}

							}
, 							{
								"patchline" : 								{
									"source" : [ "obj-12", 0 ],
									"destination" : [ "obj-10", 0 ],
									"hidden" : 0,
									"midpoints" : [  ]
								}

							}
, 							{
								"patchline" : 								{
									"source" : [ "obj-7", 0 ],
									"destination" : [ "obj-12", 0 ],
									"hidden" : 0,
									"midpoints" : [  ]
								}

							}
 ]
					}
,
					"saved_object_attributes" : 					{
						"default_fontname" : "Arial",
						"fontname" : "Arial",
						"default_fontsize" : 12.0,
						"globalpatchername" : "",
						"fontface" : 0,
						"fontsize" : 12.0,
						"default_fontface" : 0
					}

				}

			}
, 			{
				"box" : 				{
					"maxclass" : "number",
					"patching_rect" : [ 71.0, 240.0, 29.0, 17.0 ],
					"id" : "obj-10",
					"triscale" : 0.9,
					"fontname" : "Arial",
					"triangle" : 0,
					"htextcolor" : [ 0.870588, 0.870588, 0.870588, 1.0 ],
					"fontface" : 1,
					"numinlets" : 1,
					"fontsize" : 9.0,
					"bgcolor" : [ 0.866667, 0.866667, 0.866667, 1.0 ],
					"numoutlets" : 2,
					"outlettype" : [ "int", "bang" ]
				}

			}
, 			{
				"box" : 				{
					"maxclass" : "comment",
					"text" : "dB",
					"patching_rect" : [ 131.0, 241.0, 23.0, 17.0 ],
					"id" : "obj-11",
					"fontname" : "Arial",
					"numinlets" : 1,
					"fontsize" : 9.0,
					"numoutlets" : 0
				}

			}
, 			{
				"box" : 				{
					"maxclass" : "newobj",
					"text" : "p click",
					"patching_rect" : [ 470.0, 294.0, 39.0, 17.0 ],
					"id" : "obj-12",
					"fontname" : "Arial",
					"hidden" : 1,
					"numinlets" : 1,
					"fontsize" : 9.0,
					"numoutlets" : 1,
					"outlettype" : [ "int" ],
					"patcher" : 					{
						"fileversion" : 1,
						"rect" : [ 10.0, 59.0, 600.0, 426.0 ],
						"bglocked" : 0,
						"defrect" : [ 10.0, 59.0, 600.0, 426.0 ],
						"openrect" : [ 0.0, 0.0, 0.0, 0.0 ],
						"openinpresentation" : 0,
						"default_fontsize" : 12.0,
						"default_fontface" : 0,
						"default_fontname" : "Arial",
						"gridonopen" : 0,
						"gridsize" : [ 15.0, 15.0 ],
						"gridsnaponopen" : 0,
						"toolbarvisible" : 1,
						"boxanimatetime" : 200,
						"imprint" : 0,
						"enablehscroll" : 1,
						"enablevscroll" : 1,
						"devicewidth" : 0.0,
						"boxes" : [ 							{
								"box" : 								{
									"maxclass" : "newobj",
									"text" : "sel 1",
									"patching_rect" : [ 106.0, 75.0, 32.0, 17.0 ],
									"id" : "obj-1",
									"fontname" : "Arial",
									"numinlets" : 2,
									"fontsize" : 9.0,
									"numoutlets" : 2,
									"outlettype" : [ "bang", "" ]
								}

							}
, 							{
								"box" : 								{
									"maxclass" : "newobj",
									"text" : "modifiers",
									"patching_rect" : [ 70.0, 50.0, 66.0, 17.0 ],
									"id" : "obj-2",
									"fontname" : "Arial",
									"numinlets" : 1,
									"fontsize" : 9.0,
									"numoutlets" : 5,
									"outlettype" : [ "int", "int", "int", "int", "int" ]
								}

							}
, 							{
								"box" : 								{
									"maxclass" : "newobj",
									"text" : "127",
									"patching_rect" : [ 50.0, 112.0, 27.0, 17.0 ],
									"id" : "obj-3",
									"fontname" : "Arial",
									"numinlets" : 2,
									"fontsize" : 9.0,
									"numoutlets" : 1,
									"outlettype" : [ "int" ]
								}

							}
, 							{
								"box" : 								{
									"maxclass" : "inlet",
									"patching_rect" : [ 70.0, 30.0, 15.0, 15.0 ],
									"id" : "obj-4",
									"numinlets" : 0,
									"numoutlets" : 1,
									"outlettype" : [ "bang" ],
									"comment" : ""
								}

							}
, 							{
								"box" : 								{
									"maxclass" : "outlet",
									"patching_rect" : [ 50.0, 134.0, 15.0, 15.0 ],
									"id" : "obj-5",
									"numinlets" : 1,
									"numoutlets" : 0,
									"comment" : ""
								}

							}
 ],
						"lines" : [ 							{
								"patchline" : 								{
									"source" : [ "obj-2", 4 ],
									"destination" : [ "obj-1", 0 ],
									"hidden" : 0,
									"midpoints" : [  ]
								}

							}
, 							{
								"patchline" : 								{
									"source" : [ "obj-4", 0 ],
									"destination" : [ "obj-2", 0 ],
									"hidden" : 0,
									"midpoints" : [  ]
								}

							}
, 							{
								"patchline" : 								{
									"source" : [ "obj-3", 0 ],
									"destination" : [ "obj-5", 0 ],
									"hidden" : 0,
									"midpoints" : [  ]
								}

							}
, 							{
								"patchline" : 								{
									"source" : [ "obj-1", 0 ],
									"destination" : [ "obj-3", 0 ],
									"hidden" : 0,
									"midpoints" : [  ]
								}

							}
 ]
					}
,
					"saved_object_attributes" : 					{
						"default_fontname" : "Arial",
						"fontname" : "Arial",
						"default_fontsize" : 12.0,
						"globalpatchername" : "",
						"fontface" : 0,
						"fontsize" : 12.0,
						"default_fontface" : 0
					}

				}

			}
, 			{
				"box" : 				{
					"maxclass" : "newobj",
					"varname" : "u628007963",
					"text" : "autopattr",
					"patching_rect" : [ 341.0, 326.0, 53.0, 17.0 ],
					"id" : "obj-13",
					"fontname" : "Arial",
					"hidden" : 1,
					"numinlets" : 1,
					"fontsize" : 9.0,
					"numoutlets" : 4,
					"outlettype" : [ "", "", "", "" ],
					"restore" : 					{
						"main_level_left" : [ 127 ],
						"main_level_right" : [ 127 ]
					}

				}

			}
, 			{
				"box" : 				{
					"maxclass" : "newobj",
					"text" : "loadmess 1",
					"patching_rect" : [ 345.0, 121.0, 60.0, 17.0 ],
					"id" : "obj-14",
					"fontname" : "Arial",
					"hidden" : 1,
					"numinlets" : 1,
					"fontsize" : 9.0,
					"numoutlets" : 1,
					"outlettype" : [ "" ]
				}

			}
, 			{
				"box" : 				{
					"maxclass" : "umenu",
					"patching_rect" : [ 134.0, 211.0, 68.0, 17.0 ],
					"id" : "obj-15",
					"fontname" : "Arial",
					"numinlets" : 1,
					"fontsize" : 9.0,
					"numoutlets" : 3,
					"items" : [ "None", ",", "CoreAudio", "Built-in Output", ",", "NonRealTime", ",", "ad_rewire", ",", "Live" ],
					"types" : [  ],
					"outlettype" : [ "int", "", "" ]
				}

			}
, 			{
				"box" : 				{
					"maxclass" : "newobj",
					"text" : "adstatus driver",
					"patching_rect" : [ 339.0, 218.0, 78.0, 17.0 ],
					"id" : "obj-16",
					"fontname" : "Arial",
					"hidden" : 1,
					"numinlets" : 2,
					"fontsize" : 9.0,
					"numoutlets" : 2,
					"outlettype" : [ "", "int" ]
				}

			}
, 			{
				"box" : 				{
					"maxclass" : "comment",
					"text" : "cpu usage",
					"patching_rect" : [ 131.0, 155.0, 70.0, 17.0 ],
					"id" : "obj-17",
					"fontname" : "Arial",
					"numinlets" : 1,
					"fontsize" : 9.0,
					"numoutlets" : 0
				}

			}
, 			{
				"box" : 				{
					"maxclass" : "newobj",
					"text" : "prepend set",
					"patching_rect" : [ 444.0, 158.0, 62.0, 17.0 ],
					"id" : "obj-18",
					"fontname" : "Arial",
					"hidden" : 1,
					"numinlets" : 1,
					"fontsize" : 9.0,
					"numoutlets" : 1,
					"outlettype" : [ "" ]
				}

			}
, 			{
				"box" : 				{
					"maxclass" : "umenu",
					"patching_rect" : [ 134.0, 135.0, 49.0, 17.0 ],
					"id" : "obj-19",
					"fontname" : "Arial",
					"numinlets" : 1,
					"fontsize" : 9.0,
					"numoutlets" : 3,
					"items" : [ "Off", ",", "On" ],
					"types" : [  ],
					"outlettype" : [ "int", "", "" ]
				}

			}
, 			{
				"box" : 				{
					"maxclass" : "newobj",
					"text" : "adstatus switch",
					"patching_rect" : [ 441.0, 134.0, 79.0, 17.0 ],
					"id" : "obj-20",
					"fontname" : "Arial",
					"hidden" : 1,
					"numinlets" : 2,
					"fontsize" : 9.0,
					"numoutlets" : 2,
					"outlettype" : [ "", "int" ]
				}

			}
, 			{
				"box" : 				{
					"maxclass" : "comment",
					"text" : "Poll",
					"patching_rect" : [ 149.0, 190.0, 32.0, 17.0 ],
					"id" : "obj-21",
					"fontname" : "Arial",
					"numinlets" : 1,
					"fontsize" : 9.0,
					"numoutlets" : 0
				}

			}
, 			{
				"box" : 				{
					"maxclass" : "radiogroup",
					"patching_rect" : [ 134.0, 188.0, 42.0, 18.0 ],
					"id" : "obj-22",
					"numinlets" : 1,
					"numoutlets" : 1,
					"outlettype" : [ "" ],
					"itemtype" : 1,
					"size" : 1,
					"values" : [ 1 ],
					"disabled" : [ 0 ]
				}

			}
, 			{
				"box" : 				{
					"maxclass" : "newobj",
					"text" : "metro 250",
					"patching_rect" : [ 345.0, 174.0, 55.0, 17.0 ],
					"id" : "obj-23",
					"fontname" : "Arial",
					"hidden" : 1,
					"numinlets" : 2,
					"fontsize" : 9.0,
					"numoutlets" : 1,
					"outlettype" : [ "bang" ]
				}

			}
, 			{
				"box" : 				{
					"maxclass" : "flonum",
					"patching_rect" : [ 134.0, 170.0, 48.0, 17.0 ],
					"bordercolor" : [ 1.0, 1.0, 1.0, 0.0 ],
					"cantchange" : 1,
					"id" : "obj-24",
					"triscale" : 0.9,
					"fontname" : "Arial",
					"hbgcolor" : [ 1.0, 1.0, 1.0, 0.0 ],
					"triangle" : 0,
					"htextcolor" : [ 0.870588, 0.870588, 0.870588, 1.0 ],
					"numinlets" : 1,
					"fontsize" : 9.0,
					"bgcolor" : [ 1.0, 1.0, 1.0, 0.0 ],
					"numoutlets" : 2,
					"outlettype" : [ "float", "bang" ]
				}

			}
, 			{
				"box" : 				{
					"maxclass" : "newobj",
					"text" : "adstatus cpu",
					"patching_rect" : [ 345.0, 195.0, 64.0, 17.0 ],
					"id" : "obj-25",
					"fontname" : "Arial",
					"hidden" : 1,
					"numinlets" : 2,
					"fontsize" : 9.0,
					"numoutlets" : 2,
					"outlettype" : [ "", "int" ]
				}

			}
, 			{
				"box" : 				{
					"maxclass" : "comment",
					"text" : "%",
					"patching_rect" : [ 182.0, 172.0, 17.0, 17.0 ],
					"id" : "obj-26",
					"fontname" : "Arial",
					"numinlets" : 1,
					"fontsize" : 9.0,
					"numoutlets" : 0
				}

			}
, 			{
				"box" : 				{
					"maxclass" : "toggle",
					"patching_rect" : [ 133.0, 263.0, 29.0, 29.0 ],
					"id" : "obj-27",
					"numinlets" : 1,
					"numoutlets" : 1,
					"outlettype" : [ "int" ]
				}

			}
, 			{
				"box" : 				{
					"maxclass" : "newobj",
					"text" : "s clockControl",
					"patching_rect" : [ 132.0, 303.0, 74.0, 17.0 ],
					"id" : "obj-28",
					"fontname" : "Arial",
					"hidden" : 1,
					"numinlets" : 1,
					"fontsize" : 9.0,
					"numoutlets" : 0
				}

			}
, 			{
				"box" : 				{
					"maxclass" : "message",
					"text" : "0:00",
					"patching_rect" : [ 71.0, 262.0, 60.0, 27.0 ],
					"id" : "obj-29",
					"fontname" : "Arial",
					"numinlets" : 2,
					"fontsize" : 20.0,
					"numoutlets" : 1,
					"outlettype" : [ "" ]
				}

			}
, 			{
				"box" : 				{
					"maxclass" : "newobj",
					"text" : "clock.maxpat",
					"patching_rect" : [ -6.0, 251.0, 63.0, 17.0 ],
					"id" : "obj-30",
					"fontname" : "Arial",
					"hidden" : 1,
					"numinlets" : 0,
					"fontsize" : 9.0,
					"numoutlets" : 1,
					"outlettype" : [ "" ]
				}

			}
, 			{
				"box" : 				{
					"maxclass" : "meter~",
					"patching_rect" : [ 72.0, 121.0, 13.0, 116.0 ],
					"id" : "obj-31",
					"tepidcolor" : [ 0.6, 0.729412, 0.0, 1.0 ],
					"interval" : 100,
					"warmcolor" : [ 0.85098, 0.85098, 0.0, 1.0 ],
					"numinlets" : 1,
					"bgcolor" : [ 0.403922, 0.403922, 0.403922, 1.0 ],
					"numoutlets" : 1,
					"coldcolor" : [ 0.0, 0.658824, 0.0, 1.0 ],
					"outlettype" : [ "float" ]
				}

			}
, 			{
				"box" : 				{
					"maxclass" : "meter~",
					"patching_rect" : [ 114.0, 121.0, 14.0, 116.0 ],
					"id" : "obj-32",
					"tepidcolor" : [ 0.6, 0.729412, 0.0, 1.0 ],
					"interval" : 100,
					"warmcolor" : [ 0.85098, 0.85098, 0.0, 1.0 ],
					"numinlets" : 1,
					"bgcolor" : [ 0.403922, 0.403922, 0.403922, 1.0 ],
					"numoutlets" : 1,
					"coldcolor" : [ 0.0, 0.658824, 0.0, 1.0 ],
					"outlettype" : [ "float" ]
				}

			}
, 			{
				"box" : 				{
					"maxclass" : "newobj",
					"text" : "receive~ mainR",
					"patching_rect" : [ 141.0, 47.0, 79.0, 17.0 ],
					"id" : "obj-33",
					"fontname" : "Arial",
					"hidden" : 1,
					"numinlets" : 1,
					"fontsize" : 9.0,
					"numoutlets" : 1,
					"outlettype" : [ "signal" ]
				}

			}
, 			{
				"box" : 				{
					"maxclass" : "newobj",
					"text" : "receive~ mainL",
					"patching_rect" : [ 61.0, 47.0, 78.0, 17.0 ],
					"id" : "obj-34",
					"fontname" : "Arial",
					"hidden" : 1,
					"numinlets" : 1,
					"fontsize" : 9.0,
					"numoutlets" : 1,
					"outlettype" : [ "signal" ]
				}

			}
, 			{
				"box" : 				{
					"maxclass" : "gain~",
					"varname" : "main_level_right",
					"patching_rect" : [ 101.0, 121.0, 11.0, 116.0 ],
					"id" : "obj-35",
					"orientation" : 2,
					"numinlets" : 2,
					"numoutlets" : 2,
					"outlettype" : [ "signal", "int" ]
				}

			}
, 			{
				"box" : 				{
					"maxclass" : "gain~",
					"varname" : "main_level_left",
					"patching_rect" : [ 87.0, 121.0, 11.0, 116.0 ],
					"id" : "obj-36",
					"orientation" : 2,
					"numinlets" : 2,
					"numoutlets" : 2,
					"outlettype" : [ "signal", "int" ]
				}

			}
, 			{
				"box" : 				{
					"maxclass" : "newobj",
					"text" : "sel 27",
					"patching_rect" : [ 310.0, 70.0, 35.0, 17.0 ],
					"id" : "obj-37",
					"fontname" : "Arial",
					"hidden" : 1,
					"numinlets" : 2,
					"fontsize" : 9.0,
					"numoutlets" : 2,
					"outlettype" : [ "bang", "" ]
				}

			}
, 			{
				"box" : 				{
					"maxclass" : "newobj",
					"text" : "key",
					"patching_rect" : [ 309.0, 49.0, 40.0, 17.0 ],
					"id" : "obj-38",
					"fontname" : "Arial",
					"hidden" : 1,
					"numinlets" : 0,
					"fontsize" : 9.0,
					"numoutlets" : 4,
					"outlettype" : [ "int", "int", "int", "int" ]
				}

			}
, 			{
				"box" : 				{
					"maxclass" : "toggle",
					"patching_rect" : [ 276.0, 120.0, 19.0, 19.0 ],
					"id" : "obj-39",
					"hidden" : 1,
					"numinlets" : 1,
					"numoutlets" : 1,
					"outlettype" : [ "int" ]
				}

			}
, 			{
				"box" : 				{
					"maxclass" : "newobj",
					"text" : "dac~ 1 2",
					"patching_rect" : [ 7.0, 446.0, 48.0, 17.0 ],
					"id" : "obj-40",
					"fontname" : "Arial",
					"hidden" : 1,
					"numinlets" : 2,
					"fontsize" : 9.0,
					"numoutlets" : 0
				}

			}
, 			{
				"box" : 				{
					"maxclass" : "comment",
					"text" : "audio (ESC)",
					"patching_rect" : [ 129.0, 120.0, 70.0, 17.0 ],
					"id" : "obj-41",
					"fontname" : "Arial",
					"numinlets" : 1,
					"fontsize" : 9.0,
					"numoutlets" : 0
				}

			}
, 			{
				"box" : 				{
					"maxclass" : "comment",
					"text" : "Main Faders",
					"patching_rect" : [ 66.0, 100.0, 88.0, 23.0 ],
					"id" : "obj-42",
					"fontname" : "Arial Black",
					"numinlets" : 1,
					"fontsize" : 12.0,
					"numoutlets" : 0
				}

			}
, 			{
				"box" : 				{
					"maxclass" : "comment",
					"text" : "clock",
					"patching_rect" : [ 74.0, 296.0, 100.0, 17.0 ],
					"id" : "obj-43",
					"fontname" : "Arial",
					"numinlets" : 1,
					"fontsize" : 9.0,
					"numoutlets" : 0
				}

			}
, 			{
				"box" : 				{
					"maxclass" : "panel",
					"patching_rect" : [ 62.0, 93.0, 148.0, 222.0 ],
					"rounded" : 20,
					"id" : "obj-44",
					"numinlets" : 1,
					"bgcolor" : [ 0.647059, 0.67451, 0.713726, 1.0 ],
					"numoutlets" : 0,
					"background" : 1
				}

			}
, 			{
				"box" : 				{
					"maxclass" : "panel",
					"patching_rect" : [ 58.0, 89.0, 156.0, 230.0 ],
					"rounded" : 20,
					"id" : "obj-45",
					"numinlets" : 1,
					"border" : 2,
					"bgcolor" : [ 0.368627, 0.392157, 0.431373, 1.0 ],
					"numoutlets" : 0,
					"background" : 1
				}

			}
 ],
		"lines" : [ 			{
				"patchline" : 				{
					"source" : [ "obj-2", 0 ],
					"destination" : [ "obj-46", 0 ],
					"hidden" : 1,
					"midpoints" : [  ]
				}

			}
, 			{
				"patchline" : 				{
					"source" : [ "obj-6", 1 ],
					"destination" : [ "obj-12", 0 ],
					"hidden" : 1,
					"midpoints" : [  ]
				}

			}
, 			{
				"patchline" : 				{
					"source" : [ "obj-1", 0 ],
					"destination" : [ "obj-12", 0 ],
					"hidden" : 1,
					"midpoints" : [  ]
				}

			}
, 			{
				"patchline" : 				{
					"source" : [ "obj-19", 0 ],
					"destination" : [ "obj-18", 0 ],
					"hidden" : 1,
					"midpoints" : [  ]
				}

			}
, 			{
				"patchline" : 				{
					"source" : [ "obj-19", 0 ],
					"destination" : [ "obj-20", 0 ],
					"hidden" : 1,
					"midpoints" : [ 143.5, 160.0, 260.0, 160.0, 286.0, 139.0, 450.5, 139.0 ]
				}

			}
, 			{
				"patchline" : 				{
					"source" : [ "obj-23", 0 ],
					"destination" : [ "obj-25", 0 ],
					"hidden" : 1,
					"midpoints" : [  ]
				}

			}
, 			{
				"patchline" : 				{
					"source" : [ "obj-14", 0 ],
					"destination" : [ "obj-23", 0 ],
					"hidden" : 1,
					"midpoints" : [  ]
				}

			}
, 			{
				"patchline" : 				{
					"source" : [ "obj-22", 0 ],
					"destination" : [ "obj-23", 0 ],
					"hidden" : 1,
					"midpoints" : [  ]
				}

			}
, 			{
				"patchline" : 				{
					"source" : [ "obj-15", 0 ],
					"destination" : [ "obj-16", 0 ],
					"hidden" : 1,
					"midpoints" : [ 143.5, 236.0, 244.0, 236.0, 270.0, 215.0, 348.5, 215.0 ]
				}

			}
, 			{
				"patchline" : 				{
					"source" : [ "obj-38", 0 ],
					"destination" : [ "obj-37", 0 ],
					"hidden" : 1,
					"midpoints" : [ 318.5, 65.0, 319.5, 65.0 ]
				}

			}
, 			{
				"patchline" : 				{
					"source" : [ "obj-37", 0 ],
					"destination" : [ "obj-39", 0 ],
					"hidden" : 1,
					"midpoints" : [ 319.5, 108.0, 285.5, 108.0 ]
				}

			}
, 			{
				"patchline" : 				{
					"source" : [ "obj-18", 0 ],
					"destination" : [ "obj-39", 0 ],
					"hidden" : 1,
					"midpoints" : [ 453.5, 189.0, 545.0, 189.0, 545.0, 113.0, 285.5, 113.0 ]
				}

			}
, 			{
				"patchline" : 				{
					"source" : [ "obj-3", 0 ],
					"destination" : [ "obj-2", 0 ],
					"hidden" : 1,
					"midpoints" : [  ]
				}

			}
, 			{
				"patchline" : 				{
					"source" : [ "obj-16", 0 ],
					"destination" : [ "obj-15", 0 ],
					"hidden" : 1,
					"midpoints" : [ 348.5, 238.0, 270.0, 238.0, 240.0, 216.0, 143.5, 216.0 ]
				}

			}
, 			{
				"patchline" : 				{
					"source" : [ "obj-25", 0 ],
					"destination" : [ "obj-24", 0 ],
					"hidden" : 1,
					"midpoints" : [  ]
				}

			}
, 			{
				"patchline" : 				{
					"source" : [ "obj-20", 0 ],
					"destination" : [ "obj-19", 0 ],
					"hidden" : 1,
					"midpoints" : [ 450.5, 162.0, 286.0, 162.0, 256.0, 140.0, 143.5, 140.0 ]
				}

			}
, 			{
				"patchline" : 				{
					"source" : [ "obj-39", 0 ],
					"destination" : [ "obj-19", 0 ],
					"hidden" : 1,
					"midpoints" : [  ]
				}

			}
, 			{
				"patchline" : 				{
					"source" : [ "obj-27", 0 ],
					"destination" : [ "obj-28", 0 ],
					"hidden" : 1,
					"midpoints" : [  ]
				}

			}
, 			{
				"patchline" : 				{
					"source" : [ "obj-35", 0 ],
					"destination" : [ "obj-32", 0 ],
					"hidden" : 1,
					"midpoints" : [  ]
				}

			}
, 			{
				"patchline" : 				{
					"source" : [ "obj-8", 0 ],
					"destination" : [ "obj-7", 0 ],
					"hidden" : 1,
					"midpoints" : [  ]
				}

			}
, 			{
				"patchline" : 				{
					"source" : [ "obj-36", 1 ],
					"destination" : [ "obj-35", 0 ],
					"hidden" : 1,
					"midpoints" : [  ]
				}

			}
, 			{
				"patchline" : 				{
					"source" : [ "obj-12", 0 ],
					"destination" : [ "obj-35", 0 ],
					"hidden" : 1,
					"midpoints" : [  ]
				}

			}
, 			{
				"patchline" : 				{
					"source" : [ "obj-33", 0 ],
					"destination" : [ "obj-35", 0 ],
					"hidden" : 1,
					"midpoints" : [ 150.5, 108.0, 104.5, 108.0 ]
				}

			}
, 			{
				"patchline" : 				{
					"source" : [ "obj-34", 0 ],
					"destination" : [ "obj-36", 0 ],
					"hidden" : 1,
					"midpoints" : [ 70.5, 109.0, 90.5, 109.0 ]
				}

			}
, 			{
				"patchline" : 				{
					"source" : [ "obj-12", 0 ],
					"destination" : [ "obj-36", 0 ],
					"hidden" : 1,
					"midpoints" : [  ]
				}

			}
, 			{
				"patchline" : 				{
					"source" : [ "obj-36", 0 ],
					"destination" : [ "obj-31", 0 ],
					"hidden" : 1,
					"midpoints" : [  ]
				}

			}
, 			{
				"patchline" : 				{
					"source" : [ "obj-9", 0 ],
					"destination" : [ "obj-10", 0 ],
					"hidden" : 1,
					"midpoints" : [  ]
				}

			}
, 			{
				"patchline" : 				{
					"source" : [ "obj-35", 0 ],
					"destination" : [ "obj-40", 1 ],
					"hidden" : 1,
					"midpoints" : [ 104.5, 432.0, 45.5, 432.0 ]
				}

			}
, 			{
				"patchline" : 				{
					"source" : [ "obj-36", 0 ],
					"destination" : [ "obj-40", 0 ],
					"hidden" : 1,
					"midpoints" : [ 90.5, 424.0, 16.5, 424.0 ]
				}

			}
, 			{
				"patchline" : 				{
					"source" : [ "obj-36", 1 ],
					"destination" : [ "obj-9", 0 ],
					"hidden" : 1,
					"midpoints" : [  ]
				}

			}
, 			{
				"patchline" : 				{
					"source" : [ "obj-35", 1 ],
					"destination" : [ "obj-8", 0 ],
					"hidden" : 1,
					"midpoints" : [  ]
				}

			}
, 			{
				"patchline" : 				{
					"source" : [ "obj-30", 0 ],
					"destination" : [ "obj-29", 0 ],
					"hidden" : 1,
					"midpoints" : [  ]
				}

			}
 ]
	}

}
