{
	"patcher" : 	{
		"fileversion" : 1,
		"rect" : [ 327.0, 389.0, 831.0, 552.0 ],
		"bglocked" : 0,
		"defrect" : [ 327.0, 389.0, 831.0, 552.0 ],
		"openrect" : [ 0.0, 0.0, 0.0, 0.0 ],
		"openinpresentation" : 0,
		"default_fontsize" : 12.0,
		"default_fontface" : 0,
		"default_fontname" : "Arial",
		"gridonopen" : 0,
		"gridsize" : [ 15.0, 15.0 ],
		"gridsnaponopen" : 0,
		"toolbarvisible" : 1,
		"boxanimatetime" : 200,
		"imprint" : 0,
		"enablehscroll" : 1,
		"enablevscroll" : 1,
		"devicewidth" : 0.0,
		"boxes" : [ 			{
				"box" : 				{
					"maxclass" : "newobj",
					"text" : "r buf_size",
					"id" : "obj-1",
					"patching_rect" : [ 172.0, 188.0, 56.0, 17.0 ],
					"fontname" : "Arial",
					"outlettype" : [ "" ],
					"fontsize" : 9.0,
					"numinlets" : 0,
					"numoutlets" : 1
				}

			}
, 			{
				"box" : 				{
					"maxclass" : "inlet",
					"id" : "obj-2",
					"patching_rect" : [ 150.0, 98.0, 15.0, 15.0 ],
					"outlettype" : [ "" ],
					"numinlets" : 0,
					"numoutlets" : 1,
					"comment" : "number that determines what buffername is associated with the file"
				}

			}
, 			{
				"box" : 				{
					"maxclass" : "newobj",
					"text" : "in 1",
					"id" : "obj-3",
					"patching_rect" : [ 120.0, 98.0, 25.0, 17.0 ],
					"fontname" : "Arial",
					"outlettype" : [ "" ],
					"fontsize" : 9.0,
					"numinlets" : 1,
					"numoutlets" : 1,
					"saved_object_attributes" : 					{
						"attr_comment" : ""
					}

				}

			}
, 			{
				"box" : 				{
					"maxclass" : "newobj",
					"text" : "buffer~ A 10000 2",
					"id" : "obj-4",
					"patching_rect" : [ 120.0, 266.0, 96.0, 17.0 ],
					"fontname" : "Arial",
					"outlettype" : [ "float", "bang" ],
					"fontsize" : 9.0,
					"numinlets" : 1,
					"numoutlets" : 2
				}

			}
, 			{
				"box" : 				{
					"maxclass" : "comment",
					"text" : "dynamic buffer creation",
					"linecount" : 2,
					"id" : "obj-5",
					"patching_rect" : [ 273.0, 154.0, 100.0, 27.0 ],
					"fontname" : "Arial",
					"fontsize" : 9.0,
					"numinlets" : 1,
					"numoutlets" : 0
				}

			}
 ],
		"lines" : [ 			{
				"patchline" : 				{
					"source" : [ "obj-1", 0 ],
					"destination" : [ "obj-4", 0 ],
					"hidden" : 0,
					"midpoints" : [ 181.5, 235.0, 129.5, 235.0 ]
				}

			}
, 			{
				"patchline" : 				{
					"source" : [ "obj-2", 0 ],
					"destination" : [ "obj-4", 0 ],
					"hidden" : 0,
					"midpoints" : [ 159.0, 189.0, 129.5, 189.0 ]
				}

			}
, 			{
				"patchline" : 				{
					"source" : [ "obj-3", 0 ],
					"destination" : [ "obj-4", 0 ],
					"hidden" : 0,
					"midpoints" : [  ]
				}

			}
 ]
	}

}
