{
	"patcher" : 	{
		"fileversion" : 1,
		"rect" : [ 16.0, 44.0, 1142.0, 700.0 ],
		"bglocked" : 0,
		"defrect" : [ 16.0, 44.0, 1142.0, 700.0 ],
		"openrect" : [ 0.0, 0.0, 0.0, 0.0 ],
		"openinpresentation" : 0,
		"default_fontsize" : 12.0,
		"default_fontface" : 0,
		"default_fontname" : "Arial",
		"gridonopen" : 0,
		"gridsize" : [ 15.0, 15.0 ],
		"gridsnaponopen" : 0,
		"toolbarvisible" : 1,
		"boxanimatetime" : 200,
		"imprint" : 0,
		"enablehscroll" : 1,
		"enablevscroll" : 1,
		"devicewidth" : 0.0,
		"boxes" : [ 			{
				"box" : 				{
					"maxclass" : "message",
					"text" : "stop",
					"id" : "obj-1",
					"patching_rect" : [ 244.0, 611.0, 29.0, 15.0 ],
					"fontname" : "Arial",
					"outlettype" : [ "" ],
					"fontsize" : 9.0,
					"numinlets" : 2,
					"numoutlets" : 1
				}

			}
, 			{
				"box" : 				{
					"maxclass" : "newobj",
					"text" : "edge~",
					"id" : "obj-2",
					"patching_rect" : [ 218.0, 581.0, 36.0, 17.0 ],
					"fontname" : "Arial",
					"outlettype" : [ "bang", "bang" ],
					"fontsize" : 9.0,
					"numinlets" : 1,
					"numoutlets" : 2
				}

			}
, 			{
				"box" : 				{
					"maxclass" : "newobj",
					"text" : "p fadeout",
					"id" : "obj-3",
					"patching_rect" : [ 800.0, 429.0, 124.0, 17.0 ],
					"fontname" : "Arial",
					"outlettype" : [ "" ],
					"fontsize" : 9.0,
					"numinlets" : 8,
					"numoutlets" : 1,
					"patcher" : 					{
						"fileversion" : 1,
						"rect" : [ 237.0, 44.0, 808.0, 701.0 ],
						"bglocked" : 0,
						"defrect" : [ 237.0, 44.0, 808.0, 701.0 ],
						"openrect" : [ 0.0, 0.0, 0.0, 0.0 ],
						"openinpresentation" : 0,
						"default_fontsize" : 12.0,
						"default_fontface" : 0,
						"default_fontname" : "Arial",
						"gridonopen" : 0,
						"gridsize" : [ 15.0, 15.0 ],
						"gridsnaponopen" : 0,
						"toolbarvisible" : 1,
						"boxanimatetime" : 200,
						"imprint" : 0,
						"enablehscroll" : 1,
						"enablevscroll" : 1,
						"devicewidth" : 0.0,
						"boxes" : [ 							{
								"box" : 								{
									"maxclass" : "newobj",
									"text" : "edge~",
									"id" : "obj-1",
									"patching_rect" : [ 421.0, 494.0, 36.0, 17.0 ],
									"fontname" : "Arial",
									"outlettype" : [ "bang", "bang" ],
									"fontsize" : 9.0,
									"numinlets" : 1,
									"numoutlets" : 2
								}

							}
, 							{
								"box" : 								{
									"maxclass" : "newobj",
									"text" : "<=~",
									"id" : "obj-2",
									"patching_rect" : [ 421.0, 470.0, 27.0, 17.0 ],
									"fontname" : "Arial",
									"outlettype" : [ "signal" ],
									"fontsize" : 9.0,
									"numinlets" : 2,
									"numoutlets" : 1
								}

							}
, 							{
								"box" : 								{
									"maxclass" : "newobj",
									"text" : "gate~ 2",
									"id" : "obj-3",
									"patching_rect" : [ 654.0, 323.0, 47.0, 17.0 ],
									"fontname" : "Arial",
									"outlettype" : [ "signal", "signal" ],
									"fontsize" : 9.0,
									"numinlets" : 2,
									"numoutlets" : 2
								}

							}
, 							{
								"box" : 								{
									"maxclass" : "flonum",
									"id" : "obj-4",
									"patching_rect" : [ 333.0, 312.0, 98.0, 17.0 ],
									"fontname" : "Arial",
									"outlettype" : [ "float", "bang" ],
									"htextcolor" : [ 0.870588, 0.870588, 0.870588, 1.0 ],
									"bgcolor" : [ 0.866667, 0.866667, 0.866667, 1.0 ],
									"fontsize" : 9.0,
									"triscale" : 0.9,
									"numinlets" : 1,
									"numoutlets" : 2
								}

							}
, 							{
								"box" : 								{
									"maxclass" : "flonum",
									"id" : "obj-5",
									"patching_rect" : [ 308.0, 414.0, 96.0, 17.0 ],
									"fontname" : "Arial",
									"outlettype" : [ "float", "bang" ],
									"htextcolor" : [ 0.870588, 0.870588, 0.870588, 1.0 ],
									"bgcolor" : [ 0.866667, 0.866667, 0.866667, 1.0 ],
									"fontsize" : 9.0,
									"triscale" : 0.9,
									"numinlets" : 1,
									"numoutlets" : 2
								}

							}
, 							{
								"box" : 								{
									"maxclass" : "flonum",
									"id" : "obj-6",
									"patching_rect" : [ 449.0, 414.0, 96.0, 17.0 ],
									"fontname" : "Arial",
									"outlettype" : [ "float", "bang" ],
									"htextcolor" : [ 0.870588, 0.870588, 0.870588, 1.0 ],
									"bgcolor" : [ 0.866667, 0.866667, 0.866667, 1.0 ],
									"fontsize" : 9.0,
									"triscale" : 0.9,
									"numinlets" : 1,
									"numoutlets" : 2
								}

							}
, 							{
								"box" : 								{
									"maxclass" : "newobj",
									"text" : "expr abs(1-$i1)",
									"id" : "obj-7",
									"patching_rect" : [ 173.0, 95.0, 83.0, 17.0 ],
									"fontname" : "Arial",
									"outlettype" : [ "" ],
									"fontsize" : 9.0,
									"numinlets" : 1,
									"numoutlets" : 1
								}

							}
, 							{
								"box" : 								{
									"maxclass" : "newobj",
									"text" : "+ 1",
									"id" : "obj-8",
									"patching_rect" : [ 119.0, 127.0, 27.0, 17.0 ],
									"fontname" : "Arial",
									"outlettype" : [ "int" ],
									"fontsize" : 9.0,
									"numinlets" : 2,
									"numoutlets" : 1
								}

							}
, 							{
								"box" : 								{
									"maxclass" : "newobj",
									"text" : "gate 2",
									"id" : "obj-9",
									"patching_rect" : [ 119.0, 181.0, 38.0, 17.0 ],
									"fontname" : "Arial",
									"outlettype" : [ "", "" ],
									"fontsize" : 9.0,
									"numinlets" : 2,
									"numoutlets" : 2
								}

							}
, 							{
								"box" : 								{
									"maxclass" : "newobj",
									"text" : "f",
									"id" : "obj-10",
									"patching_rect" : [ 249.0, 290.0, 27.0, 17.0 ],
									"fontname" : "Arial",
									"outlettype" : [ "float" ],
									"fontsize" : 9.0,
									"numinlets" : 2,
									"numoutlets" : 1
								}

							}
, 							{
								"box" : 								{
									"maxclass" : "message",
									"text" : "0 $1 -0.5",
									"id" : "obj-11",
									"patching_rect" : [ 249.0, 311.0, 54.0, 15.0 ],
									"fontname" : "Arial",
									"outlettype" : [ "" ],
									"fontsize" : 9.0,
									"numinlets" : 2,
									"numoutlets" : 1
								}

							}
, 							{
								"box" : 								{
									"maxclass" : "newobj",
									"text" : "+ 1",
									"id" : "obj-12",
									"patching_rect" : [ 91.0, 206.0, 27.0, 17.0 ],
									"fontname" : "Arial",
									"outlettype" : [ "int" ],
									"fontsize" : 9.0,
									"numinlets" : 2,
									"numoutlets" : 1
								}

							}
, 							{
								"box" : 								{
									"maxclass" : "newobj",
									"text" : "gate 2",
									"id" : "obj-13",
									"patching_rect" : [ 91.0, 228.0, 38.0, 17.0 ],
									"fontname" : "Arial",
									"outlettype" : [ "", "" ],
									"fontsize" : 9.0,
									"numinlets" : 2,
									"numoutlets" : 2
								}

							}
, 							{
								"box" : 								{
									"maxclass" : "newobj",
									"text" : "gate",
									"id" : "obj-14",
									"patching_rect" : [ 173.0, 569.0, 29.0, 17.0 ],
									"fontname" : "Arial",
									"outlettype" : [ "" ],
									"fontsize" : 9.0,
									"numinlets" : 2,
									"numoutlets" : 1
								}

							}
, 							{
								"box" : 								{
									"maxclass" : "newobj",
									"text" : "edge~",
									"id" : "obj-15",
									"patching_rect" : [ 281.0, 488.0, 36.0, 17.0 ],
									"fontname" : "Arial",
									"outlettype" : [ "bang", "bang" ],
									"fontsize" : 9.0,
									"numinlets" : 1,
									"numoutlets" : 2
								}

							}
, 							{
								"box" : 								{
									"maxclass" : "newobj",
									"text" : ">=~",
									"id" : "obj-16",
									"patching_rect" : [ 281.0, 465.0, 27.0, 17.0 ],
									"fontname" : "Arial",
									"outlettype" : [ "signal" ],
									"fontsize" : 9.0,
									"numinlets" : 2,
									"numoutlets" : 1
								}

							}
, 							{
								"box" : 								{
									"maxclass" : "newobj",
									"text" : "gate 2",
									"id" : "obj-17",
									"patching_rect" : [ 298.0, 349.0, 38.0, 17.0 ],
									"fontname" : "Arial",
									"outlettype" : [ "", "" ],
									"fontsize" : 9.0,
									"numinlets" : 2,
									"numoutlets" : 2
								}

							}
, 							{
								"box" : 								{
									"maxclass" : "newobj",
									"text" : "t b",
									"id" : "obj-18",
									"patching_rect" : [ 326.0, 95.0, 20.0, 17.0 ],
									"fontname" : "Arial",
									"outlettype" : [ "bang" ],
									"fontsize" : 9.0,
									"numinlets" : 1,
									"numoutlets" : 1
								}

							}
, 							{
								"box" : 								{
									"maxclass" : "newobj",
									"text" : "f",
									"id" : "obj-19",
									"patching_rect" : [ 326.0, 144.0, 27.0, 17.0 ],
									"fontname" : "Arial",
									"outlettype" : [ "float" ],
									"fontsize" : 9.0,
									"numinlets" : 2,
									"numoutlets" : 1
								}

							}
, 							{
								"box" : 								{
									"maxclass" : "newobj",
									"text" : "+ 0.",
									"id" : "obj-20",
									"patching_rect" : [ 438.0, 392.0, 27.0, 17.0 ],
									"fontname" : "Arial",
									"outlettype" : [ "float" ],
									"fontsize" : 9.0,
									"numinlets" : 2,
									"numoutlets" : 1
								}

							}
, 							{
								"box" : 								{
									"maxclass" : "newobj",
									"text" : "!- 0.",
									"id" : "obj-21",
									"patching_rect" : [ 298.0, 392.0, 30.0, 17.0 ],
									"fontname" : "Arial",
									"outlettype" : [ "float" ],
									"fontsize" : 9.0,
									"numinlets" : 2,
									"numoutlets" : 1
								}

							}
, 							{
								"box" : 								{
									"maxclass" : "number",
									"id" : "obj-22",
									"patching_rect" : [ 452.0, 152.0, 35.0, 17.0 ],
									"fontname" : "Arial",
									"outlettype" : [ "int", "bang" ],
									"htextcolor" : [ 0.870588, 0.870588, 0.870588, 1.0 ],
									"bgcolor" : [ 0.866667, 0.866667, 0.866667, 1.0 ],
									"fontsize" : 9.0,
									"triscale" : 0.9,
									"numinlets" : 1,
									"numoutlets" : 2
								}

							}
, 							{
								"box" : 								{
									"maxclass" : "message",
									"text" : "0 5.011338 -0.5",
									"id" : "obj-23",
									"patching_rect" : [ 91.0, 605.0, 105.0, 15.0 ],
									"fontname" : "Arial",
									"outlettype" : [ "" ],
									"fontsize" : 9.0,
									"numinlets" : 2,
									"numoutlets" : 1
								}

							}
, 							{
								"box" : 								{
									"maxclass" : "newobj",
									"text" : "expr (221*abs($f1))/44100",
									"id" : "obj-24",
									"patching_rect" : [ 326.0, 292.0, 142.0, 17.0 ],
									"fontname" : "Arial",
									"outlettype" : [ "" ],
									"fontsize" : 9.0,
									"numinlets" : 1,
									"numoutlets" : 1
								}

							}
, 							{
								"box" : 								{
									"maxclass" : "newobj",
									"text" : "loadmess 1",
									"id" : "obj-25",
									"patching_rect" : [ 403.0, 228.0, 60.0, 17.0 ],
									"fontname" : "Arial",
									"outlettype" : [ "" ],
									"fontsize" : 9.0,
									"numinlets" : 1,
									"numoutlets" : 1
								}

							}
, 							{
								"box" : 								{
									"maxclass" : "flonum",
									"id" : "obj-26",
									"patching_rect" : [ 488.0, 313.0, 125.0, 17.0 ],
									"fontname" : "Arial",
									"outlettype" : [ "float", "bang" ],
									"htextcolor" : [ 0.870588, 0.870588, 0.870588, 1.0 ],
									"bgcolor" : [ 0.866667, 0.866667, 0.866667, 1.0 ],
									"fontsize" : 9.0,
									"triscale" : 0.9,
									"numinlets" : 1,
									"numoutlets" : 2
								}

							}
, 							{
								"box" : 								{
									"maxclass" : "newobj",
									"text" : "unpack 0. 0.",
									"id" : "obj-27",
									"patching_rect" : [ 537.0, 261.0, 64.0, 17.0 ],
									"fontname" : "Arial",
									"outlettype" : [ "float", "float" ],
									"fontsize" : 9.0,
									"numinlets" : 1,
									"numoutlets" : 2
								}

							}
, 							{
								"box" : 								{
									"maxclass" : "newobj",
									"text" : "zl reg",
									"id" : "obj-28",
									"patching_rect" : [ 537.0, 234.0, 36.0, 17.0 ],
									"fontname" : "Arial",
									"outlettype" : [ "", "" ],
									"fontsize" : 9.0,
									"numinlets" : 2,
									"numoutlets" : 2
								}

							}
, 							{
								"box" : 								{
									"maxclass" : "newobj",
									"text" : "switch",
									"id" : "obj-29",
									"patching_rect" : [ 483.0, 293.0, 118.0, 17.0 ],
									"fontname" : "Arial",
									"outlettype" : [ "" ],
									"fontsize" : 9.0,
									"numinlets" : 3,
									"numoutlets" : 1
								}

							}
, 							{
								"box" : 								{
									"maxclass" : "newobj",
									"text" : "+ 1",
									"id" : "obj-30",
									"patching_rect" : [ 465.0, 180.0, 27.0, 17.0 ],
									"fontname" : "Arial",
									"outlettype" : [ "int" ],
									"fontsize" : 9.0,
									"numinlets" : 2,
									"numoutlets" : 1
								}

							}
, 							{
								"box" : 								{
									"maxclass" : "newobj",
									"text" : "pak 0. 0.",
									"id" : "obj-31",
									"patching_rect" : [ 462.0, 96.0, 49.0, 17.0 ],
									"fontname" : "Arial",
									"outlettype" : [ "" ],
									"fontsize" : 9.0,
									"numinlets" : 2,
									"numoutlets" : 1
								}

							}
, 							{
								"box" : 								{
									"maxclass" : "newobj",
									"text" : "t b i",
									"id" : "obj-32",
									"patching_rect" : [ 466.0, 200.0, 27.0, 17.0 ],
									"fontname" : "Arial",
									"outlettype" : [ "bang", "int" ],
									"fontsize" : 9.0,
									"numinlets" : 1,
									"numoutlets" : 2
								}

							}
, 							{
								"box" : 								{
									"maxclass" : "newobj",
									"text" : "!- 1",
									"id" : "obj-33",
									"patching_rect" : [ 392.0, 119.0, 27.0, 17.0 ],
									"fontname" : "Arial",
									"outlettype" : [ "int" ],
									"fontsize" : 9.0,
									"numinlets" : 2,
									"numoutlets" : 1
								}

							}
, 							{
								"box" : 								{
									"maxclass" : "newobj",
									"text" : ">= 0.",
									"id" : "obj-34",
									"patching_rect" : [ 392.0, 94.0, 33.0, 17.0 ],
									"fontname" : "Arial",
									"outlettype" : [ "int" ],
									"fontsize" : 9.0,
									"numinlets" : 2,
									"numoutlets" : 1
								}

							}
, 							{
								"box" : 								{
									"maxclass" : "comment",
									"text" : "switchs between end_loop and start_loop when reverse is engaged",
									"linecount" : 4,
									"id" : "obj-35",
									"patching_rect" : [ 500.0, 334.0, 100.0, 48.0 ],
									"fontname" : "Arial",
									"fontsize" : 9.0,
									"numinlets" : 1,
									"numoutlets" : 0
								}

							}
, 							{
								"box" : 								{
									"maxclass" : "outlet",
									"id" : "obj-36",
									"patching_rect" : [ 249.0, 638.0, 15.0, 15.0 ],
									"numinlets" : 1,
									"numoutlets" : 0,
									"comment" : ""
								}

							}
, 							{
								"box" : 								{
									"maxclass" : "inlet",
									"id" : "obj-37",
									"patching_rect" : [ 501.0, 51.0, 15.0, 15.0 ],
									"outlettype" : [ "float" ],
									"numinlets" : 0,
									"numoutlets" : 1,
									"comment" : ""
								}

							}
, 							{
								"box" : 								{
									"maxclass" : "comment",
									"text" : "loop_end",
									"id" : "obj-38",
									"patching_rect" : [ 510.0, 30.0, 52.0, 17.0 ],
									"fontname" : "Arial",
									"fontsize" : 9.0,
									"numinlets" : 1,
									"numoutlets" : 0
								}

							}
, 							{
								"box" : 								{
									"maxclass" : "inlet",
									"id" : "obj-39",
									"patching_rect" : [ 462.0, 51.0, 15.0, 15.0 ],
									"outlettype" : [ "float" ],
									"numinlets" : 0,
									"numoutlets" : 1,
									"comment" : ""
								}

							}
, 							{
								"box" : 								{
									"maxclass" : "inlet",
									"id" : "obj-40",
									"patching_rect" : [ 343.0, 36.0, 15.0, 15.0 ],
									"outlettype" : [ "" ],
									"numinlets" : 0,
									"numoutlets" : 1,
									"comment" : ""
								}

							}
, 							{
								"box" : 								{
									"maxclass" : "inlet",
									"id" : "obj-41",
									"patching_rect" : [ 691.0, 47.0, 15.0, 15.0 ],
									"outlettype" : [ "signal" ],
									"numinlets" : 0,
									"numoutlets" : 1,
									"comment" : ""
								}

							}
, 							{
								"box" : 								{
									"maxclass" : "inlet",
									"id" : "obj-42",
									"patching_rect" : [ 266.0, 51.0, 15.0, 15.0 ],
									"outlettype" : [ "" ],
									"numinlets" : 0,
									"numoutlets" : 1,
									"comment" : ""
								}

							}
, 							{
								"box" : 								{
									"maxclass" : "inlet",
									"id" : "obj-43",
									"patching_rect" : [ 173.0, 52.0, 15.0, 15.0 ],
									"outlettype" : [ "" ],
									"numinlets" : 0,
									"numoutlets" : 1,
									"comment" : ""
								}

							}
, 							{
								"box" : 								{
									"maxclass" : "inlet",
									"id" : "obj-44",
									"patching_rect" : [ 91.0, 49.0, 15.0, 15.0 ],
									"outlettype" : [ "" ],
									"numinlets" : 0,
									"numoutlets" : 1,
									"comment" : ""
								}

							}
, 							{
								"box" : 								{
									"maxclass" : "inlet",
									"id" : "obj-45",
									"patching_rect" : [ 13.0, 50.0, 15.0, 15.0 ],
									"outlettype" : [ "bang" ],
									"numinlets" : 0,
									"numoutlets" : 1,
									"comment" : ""
								}

							}
, 							{
								"box" : 								{
									"maxclass" : "comment",
									"text" : "stop",
									"id" : "obj-46",
									"patching_rect" : [ 9.0, 31.0, 30.0, 17.0 ],
									"fontname" : "Arial",
									"fontsize" : 9.0,
									"numinlets" : 1,
									"numoutlets" : 0
								}

							}
, 							{
								"box" : 								{
									"maxclass" : "comment",
									"text" : "fade on/off",
									"id" : "obj-47",
									"patching_rect" : [ 69.0, 29.0, 64.0, 17.0 ],
									"fontname" : "Arial",
									"fontsize" : 9.0,
									"numinlets" : 1,
									"numoutlets" : 0
								}

							}
, 							{
								"box" : 								{
									"maxclass" : "comment",
									"text" : "loop on/off",
									"id" : "obj-48",
									"patching_rect" : [ 170.0, 29.0, 60.0, 17.0 ],
									"fontname" : "Arial",
									"fontsize" : 9.0,
									"numinlets" : 1,
									"numoutlets" : 0
								}

							}
, 							{
								"box" : 								{
									"maxclass" : "comment",
									"text" : "fade time",
									"id" : "obj-49",
									"patching_rect" : [ 255.0, 30.0, 57.0, 17.0 ],
									"fontname" : "Arial",
									"fontsize" : 9.0,
									"numinlets" : 1,
									"numoutlets" : 0
								}

							}
, 							{
								"box" : 								{
									"maxclass" : "comment",
									"text" : "varispeed",
									"id" : "obj-50",
									"patching_rect" : [ 332.0, 22.0, 52.0, 17.0 ],
									"fontname" : "Arial",
									"fontsize" : 9.0,
									"numinlets" : 1,
									"numoutlets" : 0
								}

							}
, 							{
								"box" : 								{
									"maxclass" : "comment",
									"text" : "loop_start",
									"id" : "obj-51",
									"patching_rect" : [ 454.0, 31.0, 52.0, 17.0 ],
									"fontname" : "Arial",
									"fontsize" : 9.0,
									"numinlets" : 1,
									"numoutlets" : 0
								}

							}
, 							{
								"box" : 								{
									"maxclass" : "comment",
									"text" : "pos signal",
									"id" : "obj-52",
									"patching_rect" : [ 677.0, 30.0, 100.0, 17.0 ],
									"fontname" : "Arial",
									"fontsize" : 9.0,
									"numinlets" : 1,
									"numoutlets" : 0
								}

							}
, 							{
								"box" : 								{
									"maxclass" : "comment",
									"text" : "the 5 is the fadetime in samples for a regular fade out",
									"linecount" : 3,
									"id" : "obj-53",
									"patching_rect" : [ 201.0, 176.0, 100.0, 38.0 ],
									"fontname" : "Arial",
									"fontsize" : 9.0,
									"numinlets" : 1,
									"numoutlets" : 0
								}

							}
, 							{
								"box" : 								{
									"maxclass" : "comment",
									"text" : "controls which fade to do",
									"linecount" : 2,
									"id" : "obj-54",
									"patching_rect" : [ 21.0, 206.0, 67.0, 27.0 ],
									"fontname" : "Arial",
									"fontsize" : 9.0,
									"numinlets" : 1,
									"numoutlets" : 0
								}

							}
, 							{
								"box" : 								{
									"maxclass" : "comment",
									"text" : "long fade time",
									"id" : "obj-55",
									"patching_rect" : [ 178.0, 299.0, 100.0, 17.0 ],
									"fontname" : "Arial",
									"fontsize" : 9.0,
									"numinlets" : 1,
									"numoutlets" : 0
								}

							}
, 							{
								"box" : 								{
									"maxclass" : "comment",
									"text" : "ramp only triggered in one-shot mode",
									"linecount" : 2,
									"id" : "obj-56",
									"patching_rect" : [ 104.0, 542.0, 100.0, 27.0 ],
									"fontname" : "Arial",
									"fontsize" : 9.0,
									"numinlets" : 1,
									"numoutlets" : 0
								}

							}
, 							{
								"box" : 								{
									"maxclass" : "comment",
									"text" : "calculates fade point",
									"id" : "obj-57",
									"patching_rect" : [ 332.0, 394.0, 100.0, 17.0 ],
									"fontname" : "Arial",
									"fontsize" : 9.0,
									"numinlets" : 1,
									"numoutlets" : 0
								}

							}
, 							{
								"box" : 								{
									"maxclass" : "comment",
									"text" : "determines playback direction",
									"linecount" : 2,
									"id" : "obj-58",
									"patching_rect" : [ 424.0, 123.0, 100.0, 27.0 ],
									"fontname" : "Arial",
									"fontsize" : 9.0,
									"numinlets" : 1,
									"numoutlets" : 0
								}

							}
 ],
						"lines" : [ 							{
								"patchline" : 								{
									"source" : [ "obj-41", 0 ],
									"destination" : [ "obj-3", 1 ],
									"hidden" : 0,
									"midpoints" : [  ]
								}

							}
, 							{
								"patchline" : 								{
									"source" : [ "obj-32", 1 ],
									"destination" : [ "obj-3", 0 ],
									"hidden" : 0,
									"midpoints" : [ 483.5, 229.0, 663.5, 229.0 ]
								}

							}
, 							{
								"patchline" : 								{
									"source" : [ "obj-27", 0 ],
									"destination" : [ "obj-29", 2 ],
									"hidden" : 0,
									"midpoints" : [  ]
								}

							}
, 							{
								"patchline" : 								{
									"source" : [ "obj-27", 1 ],
									"destination" : [ "obj-29", 1 ],
									"hidden" : 0,
									"midpoints" : [  ]
								}

							}
, 							{
								"patchline" : 								{
									"source" : [ "obj-28", 0 ],
									"destination" : [ "obj-27", 0 ],
									"hidden" : 0,
									"midpoints" : [  ]
								}

							}
, 							{
								"patchline" : 								{
									"source" : [ "obj-31", 0 ],
									"destination" : [ "obj-28", 0 ],
									"hidden" : 0,
									"midpoints" : [ 471.5, 116.0, 546.5, 116.0 ]
								}

							}
, 							{
								"patchline" : 								{
									"source" : [ "obj-32", 0 ],
									"destination" : [ "obj-28", 0 ],
									"hidden" : 0,
									"midpoints" : [ 475.5, 225.0, 546.5, 225.0 ]
								}

							}
, 							{
								"patchline" : 								{
									"source" : [ "obj-37", 0 ],
									"destination" : [ "obj-31", 1 ],
									"hidden" : 0,
									"midpoints" : [  ]
								}

							}
, 							{
								"patchline" : 								{
									"source" : [ "obj-29", 0 ],
									"destination" : [ "obj-26", 0 ],
									"hidden" : 0,
									"midpoints" : [  ]
								}

							}
, 							{
								"patchline" : 								{
									"source" : [ "obj-25", 0 ],
									"destination" : [ "obj-29", 0 ],
									"hidden" : 0,
									"midpoints" : [ 412.5, 254.0, 492.5, 254.0 ]
								}

							}
, 							{
								"patchline" : 								{
									"source" : [ "obj-32", 1 ],
									"destination" : [ "obj-29", 0 ],
									"hidden" : 0,
									"midpoints" : [  ]
								}

							}
, 							{
								"patchline" : 								{
									"source" : [ "obj-30", 0 ],
									"destination" : [ "obj-32", 0 ],
									"hidden" : 0,
									"midpoints" : [  ]
								}

							}
, 							{
								"patchline" : 								{
									"source" : [ "obj-33", 0 ],
									"destination" : [ "obj-30", 0 ],
									"hidden" : 0,
									"midpoints" : [ 401.5, 172.0, 474.5, 172.0 ]
								}

							}
, 							{
								"patchline" : 								{
									"source" : [ "obj-39", 0 ],
									"destination" : [ "obj-31", 0 ],
									"hidden" : 0,
									"midpoints" : [  ]
								}

							}
, 							{
								"patchline" : 								{
									"source" : [ "obj-29", 0 ],
									"destination" : [ "obj-20", 1 ],
									"hidden" : 0,
									"midpoints" : [  ]
								}

							}
, 							{
								"patchline" : 								{
									"source" : [ "obj-34", 0 ],
									"destination" : [ "obj-22", 0 ],
									"hidden" : 0,
									"midpoints" : [  ]
								}

							}
, 							{
								"patchline" : 								{
									"source" : [ "obj-20", 0 ],
									"destination" : [ "obj-6", 0 ],
									"hidden" : 0,
									"midpoints" : [  ]
								}

							}
, 							{
								"patchline" : 								{
									"source" : [ "obj-20", 0 ],
									"destination" : [ "obj-2", 1 ],
									"hidden" : 0,
									"midpoints" : [  ]
								}

							}
, 							{
								"patchline" : 								{
									"source" : [ "obj-17", 1 ],
									"destination" : [ "obj-20", 0 ],
									"hidden" : 0,
									"midpoints" : [ 326.5, 379.0, 447.5, 379.0 ]
								}

							}
, 							{
								"patchline" : 								{
									"source" : [ "obj-2", 0 ],
									"destination" : [ "obj-1", 0 ],
									"hidden" : 0,
									"midpoints" : [  ]
								}

							}
, 							{
								"patchline" : 								{
									"source" : [ "obj-3", 1 ],
									"destination" : [ "obj-2", 0 ],
									"hidden" : 0,
									"midpoints" : [ 691.5, 458.0, 430.5, 458.0 ]
								}

							}
, 							{
								"patchline" : 								{
									"source" : [ "obj-34", 0 ],
									"destination" : [ "obj-33", 0 ],
									"hidden" : 0,
									"midpoints" : [  ]
								}

							}
, 							{
								"patchline" : 								{
									"source" : [ "obj-40", 0 ],
									"destination" : [ "obj-34", 0 ],
									"hidden" : 0,
									"midpoints" : [ 352.0, 72.0, 401.5, 72.0 ]
								}

							}
, 							{
								"patchline" : 								{
									"source" : [ "obj-40", 0 ],
									"destination" : [ "obj-19", 1 ],
									"hidden" : 0,
									"midpoints" : [  ]
								}

							}
, 							{
								"patchline" : 								{
									"source" : [ "obj-24", 0 ],
									"destination" : [ "obj-4", 0 ],
									"hidden" : 0,
									"midpoints" : [  ]
								}

							}
, 							{
								"patchline" : 								{
									"source" : [ "obj-24", 0 ],
									"destination" : [ "obj-17", 1 ],
									"hidden" : 0,
									"midpoints" : [  ]
								}

							}
, 							{
								"patchline" : 								{
									"source" : [ "obj-19", 0 ],
									"destination" : [ "obj-24", 0 ],
									"hidden" : 0,
									"midpoints" : [  ]
								}

							}
, 							{
								"patchline" : 								{
									"source" : [ "obj-40", 0 ],
									"destination" : [ "obj-24", 0 ],
									"hidden" : 0,
									"midpoints" : [ 352.0, 76.0, 372.0, 76.0, 372.0, 262.0, 335.5, 262.0 ]
								}

							}
, 							{
								"patchline" : 								{
									"source" : [ "obj-18", 0 ],
									"destination" : [ "obj-19", 0 ],
									"hidden" : 0,
									"midpoints" : [  ]
								}

							}
, 							{
								"patchline" : 								{
									"source" : [ "obj-39", 0 ],
									"destination" : [ "obj-18", 0 ],
									"hidden" : 0,
									"midpoints" : [  ]
								}

							}
, 							{
								"patchline" : 								{
									"source" : [ "obj-37", 0 ],
									"destination" : [ "obj-18", 0 ],
									"hidden" : 0,
									"midpoints" : [  ]
								}

							}
, 							{
								"patchline" : 								{
									"source" : [ "obj-29", 0 ],
									"destination" : [ "obj-21", 1 ],
									"hidden" : 0,
									"midpoints" : [  ]
								}

							}
, 							{
								"patchline" : 								{
									"source" : [ "obj-21", 0 ],
									"destination" : [ "obj-5", 0 ],
									"hidden" : 0,
									"midpoints" : [  ]
								}

							}
, 							{
								"patchline" : 								{
									"source" : [ "obj-21", 0 ],
									"destination" : [ "obj-16", 1 ],
									"hidden" : 0,
									"midpoints" : [  ]
								}

							}
, 							{
								"patchline" : 								{
									"source" : [ "obj-17", 0 ],
									"destination" : [ "obj-21", 0 ],
									"hidden" : 0,
									"midpoints" : [  ]
								}

							}
, 							{
								"patchline" : 								{
									"source" : [ "obj-32", 1 ],
									"destination" : [ "obj-17", 0 ],
									"hidden" : 0,
									"midpoints" : [ 483.5, 283.0, 307.5, 283.0 ]
								}

							}
, 							{
								"patchline" : 								{
									"source" : [ "obj-16", 0 ],
									"destination" : [ "obj-15", 0 ],
									"hidden" : 0,
									"midpoints" : [  ]
								}

							}
, 							{
								"patchline" : 								{
									"source" : [ "obj-3", 0 ],
									"destination" : [ "obj-16", 0 ],
									"hidden" : 0,
									"midpoints" : [ 663.5, 459.0, 290.5, 459.0 ]
								}

							}
, 							{
								"patchline" : 								{
									"source" : [ "obj-42", 0 ],
									"destination" : [ "obj-10", 1 ],
									"hidden" : 0,
									"midpoints" : [  ]
								}

							}
, 							{
								"patchline" : 								{
									"source" : [ "obj-23", 0 ],
									"destination" : [ "obj-36", 0 ],
									"hidden" : 0,
									"midpoints" : [  ]
								}

							}
, 							{
								"patchline" : 								{
									"source" : [ "obj-11", 0 ],
									"destination" : [ "obj-36", 0 ],
									"hidden" : 0,
									"midpoints" : [  ]
								}

							}
, 							{
								"patchline" : 								{
									"source" : [ "obj-10", 0 ],
									"destination" : [ "obj-11", 0 ],
									"hidden" : 0,
									"midpoints" : [  ]
								}

							}
, 							{
								"patchline" : 								{
									"source" : [ "obj-13", 1 ],
									"destination" : [ "obj-10", 0 ],
									"hidden" : 0,
									"midpoints" : [ 119.5, 267.0, 258.5, 267.0 ]
								}

							}
, 							{
								"patchline" : 								{
									"source" : [ "obj-1", 0 ],
									"destination" : [ "obj-14", 1 ],
									"hidden" : 0,
									"midpoints" : [ 430.5, 540.0, 192.5, 540.0 ]
								}

							}
, 							{
								"patchline" : 								{
									"source" : [ "obj-15", 0 ],
									"destination" : [ "obj-14", 1 ],
									"hidden" : 0,
									"midpoints" : [ 290.5, 537.0, 192.5, 537.0 ]
								}

							}
, 							{
								"patchline" : 								{
									"source" : [ "obj-7", 0 ],
									"destination" : [ "obj-14", 0 ],
									"hidden" : 0,
									"midpoints" : [  ]
								}

							}
, 							{
								"patchline" : 								{
									"source" : [ "obj-43", 0 ],
									"destination" : [ "obj-7", 0 ],
									"hidden" : 0,
									"midpoints" : [  ]
								}

							}
, 							{
								"patchline" : 								{
									"source" : [ "obj-45", 0 ],
									"destination" : [ "obj-9", 1 ],
									"hidden" : 0,
									"midpoints" : [ 22.0, 157.0, 147.5, 157.0 ]
								}

							}
, 							{
								"patchline" : 								{
									"source" : [ "obj-9", 0 ],
									"destination" : [ "obj-13", 1 ],
									"hidden" : 0,
									"midpoints" : [  ]
								}

							}
, 							{
								"patchline" : 								{
									"source" : [ "obj-8", 0 ],
									"destination" : [ "obj-9", 0 ],
									"hidden" : 0,
									"midpoints" : [  ]
								}

							}
, 							{
								"patchline" : 								{
									"source" : [ "obj-7", 0 ],
									"destination" : [ "obj-8", 0 ],
									"hidden" : 0,
									"midpoints" : [  ]
								}

							}
, 							{
								"patchline" : 								{
									"source" : [ "obj-13", 0 ],
									"destination" : [ "obj-23", 0 ],
									"hidden" : 0,
									"midpoints" : [  ]
								}

							}
, 							{
								"patchline" : 								{
									"source" : [ "obj-14", 0 ],
									"destination" : [ "obj-23", 0 ],
									"hidden" : 0,
									"midpoints" : [  ]
								}

							}
, 							{
								"patchline" : 								{
									"source" : [ "obj-9", 1 ],
									"destination" : [ "obj-23", 0 ],
									"hidden" : 0,
									"midpoints" : [ 147.5, 391.0, 100.5, 391.0 ]
								}

							}
, 							{
								"patchline" : 								{
									"source" : [ "obj-12", 0 ],
									"destination" : [ "obj-13", 0 ],
									"hidden" : 0,
									"midpoints" : [  ]
								}

							}
, 							{
								"patchline" : 								{
									"source" : [ "obj-44", 0 ],
									"destination" : [ "obj-12", 0 ],
									"hidden" : 0,
									"midpoints" : [  ]
								}

							}
 ]
					}
,
					"saved_object_attributes" : 					{
						"fontname" : "Arial",
						"default_fontface" : 0,
						"default_fontname" : "Arial",
						"globalpatchername" : "",
						"fontface" : 0,
						"fontsize" : 12.0,
						"default_fontsize" : 12.0
					}

				}

			}
, 			{
				"box" : 				{
					"maxclass" : "newobj",
					"text" : "p fadein",
					"id" : "obj-4",
					"patching_rect" : [ 533.0, 455.0, 145.0, 17.0 ],
					"fontname" : "Arial",
					"outlettype" : [ "" ],
					"fontsize" : 9.0,
					"numinlets" : 4,
					"numoutlets" : 1,
					"patcher" : 					{
						"fileversion" : 1,
						"rect" : [ 461.0, 209.0, 600.0, 426.0 ],
						"bglocked" : 0,
						"defrect" : [ 461.0, 209.0, 600.0, 426.0 ],
						"openrect" : [ 0.0, 0.0, 0.0, 0.0 ],
						"openinpresentation" : 0,
						"default_fontsize" : 12.0,
						"default_fontface" : 0,
						"default_fontname" : "Arial",
						"gridonopen" : 0,
						"gridsize" : [ 15.0, 15.0 ],
						"gridsnaponopen" : 0,
						"toolbarvisible" : 1,
						"boxanimatetime" : 200,
						"imprint" : 0,
						"enablehscroll" : 1,
						"enablevscroll" : 1,
						"devicewidth" : 0.0,
						"boxes" : [ 							{
								"box" : 								{
									"maxclass" : "newobj",
									"text" : "loadmess 1",
									"id" : "obj-1",
									"patching_rect" : [ 169.0, 50.0, 60.0, 17.0 ],
									"fontname" : "Arial",
									"outlettype" : [ "" ],
									"fontsize" : 9.0,
									"numinlets" : 1,
									"numoutlets" : 1
								}

							}
, 							{
								"box" : 								{
									"maxclass" : "newobj",
									"text" : "+ 1",
									"id" : "obj-2",
									"patching_rect" : [ 122.0, 146.0, 27.0, 17.0 ],
									"fontname" : "Arial",
									"outlettype" : [ "int" ],
									"fontsize" : 9.0,
									"numinlets" : 2,
									"numoutlets" : 1
								}

							}
, 							{
								"box" : 								{
									"maxclass" : "newobj",
									"text" : "gate 2",
									"id" : "obj-3",
									"patching_rect" : [ 273.0, 200.0, 38.0, 17.0 ],
									"fontname" : "Arial",
									"outlettype" : [ "", "" ],
									"fontsize" : 9.0,
									"numinlets" : 2,
									"numoutlets" : 2
								}

							}
, 							{
								"box" : 								{
									"maxclass" : "newobj",
									"text" : "+ 1",
									"id" : "obj-4",
									"patching_rect" : [ 262.0, 106.0, 27.0, 17.0 ],
									"fontname" : "Arial",
									"outlettype" : [ "int" ],
									"fontsize" : 9.0,
									"numinlets" : 2,
									"numoutlets" : 1
								}

							}
, 							{
								"box" : 								{
									"maxclass" : "newobj",
									"text" : "gate 2",
									"id" : "obj-5",
									"patching_rect" : [ 262.0, 132.0, 38.0, 17.0 ],
									"fontname" : "Arial",
									"outlettype" : [ "", "" ],
									"fontsize" : 9.0,
									"numinlets" : 2,
									"numoutlets" : 2
								}

							}
, 							{
								"box" : 								{
									"maxclass" : "inlet",
									"id" : "obj-6",
									"patching_rect" : [ 122.0, 86.0, 15.0, 15.0 ],
									"outlettype" : [ "" ],
									"numinlets" : 0,
									"numoutlets" : 1,
									"comment" : ""
								}

							}
, 							{
								"box" : 								{
									"maxclass" : "inlet",
									"id" : "obj-7",
									"patching_rect" : [ 263.0, 49.0, 15.0, 15.0 ],
									"outlettype" : [ "" ],
									"numinlets" : 0,
									"numoutlets" : 1,
									"comment" : ""
								}

							}
, 							{
								"box" : 								{
									"maxclass" : "message",
									"text" : "1. 5 0.5",
									"id" : "obj-8",
									"patching_rect" : [ 125.0, 258.0, 49.0, 15.0 ],
									"fontname" : "Arial",
									"outlettype" : [ "" ],
									"fontsize" : 9.0,
									"numinlets" : 2,
									"numoutlets" : 1
								}

							}
, 							{
								"box" : 								{
									"maxclass" : "outlet",
									"id" : "obj-9",
									"patching_rect" : [ 359.0, 296.0, 15.0, 15.0 ],
									"numinlets" : 1,
									"numoutlets" : 0,
									"comment" : ""
								}

							}
, 							{
								"box" : 								{
									"maxclass" : "newobj",
									"text" : "int",
									"id" : "obj-10",
									"patching_rect" : [ 359.0, 233.0, 27.0, 17.0 ],
									"fontname" : "Arial",
									"outlettype" : [ "int" ],
									"fontsize" : 9.0,
									"numinlets" : 2,
									"numoutlets" : 1
								}

							}
, 							{
								"box" : 								{
									"maxclass" : "message",
									"text" : "1 $1 0.5",
									"id" : "obj-11",
									"patching_rect" : [ 359.0, 271.0, 49.0, 15.0 ],
									"fontname" : "Arial",
									"outlettype" : [ "" ],
									"fontsize" : 9.0,
									"numinlets" : 2,
									"numoutlets" : 1
								}

							}
, 							{
								"box" : 								{
									"maxclass" : "inlet",
									"id" : "obj-12",
									"patching_rect" : [ 34.0, 87.0, 15.0, 15.0 ],
									"outlettype" : [ "bang" ],
									"numinlets" : 0,
									"numoutlets" : 1,
									"comment" : ""
								}

							}
, 							{
								"box" : 								{
									"maxclass" : "inlet",
									"id" : "obj-13",
									"patching_rect" : [ 376.0, 87.0, 15.0, 15.0 ],
									"outlettype" : [ "" ],
									"numinlets" : 0,
									"numoutlets" : 1,
									"comment" : ""
								}

							}
, 							{
								"box" : 								{
									"maxclass" : "comment",
									"text" : "loop on/off",
									"id" : "obj-14",
									"patching_rect" : [ 258.0, 35.0, 100.0, 17.0 ],
									"fontname" : "Arial",
									"fontsize" : 9.0,
									"numinlets" : 1,
									"numoutlets" : 0
								}

							}
, 							{
								"box" : 								{
									"maxclass" : "comment",
									"text" : "fade time",
									"id" : "obj-15",
									"patching_rect" : [ 369.0, 73.0, 100.0, 17.0 ],
									"fontname" : "Arial",
									"fontsize" : 9.0,
									"numinlets" : 1,
									"numoutlets" : 0
								}

							}
, 							{
								"box" : 								{
									"maxclass" : "comment",
									"text" : "start",
									"id" : "obj-16",
									"patching_rect" : [ 33.0, 74.0, 38.0, 17.0 ],
									"fontname" : "Arial",
									"fontsize" : 9.0,
									"numinlets" : 1,
									"numoutlets" : 0
								}

							}
, 							{
								"box" : 								{
									"maxclass" : "comment",
									"text" : "fade on/off",
									"id" : "obj-17",
									"patching_rect" : [ 107.0, 72.0, 60.0, 17.0 ],
									"fontname" : "Arial",
									"fontsize" : 9.0,
									"numinlets" : 1,
									"numoutlets" : 0
								}

							}
, 							{
								"box" : 								{
									"maxclass" : "comment",
									"text" : "if loop is off automatically do a short fadein",
									"linecount" : 3,
									"id" : "obj-18",
									"patching_rect" : [ 304.0, 133.0, 100.0, 38.0 ],
									"fontname" : "Arial",
									"fontsize" : 9.0,
									"numinlets" : 1,
									"numoutlets" : 0
								}

							}
, 							{
								"box" : 								{
									"maxclass" : "comment",
									"text" : "if fade is on create fade otherwise do a short fadein",
									"linecount" : 3,
									"id" : "obj-19",
									"patching_rect" : [ 185.0, 193.0, 100.0, 38.0 ],
									"fontname" : "Arial",
									"fontsize" : 9.0,
									"numinlets" : 1,
									"numoutlets" : 0
								}

							}
 ],
						"lines" : [ 							{
								"patchline" : 								{
									"source" : [ "obj-13", 0 ],
									"destination" : [ "obj-10", 1 ],
									"hidden" : 0,
									"midpoints" : [  ]
								}

							}
, 							{
								"patchline" : 								{
									"source" : [ "obj-8", 0 ],
									"destination" : [ "obj-9", 0 ],
									"hidden" : 0,
									"midpoints" : [  ]
								}

							}
, 							{
								"patchline" : 								{
									"source" : [ "obj-11", 0 ],
									"destination" : [ "obj-9", 0 ],
									"hidden" : 0,
									"midpoints" : [  ]
								}

							}
, 							{
								"patchline" : 								{
									"source" : [ "obj-10", 0 ],
									"destination" : [ "obj-11", 0 ],
									"hidden" : 0,
									"midpoints" : [  ]
								}

							}
, 							{
								"patchline" : 								{
									"source" : [ "obj-3", 1 ],
									"destination" : [ "obj-10", 0 ],
									"hidden" : 0,
									"midpoints" : [  ]
								}

							}
, 							{
								"patchline" : 								{
									"source" : [ "obj-5", 1 ],
									"destination" : [ "obj-3", 1 ],
									"hidden" : 0,
									"midpoints" : [  ]
								}

							}
, 							{
								"patchline" : 								{
									"source" : [ "obj-12", 0 ],
									"destination" : [ "obj-5", 1 ],
									"hidden" : 0,
									"midpoints" : [  ]
								}

							}
, 							{
								"patchline" : 								{
									"source" : [ "obj-2", 0 ],
									"destination" : [ "obj-3", 0 ],
									"hidden" : 0,
									"midpoints" : [  ]
								}

							}
, 							{
								"patchline" : 								{
									"source" : [ "obj-4", 0 ],
									"destination" : [ "obj-5", 0 ],
									"hidden" : 0,
									"midpoints" : [  ]
								}

							}
, 							{
								"patchline" : 								{
									"source" : [ "obj-1", 0 ],
									"destination" : [ "obj-4", 0 ],
									"hidden" : 0,
									"midpoints" : [  ]
								}

							}
, 							{
								"patchline" : 								{
									"source" : [ "obj-7", 0 ],
									"destination" : [ "obj-4", 0 ],
									"hidden" : 0,
									"midpoints" : [  ]
								}

							}
, 							{
								"patchline" : 								{
									"source" : [ "obj-3", 0 ],
									"destination" : [ "obj-8", 0 ],
									"hidden" : 0,
									"midpoints" : [  ]
								}

							}
, 							{
								"patchline" : 								{
									"source" : [ "obj-5", 0 ],
									"destination" : [ "obj-8", 0 ],
									"hidden" : 0,
									"midpoints" : [  ]
								}

							}
, 							{
								"patchline" : 								{
									"source" : [ "obj-6", 0 ],
									"destination" : [ "obj-2", 0 ],
									"hidden" : 0,
									"midpoints" : [  ]
								}

							}
, 							{
								"patchline" : 								{
									"source" : [ "obj-1", 0 ],
									"destination" : [ "obj-2", 0 ],
									"hidden" : 0,
									"midpoints" : [  ]
								}

							}
 ]
					}
,
					"saved_object_attributes" : 					{
						"fontname" : "Arial",
						"default_fontface" : 0,
						"default_fontname" : "Arial",
						"globalpatchername" : "",
						"fontface" : 0,
						"fontsize" : 12.0,
						"default_fontsize" : 12.0
					}

				}

			}
, 			{
				"box" : 				{
					"maxclass" : "newobj",
					"text" : "curve~",
					"id" : "obj-5",
					"patching_rect" : [ 176.0, 551.0, 42.0, 17.0 ],
					"fontname" : "Arial",
					"outlettype" : [ "signal", "bang" ],
					"fontsize" : 9.0,
					"numinlets" : 3,
					"numoutlets" : 2
				}

			}
, 			{
				"box" : 				{
					"maxclass" : "inlet",
					"id" : "obj-6",
					"patching_rect" : [ 668.0, 322.0, 15.0, 15.0 ],
					"outlettype" : [ "" ],
					"numinlets" : 0,
					"numoutlets" : 1,
					"comment" : "fadetime"
				}

			}
, 			{
				"box" : 				{
					"maxclass" : "comment",
					"text" : "fade_time",
					"id" : "obj-7",
					"patching_rect" : [ 683.0, 323.0, 50.0, 17.0 ],
					"fontname" : "Arial",
					"fontsize" : 9.0,
					"numinlets" : 1,
					"numoutlets" : 0
				}

			}
, 			{
				"box" : 				{
					"maxclass" : "newobj",
					"text" : "prepend pos",
					"id" : "obj-8",
					"patching_rect" : [ 663.0, 281.0, 63.0, 17.0 ],
					"fontname" : "Arial",
					"outlettype" : [ "" ],
					"fontsize" : 9.0,
					"numinlets" : 1,
					"numoutlets" : 1
				}

			}
, 			{
				"box" : 				{
					"maxclass" : "newobj",
					"text" : "f 0.",
					"id" : "obj-9",
					"patching_rect" : [ 663.0, 257.0, 27.0, 17.0 ],
					"fontname" : "Arial",
					"outlettype" : [ "float" ],
					"fontsize" : 9.0,
					"numinlets" : 2,
					"numoutlets" : 1
				}

			}
, 			{
				"box" : 				{
					"maxclass" : "newobj",
					"text" : "t b b b",
					"id" : "obj-10",
					"patching_rect" : [ 597.0, 217.0, 76.0, 17.0 ],
					"fontname" : "Arial",
					"outlettype" : [ "bang", "bang", "bang" ],
					"fontsize" : 9.0,
					"numinlets" : 1,
					"numoutlets" : 3
				}

			}
, 			{
				"box" : 				{
					"maxclass" : "message",
					"text" : "start",
					"id" : "obj-11",
					"patching_rect" : [ 630.0, 258.0, 29.0, 15.0 ],
					"fontname" : "Arial",
					"outlettype" : [ "" ],
					"fontsize" : 9.0,
					"numinlets" : 2,
					"numoutlets" : 1
				}

			}
, 			{
				"box" : 				{
					"maxclass" : "newobj",
					"text" : "sel 1 0",
					"id" : "obj-12",
					"patching_rect" : [ 597.0, 195.0, 155.0, 17.0 ],
					"fontname" : "Arial",
					"outlettype" : [ "bang", "bang", "" ],
					"fontsize" : 9.0,
					"numinlets" : 1,
					"numoutlets" : 3
				}

			}
, 			{
				"box" : 				{
					"maxclass" : "newobj",
					"text" : "p starting_pos",
					"id" : "obj-13",
					"patching_rect" : [ 358.0, 199.0, 75.0, 17.0 ],
					"fontname" : "Arial",
					"outlettype" : [ "float" ],
					"fontsize" : 9.0,
					"numinlets" : 3,
					"numoutlets" : 1,
					"patcher" : 					{
						"fileversion" : 1,
						"rect" : [ 437.0, 324.0, 629.0, 472.0 ],
						"bglocked" : 0,
						"defrect" : [ 437.0, 324.0, 629.0, 472.0 ],
						"openrect" : [ 0.0, 0.0, 0.0, 0.0 ],
						"openinpresentation" : 0,
						"default_fontsize" : 12.0,
						"default_fontface" : 0,
						"default_fontname" : "Arial",
						"gridonopen" : 0,
						"gridsize" : [ 15.0, 15.0 ],
						"gridsnaponopen" : 0,
						"toolbarvisible" : 1,
						"boxanimatetime" : 200,
						"imprint" : 0,
						"enablehscroll" : 1,
						"enablevscroll" : 1,
						"devicewidth" : 0.0,
						"boxes" : [ 							{
								"box" : 								{
									"maxclass" : "outlet",
									"id" : "obj-1",
									"patching_rect" : [ 428.0, 344.0, 15.0, 15.0 ],
									"numinlets" : 1,
									"numoutlets" : 0,
									"comment" : "start_pos (ms)"
								}

							}
, 							{
								"box" : 								{
									"maxclass" : "newobj",
									"text" : "loadmess 1",
									"id" : "obj-2",
									"patching_rect" : [ 348.0, 221.0, 60.0, 17.0 ],
									"fontname" : "Arial",
									"outlettype" : [ "" ],
									"fontsize" : 9.0,
									"numinlets" : 1,
									"numoutlets" : 1
								}

							}
, 							{
								"box" : 								{
									"maxclass" : "flonum",
									"id" : "obj-3",
									"patching_rect" : [ 428.0, 311.0, 35.0, 17.0 ],
									"fontname" : "Arial",
									"outlettype" : [ "float", "bang" ],
									"htextcolor" : [ 0.870588, 0.870588, 0.870588, 1.0 ],
									"bgcolor" : [ 0.866667, 0.866667, 0.866667, 1.0 ],
									"fontsize" : 9.0,
									"triscale" : 0.9,
									"numinlets" : 1,
									"numoutlets" : 2
								}

							}
, 							{
								"box" : 								{
									"maxclass" : "newobj",
									"text" : "unpack 0. 0.",
									"id" : "obj-4",
									"patching_rect" : [ 482.0, 254.0, 64.0, 17.0 ],
									"fontname" : "Arial",
									"outlettype" : [ "float", "float" ],
									"fontsize" : 9.0,
									"numinlets" : 1,
									"numoutlets" : 2
								}

							}
, 							{
								"box" : 								{
									"maxclass" : "newobj",
									"text" : "zl reg",
									"id" : "obj-5",
									"patching_rect" : [ 482.0, 227.0, 36.0, 17.0 ],
									"fontname" : "Arial",
									"outlettype" : [ "", "" ],
									"fontsize" : 9.0,
									"numinlets" : 2,
									"numoutlets" : 2
								}

							}
, 							{
								"box" : 								{
									"maxclass" : "newobj",
									"text" : "switch",
									"id" : "obj-6",
									"patching_rect" : [ 428.0, 286.0, 118.0, 17.0 ],
									"fontname" : "Arial",
									"outlettype" : [ "" ],
									"fontsize" : 9.0,
									"numinlets" : 3,
									"numoutlets" : 1
								}

							}
, 							{
								"box" : 								{
									"maxclass" : "newobj",
									"text" : "+ 1",
									"id" : "obj-7",
									"patching_rect" : [ 410.0, 173.0, 27.0, 17.0 ],
									"fontname" : "Arial",
									"outlettype" : [ "int" ],
									"fontsize" : 9.0,
									"numinlets" : 2,
									"numoutlets" : 1
								}

							}
, 							{
								"box" : 								{
									"maxclass" : "newobj",
									"text" : "pak 0. 0.",
									"id" : "obj-8",
									"patching_rect" : [ 272.0, 95.0, 49.0, 17.0 ],
									"fontname" : "Arial",
									"outlettype" : [ "" ],
									"fontsize" : 9.0,
									"numinlets" : 2,
									"numoutlets" : 1
								}

							}
, 							{
								"box" : 								{
									"maxclass" : "flonum",
									"id" : "obj-9",
									"patching_rect" : [ 307.0, 147.0, 35.0, 17.0 ],
									"fontname" : "Arial",
									"outlettype" : [ "float", "bang" ],
									"htextcolor" : [ 0.870588, 0.870588, 0.870588, 1.0 ],
									"bgcolor" : [ 0.866667, 0.866667, 0.866667, 1.0 ],
									"fontsize" : 9.0,
									"triscale" : 0.9,
									"numinlets" : 1,
									"numoutlets" : 2
								}

							}
, 							{
								"box" : 								{
									"maxclass" : "flonum",
									"id" : "obj-10",
									"patching_rect" : [ 37.0, 44.0, 35.0, 17.0 ],
									"fontname" : "Arial",
									"outlettype" : [ "float", "bang" ],
									"htextcolor" : [ 0.870588, 0.870588, 0.870588, 1.0 ],
									"bgcolor" : [ 0.866667, 0.866667, 0.866667, 1.0 ],
									"fontsize" : 9.0,
									"triscale" : 0.9,
									"numinlets" : 1,
									"numoutlets" : 2
								}

							}
, 							{
								"box" : 								{
									"maxclass" : "flonum",
									"id" : "obj-11",
									"patching_rect" : [ 178.0, 62.0, 35.0, 17.0 ],
									"fontname" : "Arial",
									"outlettype" : [ "float", "bang" ],
									"htextcolor" : [ 0.870588, 0.870588, 0.870588, 1.0 ],
									"bgcolor" : [ 0.866667, 0.866667, 0.866667, 1.0 ],
									"fontsize" : 9.0,
									"triscale" : 0.9,
									"numinlets" : 1,
									"numoutlets" : 2
								}

							}
, 							{
								"box" : 								{
									"maxclass" : "flonum",
									"id" : "obj-12",
									"patching_rect" : [ 419.0, 51.0, 35.0, 17.0 ],
									"fontname" : "Arial",
									"outlettype" : [ "float", "bang" ],
									"htextcolor" : [ 0.870588, 0.870588, 0.870588, 1.0 ],
									"bgcolor" : [ 0.866667, 0.866667, 0.866667, 1.0 ],
									"fontsize" : 9.0,
									"triscale" : 0.9,
									"numinlets" : 1,
									"numoutlets" : 2
								}

							}
, 							{
								"box" : 								{
									"maxclass" : "newobj",
									"text" : "t b i",
									"id" : "obj-13",
									"patching_rect" : [ 411.0, 193.0, 27.0, 17.0 ],
									"fontname" : "Arial",
									"outlettype" : [ "bang", "int" ],
									"fontsize" : 9.0,
									"numinlets" : 1,
									"numoutlets" : 2
								}

							}
, 							{
								"box" : 								{
									"maxclass" : "newobj",
									"text" : "!- 1.",
									"id" : "obj-14",
									"patching_rect" : [ 272.0, 118.0, 30.0, 17.0 ],
									"fontname" : "Arial",
									"outlettype" : [ "float" ],
									"fontsize" : 9.0,
									"numinlets" : 2,
									"numoutlets" : 1
								}

							}
, 							{
								"box" : 								{
									"maxclass" : "inlet",
									"id" : "obj-15",
									"patching_rect" : [ 311.0, 59.0, 15.0, 15.0 ],
									"outlettype" : [ "float" ],
									"numinlets" : 0,
									"numoutlets" : 1,
									"comment" : ""
								}

							}
, 							{
								"box" : 								{
									"maxclass" : "inlet",
									"id" : "obj-16",
									"patching_rect" : [ 272.0, 59.0, 15.0, 15.0 ],
									"outlettype" : [ "float" ],
									"numinlets" : 0,
									"numoutlets" : 1,
									"comment" : ""
								}

							}
, 							{
								"box" : 								{
									"maxclass" : "newobj",
									"text" : "!- 1",
									"id" : "obj-17",
									"patching_rect" : [ 82.0, 121.0, 27.0, 17.0 ],
									"fontname" : "Arial",
									"outlettype" : [ "int" ],
									"fontsize" : 9.0,
									"numinlets" : 2,
									"numoutlets" : 1
								}

							}
, 							{
								"box" : 								{
									"maxclass" : "newobj",
									"text" : ">= 0.",
									"id" : "obj-18",
									"patching_rect" : [ 82.0, 96.0, 33.0, 17.0 ],
									"fontname" : "Arial",
									"outlettype" : [ "int" ],
									"fontsize" : 9.0,
									"numinlets" : 2,
									"numoutlets" : 1
								}

							}
, 							{
								"box" : 								{
									"maxclass" : "inlet",
									"id" : "obj-19",
									"patching_rect" : [ 82.0, 48.0, 15.0, 15.0 ],
									"outlettype" : [ "" ],
									"numinlets" : 0,
									"numoutlets" : 1,
									"comment" : ""
								}

							}
, 							{
								"box" : 								{
									"maxclass" : "comment",
									"text" : "start_loop(ms)",
									"id" : "obj-20",
									"patching_rect" : [ 220.0, 43.0, 74.0, 17.0 ],
									"fontname" : "Arial",
									"fontsize" : 9.0,
									"numinlets" : 1,
									"numoutlets" : 0
								}

							}
, 							{
								"box" : 								{
									"maxclass" : "comment",
									"text" : "stop_loop(ms)",
									"id" : "obj-21",
									"patching_rect" : [ 309.0, 35.0, 100.0, 17.0 ],
									"fontname" : "Arial",
									"fontsize" : 9.0,
									"numinlets" : 1,
									"numoutlets" : 0
								}

							}
, 							{
								"box" : 								{
									"maxclass" : "comment",
									"text" : "vari",
									"id" : "obj-22",
									"patching_rect" : [ 72.0, 34.0, 100.0, 17.0 ],
									"fontname" : "Arial",
									"fontsize" : 9.0,
									"numinlets" : 1,
									"numoutlets" : 0
								}

							}
, 							{
								"box" : 								{
									"maxclass" : "comment",
									"text" : "switchs between start_loop and end_loop when reverse is engaged",
									"linecount" : 4,
									"id" : "obj-23",
									"patching_rect" : [ 326.0, 254.0, 100.0, 48.0 ],
									"fontname" : "Arial",
									"fontsize" : 9.0,
									"numinlets" : 1,
									"numoutlets" : 0
								}

							}
 ],
						"lines" : [ 							{
								"patchline" : 								{
									"source" : [ "obj-4", 1 ],
									"destination" : [ "obj-6", 2 ],
									"hidden" : 0,
									"midpoints" : [  ]
								}

							}
, 							{
								"patchline" : 								{
									"source" : [ "obj-4", 0 ],
									"destination" : [ "obj-6", 1 ],
									"hidden" : 0,
									"midpoints" : [  ]
								}

							}
, 							{
								"patchline" : 								{
									"source" : [ "obj-5", 0 ],
									"destination" : [ "obj-4", 0 ],
									"hidden" : 0,
									"midpoints" : [  ]
								}

							}
, 							{
								"patchline" : 								{
									"source" : [ "obj-13", 0 ],
									"destination" : [ "obj-5", 0 ],
									"hidden" : 0,
									"midpoints" : [ 420.5, 218.0, 491.5, 218.0 ]
								}

							}
, 							{
								"patchline" : 								{
									"source" : [ "obj-8", 0 ],
									"destination" : [ "obj-5", 0 ],
									"hidden" : 0,
									"midpoints" : [ 281.5, 114.0, 491.5, 114.0 ]
								}

							}
, 							{
								"patchline" : 								{
									"source" : [ "obj-3", 0 ],
									"destination" : [ "obj-1", 0 ],
									"hidden" : 0,
									"midpoints" : [  ]
								}

							}
, 							{
								"patchline" : 								{
									"source" : [ "obj-6", 0 ],
									"destination" : [ "obj-3", 0 ],
									"hidden" : 0,
									"midpoints" : [  ]
								}

							}
, 							{
								"patchline" : 								{
									"source" : [ "obj-2", 0 ],
									"destination" : [ "obj-6", 0 ],
									"hidden" : 0,
									"midpoints" : [ 357.5, 247.0, 437.5, 247.0 ]
								}

							}
, 							{
								"patchline" : 								{
									"source" : [ "obj-13", 1 ],
									"destination" : [ "obj-6", 0 ],
									"hidden" : 0,
									"midpoints" : [  ]
								}

							}
, 							{
								"patchline" : 								{
									"source" : [ "obj-7", 0 ],
									"destination" : [ "obj-13", 0 ],
									"hidden" : 0,
									"midpoints" : [  ]
								}

							}
, 							{
								"patchline" : 								{
									"source" : [ "obj-17", 0 ],
									"destination" : [ "obj-7", 0 ],
									"hidden" : 0,
									"midpoints" : [ 91.5, 165.0, 419.5, 165.0 ]
								}

							}
, 							{
								"patchline" : 								{
									"source" : [ "obj-15", 0 ],
									"destination" : [ "obj-8", 1 ],
									"hidden" : 0,
									"midpoints" : [  ]
								}

							}
, 							{
								"patchline" : 								{
									"source" : [ "obj-12", 0 ],
									"destination" : [ "obj-8", 1 ],
									"hidden" : 0,
									"midpoints" : [  ]
								}

							}
, 							{
								"patchline" : 								{
									"source" : [ "obj-14", 0 ],
									"destination" : [ "obj-9", 0 ],
									"hidden" : 0,
									"midpoints" : [  ]
								}

							}
, 							{
								"patchline" : 								{
									"source" : [ "obj-8", 0 ],
									"destination" : [ "obj-14", 0 ],
									"hidden" : 0,
									"midpoints" : [  ]
								}

							}
, 							{
								"patchline" : 								{
									"source" : [ "obj-16", 0 ],
									"destination" : [ "obj-8", 0 ],
									"hidden" : 0,
									"midpoints" : [  ]
								}

							}
, 							{
								"patchline" : 								{
									"source" : [ "obj-11", 0 ],
									"destination" : [ "obj-8", 0 ],
									"hidden" : 0,
									"midpoints" : [  ]
								}

							}
, 							{
								"patchline" : 								{
									"source" : [ "obj-18", 0 ],
									"destination" : [ "obj-17", 0 ],
									"hidden" : 0,
									"midpoints" : [  ]
								}

							}
, 							{
								"patchline" : 								{
									"source" : [ "obj-19", 0 ],
									"destination" : [ "obj-18", 0 ],
									"hidden" : 0,
									"midpoints" : [  ]
								}

							}
, 							{
								"patchline" : 								{
									"source" : [ "obj-10", 0 ],
									"destination" : [ "obj-18", 0 ],
									"hidden" : 0,
									"midpoints" : [  ]
								}

							}
 ]
					}
,
					"saved_object_attributes" : 					{
						"fontname" : "Arial",
						"default_fontface" : 0,
						"default_fontname" : "Arial",
						"globalpatchername" : "",
						"fontface" : 0,
						"fontsize" : 12.0,
						"default_fontsize" : 12.0
					}

				}

			}
, 			{
				"box" : 				{
					"maxclass" : "newobj",
					"text" : "r xgroove_settings",
					"id" : "obj-14",
					"patching_rect" : [ 1.0, 409.0, 97.0, 17.0 ],
					"fontname" : "Arial",
					"outlettype" : [ "" ],
					"fontsize" : 9.0,
					"numinlets" : 0,
					"numoutlets" : 1
				}

			}
, 			{
				"box" : 				{
					"maxclass" : "comment",
					"text" : "start/stop",
					"id" : "obj-15",
					"patching_rect" : [ 597.0, 158.0, 100.0, 17.0 ],
					"fontname" : "Arial",
					"fontsize" : 9.0,
					"numinlets" : 1,
					"numoutlets" : 0
				}

			}
, 			{
				"box" : 				{
					"maxclass" : "message",
					"text" : "loop $1",
					"id" : "obj-16",
					"patching_rect" : [ 119.0, 152.0, 43.0, 15.0 ],
					"fontname" : "Arial",
					"outlettype" : [ "" ],
					"fontsize" : 9.0,
					"numinlets" : 2,
					"numoutlets" : 1
				}

			}
, 			{
				"box" : 				{
					"maxclass" : "inlet",
					"id" : "obj-17",
					"patching_rect" : [ 84.0, 101.0, 15.0, 15.0 ],
					"outlettype" : [ "" ],
					"numinlets" : 0,
					"numoutlets" : 1,
					"comment" : ""
				}

			}
, 			{
				"box" : 				{
					"maxclass" : "inlet",
					"id" : "obj-18",
					"patching_rect" : [ 465.0, 160.0, 15.0, 15.0 ],
					"outlettype" : [ "" ],
					"numinlets" : 0,
					"numoutlets" : 1,
					"comment" : "varispeed"
				}

			}
, 			{
				"box" : 				{
					"maxclass" : "newobj",
					"text" : "*~ 1.",
					"id" : "obj-19",
					"patching_rect" : [ 119.0, 583.0, 35.0, 17.0 ],
					"fontname" : "Arial",
					"outlettype" : [ "signal" ],
					"fontsize" : 9.0,
					"numinlets" : 2,
					"numoutlets" : 1
				}

			}
, 			{
				"box" : 				{
					"maxclass" : "newobj",
					"text" : "xgroove~ 1 A",
					"id" : "obj-20",
					"patching_rect" : [ 119.0, 457.0, 79.0, 17.0 ],
					"fontname" : "Arial",
					"outlettype" : [ "signal", "signal", "float", "float", "symbol", "" ],
					"fontsize" : 9.0,
					"numinlets" : 3,
					"numoutlets" : 6
				}

			}
, 			{
				"box" : 				{
					"maxclass" : "newobj",
					"text" : "sig~",
					"id" : "obj-21",
					"patching_rect" : [ 465.0, 199.0, 30.0, 17.0 ],
					"fontname" : "Arial",
					"outlettype" : [ "signal" ],
					"fontsize" : 9.0,
					"numinlets" : 1,
					"numoutlets" : 1
				}

			}
, 			{
				"box" : 				{
					"maxclass" : "inlet",
					"id" : "obj-22",
					"patching_rect" : [ 345.0, 71.0, 15.0, 15.0 ],
					"outlettype" : [ "" ],
					"numinlets" : 0,
					"numoutlets" : 1,
					"comment" : "loopend"
				}

			}
, 			{
				"box" : 				{
					"maxclass" : "inlet",
					"id" : "obj-23",
					"patching_rect" : [ 282.0, 71.0, 15.0, 15.0 ],
					"outlettype" : [ "" ],
					"numinlets" : 0,
					"numoutlets" : 1,
					"comment" : "loopstart"
				}

			}
, 			{
				"box" : 				{
					"maxclass" : "inlet",
					"id" : "obj-24",
					"patching_rect" : [ 168.0, 101.0, 15.0, 15.0 ],
					"outlettype" : [ "" ],
					"numinlets" : 0,
					"numoutlets" : 1,
					"comment" : "loop (on/off)"
				}

			}
, 			{
				"box" : 				{
					"maxclass" : "inlet",
					"id" : "obj-25",
					"patching_rect" : [ 578.0, 318.0, 15.0, 15.0 ],
					"outlettype" : [ "" ],
					"numinlets" : 0,
					"numoutlets" : 1,
					"comment" : "fade (on/off)"
				}

			}
, 			{
				"box" : 				{
					"maxclass" : "inlet",
					"id" : "obj-26",
					"patching_rect" : [ 597.0, 174.0, 15.0, 15.0 ],
					"outlettype" : [ "" ],
					"numinlets" : 0,
					"numoutlets" : 1,
					"comment" : "play (on/off)"
				}

			}
, 			{
				"box" : 				{
					"maxclass" : "outlet",
					"id" : "obj-27",
					"patching_rect" : [ 119.0, 623.0, 16.0, 16.0 ],
					"numinlets" : 1,
					"numoutlets" : 0,
					"comment" : ""
				}

			}
, 			{
				"box" : 				{
					"maxclass" : "outlet",
					"id" : "obj-28",
					"patching_rect" : [ 444.0, 618.0, 15.0, 15.0 ],
					"numinlets" : 1,
					"numoutlets" : 0,
					"comment" : ""
				}

			}
, 			{
				"box" : 				{
					"maxclass" : "comment",
					"text" : "loop points (ms)",
					"id" : "obj-29",
					"patching_rect" : [ 282.0, 56.0, 82.0, 17.0 ],
					"fontname" : "Arial",
					"fontsize" : 9.0,
					"numinlets" : 1,
					"numoutlets" : 0
				}

			}
, 			{
				"box" : 				{
					"maxclass" : "comment",
					"text" : "play button off",
					"id" : "obj-30",
					"patching_rect" : [ 460.0, 622.0, 78.0, 17.0 ],
					"fontname" : "Arial",
					"fontsize" : 9.0,
					"numinlets" : 1,
					"numoutlets" : 0
				}

			}
, 			{
				"box" : 				{
					"maxclass" : "comment",
					"text" : "loop on/off",
					"linecount" : 2,
					"id" : "obj-31",
					"patching_rect" : [ 166.0, 73.0, 49.0, 27.0 ],
					"fontname" : "Arial",
					"fontsize" : 9.0,
					"numinlets" : 1,
					"numoutlets" : 0
				}

			}
, 			{
				"box" : 				{
					"maxclass" : "comment",
					"text" : "remaining time",
					"id" : "obj-32",
					"patching_rect" : [ 375.0, 686.0, 100.0, 17.0 ],
					"fontname" : "Arial",
					"fontsize" : 9.0,
					"numinlets" : 1,
					"numoutlets" : 0
				}

			}
, 			{
				"box" : 				{
					"maxclass" : "comment",
					"text" : "varispeed",
					"id" : "obj-33",
					"patching_rect" : [ 449.0, 142.0, 86.0, 17.0 ],
					"fontname" : "Arial",
					"fontsize" : 9.0,
					"numinlets" : 1,
					"numoutlets" : 0
				}

			}
, 			{
				"box" : 				{
					"maxclass" : "comment",
					"text" : "stop playback",
					"id" : "obj-34",
					"patching_rect" : [ 814.0, 355.0, 100.0, 17.0 ],
					"fontname" : "Arial",
					"fontsize" : 9.0,
					"numinlets" : 1,
					"numoutlets" : 0
				}

			}
, 			{
				"box" : 				{
					"maxclass" : "comment",
					"text" : "fade on/off",
					"id" : "obj-35",
					"patching_rect" : [ 519.0, 319.0, 78.0, 17.0 ],
					"fontname" : "Arial",
					"fontsize" : 9.0,
					"numinlets" : 1,
					"numoutlets" : 0
				}

			}
, 			{
				"box" : 				{
					"maxclass" : "comment",
					"text" : "starts xgroove",
					"id" : "obj-36",
					"patching_rect" : [ 693.0, 258.0, 100.0, 17.0 ],
					"fontname" : "Arial",
					"fontsize" : 9.0,
					"numinlets" : 1,
					"numoutlets" : 0
				}

			}
, 			{
				"box" : 				{
					"maxclass" : "comment",
					"text" : "detect switch to 0 to turn off play button and stop playback",
					"linecount" : 3,
					"id" : "obj-37",
					"patching_rect" : [ 256.0, 563.0, 103.0, 38.0 ],
					"fontname" : "Arial",
					"fontsize" : 9.0,
					"numinlets" : 1,
					"numoutlets" : 0
				}

			}
, 			{
				"box" : 				{
					"maxclass" : "comment",
					"text" : "controls the fade in",
					"id" : "obj-38",
					"patching_rect" : [ 427.0, 459.0, 100.0, 17.0 ],
					"fontname" : "Arial",
					"fontsize" : 9.0,
					"numinlets" : 1,
					"numoutlets" : 0
				}

			}
, 			{
				"box" : 				{
					"maxclass" : "comment",
					"text" : "todo:",
					"id" : "obj-39",
					"patching_rect" : [ 913.0, 32.0, 100.0, 17.0 ],
					"fontname" : "Arial",
					"fontsize" : 9.0,
					"numinlets" : 1,
					"numoutlets" : 0
				}

			}
, 			{
				"box" : 				{
					"maxclass" : "comment",
					"text" : "use route to eliminate some of the patch chords and make it easier to read",
					"linecount" : 5,
					"id" : "obj-40",
					"patching_rect" : [ 914.0, 51.0, 94.0, 58.0 ],
					"fontname" : "Arial",
					"fontsize" : 9.0,
					"numinlets" : 1,
					"numoutlets" : 0
				}

			}
 ],
		"lines" : [ 			{
				"patchline" : 				{
					"source" : [ "obj-20", 1 ],
					"destination" : [ "obj-3", 7 ],
					"hidden" : 0,
					"midpoints" : [ 140.5, 516.0, 948.0, 516.0, 948.0, 412.0, 914.5, 412.0 ]
				}

			}
, 			{
				"patchline" : 				{
					"source" : [ "obj-20", 3 ],
					"destination" : [ "obj-3", 6 ],
					"hidden" : 0,
					"midpoints" : [ 164.5, 532.0, 1039.0, 532.0, 1039.0, 391.0, 899.5, 391.0 ]
				}

			}
, 			{
				"patchline" : 				{
					"source" : [ "obj-20", 2 ],
					"destination" : [ "obj-3", 5 ],
					"hidden" : 0,
					"midpoints" : [ 152.5, 524.0, 1022.0, 524.0, 1022.0, 410.0, 884.5, 410.0 ]
				}

			}
, 			{
				"patchline" : 				{
					"source" : [ "obj-18", 0 ],
					"destination" : [ "obj-3", 4 ],
					"hidden" : 0,
					"midpoints" : [ 474.0, 192.0, 553.0, 192.0, 553.0, 411.0, 869.5, 411.0 ]
				}

			}
, 			{
				"patchline" : 				{
					"source" : [ "obj-6", 0 ],
					"destination" : [ "obj-3", 3 ],
					"hidden" : 0,
					"midpoints" : [ 677.0, 383.0, 854.5, 383.0 ]
				}

			}
, 			{
				"patchline" : 				{
					"source" : [ "obj-24", 0 ],
					"destination" : [ "obj-3", 2 ],
					"hidden" : 0,
					"midpoints" : [ 177.0, 373.0, 839.5, 373.0 ]
				}

			}
, 			{
				"patchline" : 				{
					"source" : [ "obj-25", 0 ],
					"destination" : [ "obj-3", 1 ],
					"hidden" : 0,
					"midpoints" : [ 587.0, 381.0, 824.5, 381.0 ]
				}

			}
, 			{
				"patchline" : 				{
					"source" : [ "obj-12", 1 ],
					"destination" : [ "obj-3", 0 ],
					"hidden" : 0,
					"midpoints" : [ 674.5, 226.0, 809.5, 226.0 ]
				}

			}
, 			{
				"patchline" : 				{
					"source" : [ "obj-13", 0 ],
					"destination" : [ "obj-9", 1 ],
					"hidden" : 0,
					"midpoints" : [ 367.5, 251.0, 680.5, 251.0 ]
				}

			}
, 			{
				"patchline" : 				{
					"source" : [ "obj-6", 0 ],
					"destination" : [ "obj-4", 3 ],
					"hidden" : 0,
					"midpoints" : [  ]
				}

			}
, 			{
				"patchline" : 				{
					"source" : [ "obj-9", 0 ],
					"destination" : [ "obj-8", 0 ],
					"hidden" : 0,
					"midpoints" : [  ]
				}

			}
, 			{
				"patchline" : 				{
					"source" : [ "obj-10", 2 ],
					"destination" : [ "obj-9", 0 ],
					"hidden" : 0,
					"color" : [ 0.290196, 0.611765, 0.380392, 1.0 ],
					"midpoints" : [  ]
				}

			}
, 			{
				"patchline" : 				{
					"source" : [ "obj-10", 1 ],
					"destination" : [ "obj-11", 0 ],
					"hidden" : 0,
					"color" : [ 0.290196, 0.611765, 0.380392, 1.0 ],
					"midpoints" : [  ]
				}

			}
, 			{
				"patchline" : 				{
					"source" : [ "obj-24", 0 ],
					"destination" : [ "obj-4", 2 ],
					"hidden" : 0,
					"midpoints" : [ 177.0, 143.0, 273.0, 143.0, 273.0, 389.0, 626.5, 389.0 ]
				}

			}
, 			{
				"patchline" : 				{
					"source" : [ "obj-12", 0 ],
					"destination" : [ "obj-10", 0 ],
					"hidden" : 0,
					"midpoints" : [  ]
				}

			}
, 			{
				"patchline" : 				{
					"source" : [ "obj-26", 0 ],
					"destination" : [ "obj-12", 0 ],
					"hidden" : 0,
					"midpoints" : [  ]
				}

			}
, 			{
				"patchline" : 				{
					"source" : [ "obj-25", 0 ],
					"destination" : [ "obj-4", 1 ],
					"hidden" : 0,
					"midpoints" : [  ]
				}

			}
, 			{
				"patchline" : 				{
					"source" : [ "obj-10", 0 ],
					"destination" : [ "obj-4", 0 ],
					"hidden" : 0,
					"midpoints" : [ 606.5, 407.0, 542.5, 407.0 ]
				}

			}
, 			{
				"patchline" : 				{
					"source" : [ "obj-18", 0 ],
					"destination" : [ "obj-21", 0 ],
					"hidden" : 0,
					"midpoints" : [  ]
				}

			}
, 			{
				"patchline" : 				{
					"source" : [ "obj-2", 1 ],
					"destination" : [ "obj-28", 0 ],
					"hidden" : 0,
					"midpoints" : [ 244.5, 608.0, 453.0, 608.0 ]
				}

			}
, 			{
				"patchline" : 				{
					"source" : [ "obj-20", 3 ],
					"destination" : [ "obj-13", 2 ],
					"hidden" : 0,
					"midpoints" : [ 164.5, 516.0, 1012.0, 516.0, 1012.0, 131.0, 423.5, 131.0 ]
				}

			}
, 			{
				"patchline" : 				{
					"source" : [ "obj-20", 2 ],
					"destination" : [ "obj-13", 1 ],
					"hidden" : 0,
					"midpoints" : [ 152.5, 508.0, 1001.0, 508.0, 1001.0, 137.0, 395.5, 137.0 ]
				}

			}
, 			{
				"patchline" : 				{
					"source" : [ "obj-18", 0 ],
					"destination" : [ "obj-13", 0 ],
					"hidden" : 0,
					"midpoints" : [ 474.0, 184.0, 367.5, 184.0 ]
				}

			}
, 			{
				"patchline" : 				{
					"source" : [ "obj-2", 1 ],
					"destination" : [ "obj-1", 0 ],
					"hidden" : 0,
					"midpoints" : [  ]
				}

			}
, 			{
				"patchline" : 				{
					"source" : [ "obj-5", 0 ],
					"destination" : [ "obj-2", 0 ],
					"hidden" : 0,
					"midpoints" : [ 185.5, 574.0, 227.5, 574.0 ]
				}

			}
, 			{
				"patchline" : 				{
					"source" : [ "obj-22", 0 ],
					"destination" : [ "obj-20", 2 ],
					"hidden" : 0,
					"midpoints" : [ 354.0, 251.0, 188.5, 251.0 ]
				}

			}
, 			{
				"patchline" : 				{
					"source" : [ "obj-3", 0 ],
					"destination" : [ "obj-5", 0 ],
					"hidden" : 0,
					"midpoints" : [ 809.5, 542.0, 185.5, 542.0 ]
				}

			}
, 			{
				"patchline" : 				{
					"source" : [ "obj-4", 0 ],
					"destination" : [ "obj-5", 0 ],
					"hidden" : 0,
					"midpoints" : [ 542.5, 533.0, 185.5, 533.0 ]
				}

			}
, 			{
				"patchline" : 				{
					"source" : [ "obj-23", 0 ],
					"destination" : [ "obj-20", 1 ],
					"hidden" : 0,
					"midpoints" : [ 291.0, 239.0, 158.5, 239.0 ]
				}

			}
, 			{
				"patchline" : 				{
					"source" : [ "obj-5", 0 ],
					"destination" : [ "obj-19", 1 ],
					"hidden" : 0,
					"midpoints" : [ 185.5, 575.0, 144.5, 575.0 ]
				}

			}
, 			{
				"patchline" : 				{
					"source" : [ "obj-19", 0 ],
					"destination" : [ "obj-27", 0 ],
					"hidden" : 0,
					"midpoints" : [  ]
				}

			}
, 			{
				"patchline" : 				{
					"source" : [ "obj-20", 0 ],
					"destination" : [ "obj-19", 0 ],
					"hidden" : 0,
					"midpoints" : [  ]
				}

			}
, 			{
				"patchline" : 				{
					"source" : [ "obj-1", 0 ],
					"destination" : [ "obj-20", 0 ],
					"hidden" : 0,
					"midpoints" : [ 253.5, 647.0, 100.0, 647.0, 100.0, 444.0, 128.5, 444.0 ]
				}

			}
, 			{
				"patchline" : 				{
					"source" : [ "obj-11", 0 ],
					"destination" : [ "obj-20", 0 ],
					"hidden" : 0,
					"color" : [ 0.290196, 0.611765, 0.380392, 1.0 ],
					"midpoints" : [ 639.5, 291.0, 128.5, 291.0 ]
				}

			}
, 			{
				"patchline" : 				{
					"source" : [ "obj-8", 0 ],
					"destination" : [ "obj-20", 0 ],
					"hidden" : 0,
					"color" : [ 0.290196, 0.611765, 0.380392, 1.0 ],
					"midpoints" : [ 672.5, 308.0, 128.5, 308.0 ]
				}

			}
, 			{
				"patchline" : 				{
					"source" : [ "obj-14", 0 ],
					"destination" : [ "obj-20", 0 ],
					"hidden" : 0,
					"midpoints" : [ 10.5, 439.0, 128.5, 439.0 ]
				}

			}
, 			{
				"patchline" : 				{
					"source" : [ "obj-21", 0 ],
					"destination" : [ "obj-20", 0 ],
					"hidden" : 0,
					"midpoints" : [ 474.5, 269.0, 128.5, 269.0 ]
				}

			}
, 			{
				"patchline" : 				{
					"source" : [ "obj-16", 0 ],
					"destination" : [ "obj-20", 0 ],
					"hidden" : 0,
					"midpoints" : [ 128.5, 197.0, 128.5, 197.0 ]
				}

			}
, 			{
				"patchline" : 				{
					"source" : [ "obj-17", 0 ],
					"destination" : [ "obj-20", 0 ],
					"hidden" : 0,
					"midpoints" : [ 93.0, 390.0, 128.5, 390.0 ]
				}

			}
, 			{
				"patchline" : 				{
					"source" : [ "obj-24", 0 ],
					"destination" : [ "obj-16", 0 ],
					"hidden" : 0,
					"midpoints" : [  ]
				}

			}
 ]
	}

}
