{
	"patcher" : 	{
		"fileversion" : 1,
		"rect" : [ 343.0, 287.0, 600.0, 426.0 ],
		"bglocked" : 0,
		"defrect" : [ 343.0, 287.0, 600.0, 426.0 ],
		"openrect" : [ 0.0, 0.0, 0.0, 0.0 ],
		"openinpresentation" : 0,
		"default_fontsize" : 12.0,
		"default_fontface" : 0,
		"default_fontname" : "Arial",
		"gridonopen" : 0,
		"gridsize" : [ 15.0, 15.0 ],
		"gridsnaponopen" : 0,
		"toolbarvisible" : 1,
		"boxanimatetime" : 200,
		"imprint" : 0,
		"enablehscroll" : 1,
		"enablevscroll" : 1,
		"devicewidth" : 0.0,
		"boxes" : [ 			{
				"box" : 				{
					"maxclass" : "newobj",
					"text" : "s cur_scene",
					"id" : "obj-1",
					"patching_rect" : [ 250.0, 220.0, 64.0, 17.0 ],
					"fontname" : "Arial",
					"fontsize" : 9.0,
					"numinlets" : 1,
					"numoutlets" : 0
				}

			}
, 			{
				"box" : 				{
					"maxclass" : "newobj",
					"text" : "int #1",
					"id" : "obj-2",
					"patching_rect" : [ 226.0, 162.0, 38.0, 17.0 ],
					"fontname" : "Arial",
					"outlettype" : [ "int" ],
					"fontsize" : 9.0,
					"numinlets" : 2,
					"numoutlets" : 1
				}

			}
, 			{
				"box" : 				{
					"maxclass" : "outlet",
					"id" : "obj-3",
					"patching_rect" : [ 107.0, 262.0, 15.0, 15.0 ],
					"numinlets" : 1,
					"numoutlets" : 0,
					"comment" : ""
				}

			}
, 			{
				"box" : 				{
					"maxclass" : "newobj",
					"text" : "sel #2",
					"id" : "obj-4",
					"patching_rect" : [ 226.0, 125.0, 39.0, 17.0 ],
					"fontname" : "Arial",
					"outlettype" : [ "bang", "" ],
					"fontsize" : 9.0,
					"numinlets" : 2,
					"numoutlets" : 2
				}

			}
, 			{
				"box" : 				{
					"maxclass" : "newobj",
					"text" : "sel #3",
					"id" : "obj-5",
					"patching_rect" : [ 107.0, 126.0, 39.0, 17.0 ],
					"fontname" : "Arial",
					"outlettype" : [ "bang", "" ],
					"fontsize" : 9.0,
					"numinlets" : 2,
					"numoutlets" : 2
				}

			}
, 			{
				"box" : 				{
					"maxclass" : "newobj",
					"text" : "key",
					"id" : "obj-6",
					"patching_rect" : [ 107.0, 83.0, 40.0, 17.0 ],
					"fontname" : "Arial",
					"outlettype" : [ "int", "int", "int", "int" ],
					"fontsize" : 9.0,
					"numinlets" : 0,
					"numoutlets" : 4
				}

			}
, 			{
				"box" : 				{
					"maxclass" : "newobj",
					"text" : "del 200",
					"id" : "obj-7",
					"patching_rect" : [ 107.0, 190.0, 44.0, 17.0 ],
					"fontname" : "Arial",
					"outlettype" : [ "bang" ],
					"fontsize" : 9.0,
					"numinlets" : 2,
					"numoutlets" : 1
				}

			}
, 			{
				"box" : 				{
					"maxclass" : "newobj",
					"text" : "t b b",
					"id" : "obj-8",
					"patching_rect" : [ 107.0, 163.0, 33.0, 17.0 ],
					"fontname" : "Arial",
					"outlettype" : [ "bang", "bang" ],
					"fontsize" : 9.0,
					"numinlets" : 1,
					"numoutlets" : 2
				}

			}
, 			{
				"box" : 				{
					"maxclass" : "newobj",
					"text" : "s store",
					"id" : "obj-9",
					"patching_rect" : [ 159.0, 189.0, 42.0, 17.0 ],
					"fontname" : "Arial",
					"fontsize" : 9.0,
					"numinlets" : 1,
					"numoutlets" : 0
				}

			}
, 			{
				"box" : 				{
					"maxclass" : "message",
					"text" : "store #1",
					"id" : "obj-10",
					"patching_rect" : [ 107.0, 215.0, 50.0, 15.0 ],
					"fontname" : "Arial",
					"outlettype" : [ "" ],
					"fontsize" : 9.0,
					"numinlets" : 2,
					"numoutlets" : 1
				}

			}
 ],
		"lines" : [ 			{
				"patchline" : 				{
					"source" : [ "obj-2", 0 ],
					"destination" : [ "obj-1", 0 ],
					"hidden" : 0,
					"midpoints" : [  ]
				}

			}
, 			{
				"patchline" : 				{
					"source" : [ "obj-4", 0 ],
					"destination" : [ "obj-2", 0 ],
					"hidden" : 0,
					"midpoints" : [  ]
				}

			}
, 			{
				"patchline" : 				{
					"source" : [ "obj-6", 0 ],
					"destination" : [ "obj-4", 0 ],
					"hidden" : 0,
					"midpoints" : [ 116.5, 113.0, 235.5, 113.0 ]
				}

			}
, 			{
				"patchline" : 				{
					"source" : [ "obj-8", 1 ],
					"destination" : [ "obj-9", 0 ],
					"hidden" : 0,
					"midpoints" : [ 130.5, 184.0, 168.5, 184.0 ]
				}

			}
, 			{
				"patchline" : 				{
					"source" : [ "obj-10", 0 ],
					"destination" : [ "obj-3", 0 ],
					"hidden" : 0,
					"midpoints" : [  ]
				}

			}
, 			{
				"patchline" : 				{
					"source" : [ "obj-2", 0 ],
					"destination" : [ "obj-3", 0 ],
					"hidden" : 0,
					"midpoints" : [ 235.5, 252.0, 116.0, 252.0 ]
				}

			}
, 			{
				"patchline" : 				{
					"source" : [ "obj-7", 0 ],
					"destination" : [ "obj-10", 0 ],
					"hidden" : 0,
					"midpoints" : [  ]
				}

			}
, 			{
				"patchline" : 				{
					"source" : [ "obj-8", 0 ],
					"destination" : [ "obj-7", 0 ],
					"hidden" : 0,
					"midpoints" : [  ]
				}

			}
, 			{
				"patchline" : 				{
					"source" : [ "obj-5", 0 ],
					"destination" : [ "obj-8", 0 ],
					"hidden" : 0,
					"midpoints" : [  ]
				}

			}
, 			{
				"patchline" : 				{
					"source" : [ "obj-6", 0 ],
					"destination" : [ "obj-5", 0 ],
					"hidden" : 0,
					"midpoints" : [  ]
				}

			}
 ]
	}

}
